<svg xmlns="http://www.w3.org/2000/svg" width="350" height="350" viewBox="0 0 350 350">
  <g fill="none" transform="translate(35 27)">
    <path fill="#EFF3F6" d="M22.4707394,265.18604 C62.8879598,304.187662 124.271022,301.88155 173.240899,281.91547 C224.570364,261.012111 269.24701,219.205393 278.610986,162.887698 C288.644301,102.530934 267.117297,36.6381521 213.218655,6.34176749 C192.983001,-5.03370565 169.170781,1.02826848 156.155868,7.95334905 C145.439433,13.710514 137.238884,23.2199593 133.134685,34.6489615 C120.998701,68.8697832 121.749171,94.992239 100.316821,128.376926 C82.3055338,156.441372 68.7835463,153.393527 41.2595409,162.449402 C23.5322154,168.288856 8.08334473,180.345374 2.32973907,198.551526 C-5.10735402,222.185807 6.24435443,247.910425 22.4639784,265.192783"/>
    <path fill="#A1A6B1" d="M245.5,32 C262.89697,32 277,45.8791728 277,63 L214,63 C214,45.8791728 228.10303,32 245.5,32 Z"/>
    <path fill="#FFF" d="M246,32 L131.001195,32 C110.013714,32 93,48.9716013 93,69.9071324 L93,253 L182.454799,253 C190.992742,253 199.180993,249.616711 205.21823,243.594417 C211.255468,237.572123 214.647153,229.40414 214.647153,220.88733 L214.647153,60.8304914 C215.976548,44.5419848 229.617049,31.9988705 246,32 Z"/>
    <rect width="96" height="1" x="105" y="80" fill="#A3C1E8"/>
    <rect width="96" height="1" x="105" y="93" fill="#A3C1E8"/>
    <rect width="96" height="1" x="105" y="107" fill="#A3C1E8"/>
    <rect width="96" height="1" x="105" y="120" fill="#A3C1E8"/>
    <rect width="96" height="1" x="105" y="132" fill="#A3C1E8"/>
    <rect width="96" height="1" x="105" y="145" fill="#A3C1E8"/>
    <rect width="96" height="1" x="105" y="158" fill="#A3C1E8"/>
    <rect width="96" height="1" x="105" y="171" fill="#A3C1E8"/>
    <rect width="96" height="1" x="105" y="183" fill="#A3C1E8"/>
    <rect width="96" height="1" x="105" y="196" fill="#A3C1E8"/>
    <rect width="96" height="1" x="105" y="210" fill="#A3C1E8"/>
    <rect width="96" height="1" x="104" y="223" fill="#A3C1E8"/>
    <path fill="#A1A6B1" d="M156.248795,222 L33,222 C33,239.120827 47.0552619,253 64.393306,253 L183,253 C167.830398,250.778089 156.248795,237.560052 156.248795,222 Z"/>
    <path fill="#273452" d="M111.792358,126.952518 L103.539627,116.060724 C102.70718,114.963515 101.391227,114.331056 100.005333,114.362111 C98.6194391,114.393166 97.333748,115.083921 96.5523152,116.217293 L89.1798757,126.925288 C87.88487,128.012076 86.0702979,128.25596 84.5294117,127.550325 C82.9885255,126.84469 82.0015703,125.317871 82,123.637328 L82,67 L119,67 L118.999743,123.637328 C119.0183,125.3335 118.031352,126.883151 116.477262,127.597988 C114.923173,128.312824 113.090153,128.060277 111.792358,126.952518 Z"/>
    <path fill="#47C998" d="M98.5,23 C80.5507456,23 66,37.5507456 66,55.5 C66,73.4492544 80.5507456,88 98.5,88 C116.449254,88 131,73.4492544 131,55.5 C130.97787,37.5599202 116.44008,23.0221301 98.5,23 Z"/>
    <path fill="#FFF" d="M99.0003361,34 C89.6978405,34 81.3113284,39.6036882 77.7514174,48.1980736 C74.1915065,56.7924589 76.1592601,66.6850244 82.7371179,73.2628821 C89.3149756,79.8407399 99.2075411,81.8084935 107.801926,78.2485826 C116.396312,74.6886716 122,66.3021595 122,56.9996639 C121.985024,44.3035088 111.696491,34.0149763 99.0003361,34 Z"/>
    <path fill="#47C998" d="M105.572737,56.9426597 L96.4531471,66.0293171 C95.8231564,66.6514317 94.966769,67.0008084 94.0738255,66.9999986 C93.180882,67.0008084 92.3244946,66.6514317 91.6945039,66.0293171 L85.0296608,59.4772169 C83.7289196,58.2249518 83.6506414,56.1915913 84.8513831,54.8462573 C85.4707095,54.1753708 86.3427055,53.7833911 87.2640042,53.7617354 C88.1853029,53.7400798 89.0753586,54.0906417 89.7265924,54.7316629 L94.0806823,59.0120987 L108.42518,44.9372169 C109.679703,43.7088452 111.700756,43.6849431 112.984975,44.8832901 C113.619853,45.4777192 113.985391,46.2978414 113.999572,47.1596418 C114.013752,48.0214422 113.675388,48.8527585 113.0604,49.4670639 L105.56588,56.9359188"/>
    <polygon fill="#B8BEC5" points="214.795 236 215 210.158 202.205 210 202.205 210 202.205 210 202.026 232.766 202 235.842 202 235.842 202 235.842 208.061 235.917 208.061 235.911"/>
    <path fill="#E25749" d="M204.959722,271.191961 L205.270521,235.066898 L199.311283,235 L199.000484,271.125063 C198.946432,277.620885 203.425995,282.932607 209.013625,282.999505 C210.03022,283.010282 211.040892,282.845008 212,282.511148 C207.885288,280.985867 204.919183,276.490304 204.966478,271.191961 L204.959722,271.191961 Z"/>
    <path fill="#47C998" d="M263.997331,156.03862 C264.294755,125.391633 239.694116,100.304926 209.047191,100.002755 C178.400266,99.7005833 153.30976,124.297348 153.002842,154.944241 C152.695924,185.591134 177.28879,210.685461 207.935621,210.997126 C222.658828,211.146855 236.838131,205.439908 247.35249,195.132454 C257.866849,184.825001 263.854444,170.761902 263.997331,156.03862 Z M208.043913,200.167864 C189.974461,199.994424 173.789289,188.951716 167.037407,172.190226 C160.285526,155.428736 164.297016,136.250378 177.200857,123.600231 C190.104698,110.950084 209.35891,107.320151 225.983036,114.403489 C242.607162,121.486826 253.326347,137.888058 253.141001,155.957401 C252.869508,180.607646 232.694678,200.385832 208.043913,200.167864 Z"/>
    <path fill="#E9C26D" d="M166.31 162C166.196667 161.336377 166.093333 160.669711 166 160 166.086667 160.675799 166.19 161.342466 166.31 162zM166.018934 157C166.018934 156.336134 166.018934 155.672269 166.018934 155 165.988934 155.672269 165.998934 156.336134 166.018934 157zM166.23 160C166.14 159.336207 166.06 158.672414 166 158 166.07 158.672414 166.14 159.336207 166.23 160z"/>
    <path fill="#E9C26D" d="M166.13 158C166.076667 157.336219 166.033333 156.669553 166 156 166.033333 156.669553 166.076667 157.336219 166.13 158zM166 155C166 154.327731 166 153.663866 166.08 153 166.03 153.705882 166.01 154.327731 166 155zM166.42 164C166.27 163.336283 166.12 162.672566 166 162 166.12 162.672566 166.26 163.327434 166.42 164zM168.72 169C168.47 168.336323 168.23 167.672646 168 167 168.19 167.672646 168.47 168.336323 168.72 169zM167.51 166C167.33 165.339394 167.16 164.672727 167 164 167.16 164.666667 167.33 165.333333 167.51 166zM167.61 167C167.39 166.339367 167.19 165.669683 167 165 167.19 165.714932 167.39 166.384615 167.61 167zM169 142C169.26 141.355878 169.53 140.689211 169.81 140 169.53 140.657005 169.26 141.323671 169 142zM166 153C166.04 152.327536 166.096667 151.66087 166.17 151 166.103333 151.66087 166.046667 152.327536 166 153zM168 142C168.24 141.324201 168.49 140.666667 168.75 140 168.49 140.666667 168.23 141.333333 168 142zM170 140C170.29 139.323671 170.6 138.657005 170.91 138 170.59 138.68599 170.29 139.352657 170 140zM168 144C168.2 143.330233 168.41 142.660465 168.64 142 168.41 142.688372 168.2 143.330233 168 144zM167 146C167.173333 145.330261 167.356667 144.663594 167.55 144 167.35 144.663594 167.166667 145.330261 167 146zM166 151C166.08 150.330435 166.17 149.66087 166.27 149 166.16 149.66087 166.08 150.321739 166 151zM166 150C166.106667 149.333333 166.223333 148.666667 166.35 148 166.216667 148.666667 166.1 149.333333 166 150zM167 148C167.14 147.327354 167.3 146.663677 167.46 146 167.3 146.663677 167.14 147.345291 167 148zM171 175C170.673333 174.333333 170.34 173.666667 170 173 170.313333 173.666667 170.646667 174.333333 171 175zM187 192C185.971429 191.372263 184.971429 190.705596 184 190 184.971429 190.705596 185.971429 191.372263 187 192zM184 190C183.656357 189.675926 183.323024 189.342593 183 189 183.329897 189.342593 183.66323 189.675926 184 190zM183 188C181.968085 187.362683 180.968085 186.696017 180 186 180.962766 186.70021 181.962766 187.366876 183 188zM178 184C177.660606 183.672515 177.327273 183.339181 177 183 177.327273 183.339181 177.660606 183.672515 178 184zM180 186C179.658915 185.670732 179.325581 185.337398 179 185 179.329457 185.337398 179.662791 185.670732 180 186zM195 194.87C194.327731 194.596667 193.661064 194.306667 193 194 193.655462 194.306667 194.322129 194.596667 195 194.87zM193 194C191.629945 193.423056 190.294073 192.75512 189 192 190.29404 192.755191 191.629916 193.423129 193 194zM189 192C188.324117 191.680217 187.65745 191.346883 187 191 187.65745 191.336043 188.324117 191.669377 189 192zM175 180C174.659259 179.36 174.325926 178.71 174 178 174.325926 178.7 174.659259 179.35 175 180zM173 177C172.657817 176.333333 172.324484 175.666667 172 175 172.342183 175.68 172.675516 176.346667 173 177zM177 183C176.658436 182.67033 176.325103 182.336996 176 182 176.329218 182.340659 176.662551 182.673993 177 183zM170 138C170.306667 137.333333 170.64 136.666667 171 136 170.646667 136.673333 170.313333 137.34 170 138zM169.89 173C169.58 172.336493 169.29 171.672986 169 171 169.29 171.691943 169.59 172.336493 169.89 173zM174 179C173.658793 178.333333 173.325459 177.666667 173 177 173.325459 177.673333 173.658793 178.34 174 179zM168.78 171C168.506667 170.368088 168.246667 169.701422 168 169 168.22 169.676145 168.48 170.342812 168.78 171zM176 183C175.657778 182.673913 175.324444 182.34058 175 182 175.324444 182.336957 175.657778 182.67029 176 183zM176 181C175.657005 180.67029 175.323671 180.336957 175 180 175.323671 180.336957 175.657005 180.67029 176 181zM172 175C171.657143 174.333333 171.32381 173.666667 171 173 171.31746 173.666667 171.650794 174.333333 172 175zM189 118C189.657534 117.65109 190.324201 117.317757 191 117 190.324201 117.317757 189.657534 117.65109 189 118zM188 119C188.657277 118.652174 189.323944 118.318841 190 118 189.323944 118.324638 188.657277 118.657971 188 119zM174 131C174.323529 130.661376 174.661765 130.328042 175 130 174.661765 130.306878 174.323529 130.640212 174 131zM181 124C181.970667 123.293333 182.970667 122.626667 184 122 182.970667 122.626667 181.970667 123.293333 181 124zM179 124C179.327485 123.660297 179.660819 123.326964 180 123 179.660819 123.326964 179.327485 123.660297 179 124zM194 115.79C194.66092 115.51 195.327586 115.246667 196 115 195.327586 115.246667 194.66092 115.51 194 115.79zM175 130C175.326139 129.662921 175.659472 129.329588 176 129 175.659472 129.329588 175.326139 129.662921 175 130zM176 128C176.326711 127.661017 176.660044 127.327684 177 127 176.660044 127.327684 176.326711 127.661017 176 128zM200 114C198.642127 114.285714 197.308793 114.619048 196 115 197.308793 114.619048 198.642127 114.285714 200 114zM183 122C183.329861 121.659367 183.663194 121.326034 184 121 183.663194 121.326034 183.329861 121.659367 183 122zM172 134C172.324638 133.652778 172.657971 133.319444 173 133 172.657971 133.329861 172.324638 133.663194 172 134zM178 126C178.325203 125.662602 178.658537 125.329268 179 125 178.662602 125.329268 178.329268 125.662602 178 126zM171 136C171.320988 135.333333 171.654321 134.666667 172 134 171.654321 134.666667 171.320988 135.333333 171 136zM184 121C184.959233 120.292308 185.959233 119.625641 187 119 185.973621 119.625641 184.973621 120.292308 184 121zM191 116C192.304598 115.635417 193.637931 115.302083 195 115 193.637931 115.302083 192.304598 115.635417 191 116zM177 127C177.327044 126.662791 177.660377 126.329457 178 126 177.656184 126.325581 177.322851 126.658915 177 127zM173 132C173.322751 131.65096 173.656085 131.317627 174 131 173.656085 131.34555 173.322751 131.678883 173 132zM175.18 180.25L175 180 175.18 180.25zM173.15 177.25L173 177 173.15 177.25zM172.19 175.35L172 175 172.19 175.35zM188 119.06L188.1 119 188 119.06zM171.12 173.25L171 173 171.12 173.25zM189 118.11L189.21 118 189 118.11zM175.19 181.24L175 181 175.19 181.24zM193.09 194L193 194 193.09 194zM184.13 190.09L184 190 184.13 190.09zM199.07 114L199 114 199.07 114zM166 155C166 155 166 155 166 155.07 166 155.14 166 155.07 166 155.14 166 155.21 166 155.14 166 155.07 166 155 166 155.02 166 155zM188.13 192.07L188 192 188.13 192.07zM195.07 195L195 195 195.07 195zM184 121.13L184.2 121 184 121.13zM180.1 186.09L180 186 180.1 186.09zM194 115.07L194.18 115 194 115.07zM177.1 183.11L177 183 177.1 183.11zM183.14 189.11L183 189 183.14 189.11zM196 115.05L196.17 115 196 115.05zM191 117L191.07 117 191 117zM179.19 185.19L179 185 179.19 185.19zM166 153.47C166 153.31 166 153.16 166 153 166.02 153.16 166.01 153.31 166 153.47zM167 148.35L167.06 148 167 148.35zM175 130.29L175.22 130 175 130.29zM167 146.49L167.11 146 167 146.49zM174 131.06L174 131 174 131.06zM175 129.28L175.23 129 175 129.28zM166 149.33L166 149 166 149.33zM166 151.52C166 151.35 166 151.18 166.05 151 166.03 151.13 166.01 151.35 166 151.52zM167 144.42L167.12 144 167 144.42zM172 134.39L172.22 134 172 134.39zM169 139.43L169.18 139 169 139.43zM171 136.28L171.14 136 171 136.28zM170 138.23L170.11 138 170 138.23zM168 142.12L168 142 168 142.12zM169 140.42L169.15 140 169 140.42zM173 132.29L173.19 132 173 132.29zM168.13 169.39L168 169 168.13 169.39zM168 167.09L168 167 168 167.09zM181 123.13L181.15 123 181 123.13zM167.1 165.4L167 165 167.1 165.4zM183 122.15L183.2 122 183 122.15zM167.1 164.48L167 164 167.1 164.48zM170.09 172.19L170 172 170.09 172.19zM177 127.07L177.06 127 177 127.07zM169.16 171.41L169 171 169.16 171.41zM179 124.23L179.24 124 179 124.23z"/>
    <path fill="#E9C26D" d="M166.0075 156.47C166.0075 156.31 166.0075 156.16 166.0075 156 165.9975 156.16 165.9975 156.31 166.0075 156.47zM178 126.16L178.15 126 178 126.16zM166.011547 158.51C166.011547 158.34 166.011547 158.17 166.011547 158 165.991547 158.17 166.001547 158.34 166.011547 158.51zM166.05 162.34L166 162 166.05 162.34zM166 160.32L166 160 166 160.32z"/>
    <path fill="#FFF" d="M252.997643,155.957168 C253.182278,137.957065 242.50422,121.61868 225.943878,114.562485 C209.383535,107.50629 190.203197,111.122314 177.348866,123.723987 C164.494534,136.32566 160.498436,155.430529 167.224412,172.127791 C173.950388,188.825053 190.07346,199.825447 208.073584,199.998222 C232.629769,200.215355 252.727192,180.512957 252.997643,155.957168 Z M196.672325,193.114279 C176.960641,186.918816 165.367179,166.565183 170.092423,146.450255 C174.817668,126.335328 194.261021,113.272704 214.669481,116.50206 C235.07794,119.731416 249.53848,138.158862 247.822626,158.749984 C246.106772,179.341105 228.795741,195.121003 208.134265,194.927972 C204.245192,194.890652 200.382925,194.279502 196.672325,193.114279 Z M199.153498,114.565858 L199.200694,114.565858 L199.153498,114.565858 C198.034274,114.822068 196.935276,115.120979 195.856505,115.462591 C196.935276,115.138958 198.034274,114.849037 199.153498,114.592827 L199.153498,114.565858 Z M187.75224,119.009069 C186.790336,119.557447 185.853154,120.141785 184.940694,120.762081 C185.853154,120.159764 186.790336,119.584417 187.75224,119.036039 L187.75224,119.009069 Z M166.547652,155.094146 C166.547652,155.094146 166.547652,155.094146 166.547652,155.04695 C166.547652,154.999754 166.547652,155.04695 166.547652,155.094146 C166.547652,155.141343 166.547652,155.094146 166.547652,155.141343 C166.547652,155.188539 166.547652,155.107631 166.547652,155.094146 Z M184.226008,189.743102 C185.124984,190.394863 186.068908,191.010665 187.057781,191.590507 C186.091382,191.010665 185.147458,190.394863 184.226008,189.743102 Z M188.628741,192.480498 C190.140356,193.295104 191.700797,194.015657 193.301167,194.638051 C191.712075,194.012274 190.162921,193.289481 188.662453,192.473756 L188.628741,192.480498 Z"/>
    <path fill="#47C998" d="M209.244333,283.999352 C203.534879,283.931335 198.945197,278.557969 199.000494,271.926283 L199.311542,235.428202 C199.311542,232.959174 201.081058,230.973069 203.223831,231.000276 L216.170328,231.149914 C218.306189,231.149914 220.02732,233.190433 219.999671,235.666263 L219.688624,272.164343 C219.633326,278.768822 214.953786,284.06737 209.244333,283.999352 Z"/>
    <path fill="#5EE5AE" d="M204.777291,271.99436 L205.084205,235.49598 C205.084205,233.026932 206.830205,231.040811 208.944501,231.068018 L203.167698,231 C201.060222,231 199.327864,232.958914 199.307403,235.427962 L199.000489,271.926342 C198.945926,278.530875 203.467792,283.931493 209.108188,283.999511 C210.090891,284.009866 211.068379,283.855823 212,283.543791 C207.785048,282.033795 204.73637,277.422184 204.777291,271.980756 L204.777291,271.99436 Z"/>
    <path fill="#EFEFEF" d="M208.875359,115.002205 C198.270583,114.889979 188.069728,119.065481 180.585784,126.581937 L216.475946,126.581937 C218.386218,126.581937 219.351479,127.547478 219.351479,128.735835 C219.351479,129.9254 218.387425,130.889733 217.198204,130.889733 L176.866491,130.889733 C174.039417,134.663955 171.913127,138.91548 170.588919,143.441757 L218.56847,143.441757 C219.757691,143.441757 220.721745,144.40609 220.721745,145.595655 C220.721745,146.784012 219.756484,147.749553 217.846212,147.749553 L169.583158,147.749553 C168.831384,152.079177 168.80629,156.503862 169.508907,160.841739 L218.203966,160.841739 C219.39055,160.84546 220.350496,161.808704 220.350491,162.995637 C220.350491,164.183995 219.385229,165.149535 217.474958,165.149535 L170.460668,165.149535 C171.826262,170.024911 174.118049,174.591473 177.210745,178.599579 L217.474958,178.599579 C219.385229,178.599579 220.350491,179.56512 220.350491,180.753477 C220.350491,181.943042 219.386437,182.907375 218.197216,182.907375 L181.07179,182.907375 C193.832198,195.238899 213.248266,197.543024 228.538961,188.540354 C243.829656,179.537684 251.240127,161.438954 246.65561,144.293729 C242.071093,127.148503 226.617382,115.167039 208.875359,115.002205 Z"/>
    <path fill="#B8BEC5" d="M220 145.999855C220 144.895365 219.038559 144 217.852561 144L170.003036 144C169.796595 144.660349 169.608105 145.326967 169.437566 145.999855 169.276003 146.658114 169.127904 147.328912 169 147.999709L217.13226 147.999709C219.037355 148.018517 220 147.12203 220 145.999855zM220 163.999984C220 162.895423 219.032814 162 217.839729 162L169 162C169.115124 162.670841 169.257336 163.341682 169.419865 163.999984 169.582393 164.670825 169.758465 165.341666 169.954853 165.999968L217.13544 165.999968C219.045147 166.006237 220 165.103423 220 163.999984zM220 181C220 179.896552 219.037414 179 217.132436 179L177 179C177.569923 179.685475 178.164527 180.352142 178.783813 181 179.443488 181.689655 180.130088 182.356322 180.843613 183L217.866155 183C219.04682 182.993105 220.000023 182.099691 220 181zM219 128.999956C219 127.896532 218.023813 127 216.091919 127L179.80235 127C179.101498 127.643664 178.41885 128.310316 177.754405 128.999956 177.144573 129.647799 176.559771 130.314451 176 130.999911L216.801873 130.999911C217.382961 131.004931 217.94213 130.796439 218.354958 130.420829 218.767787 130.04522 219.000026 129.533652 219 128.999956z"/>
    <path fill="#FFF" d="M0.56,39.3571429 C1.41140759,56.811739 13.3557003,71.6563248 30,75.9457143 C16.314891,52.8840422 14.9493411,24.3610515 26.3666667,0.0542857143 C10.2198178,5.96731537 -0.248324654,21.9100139 0.56,39.3571429 Z" opacity=".51" transform="translate(168 118)"/>
  </g>
</svg>
