<svg xmlns="http://www.w3.org/2000/svg" width="350" height="350" viewBox="0 0 350 350">
  <g fill="none" transform="translate(7 33)">
    <path fill="#EFF3F6" d="M39.5857261,77.8907952 C68.7165202,65.972562 103.542514,69.1792615 132.330682,52.977794 C159.154464,37.8757663 178.432867,9.87059054 210.753886,6.40430106 C268.193173,0.242856995 262.284784,66.010737 272.220928,101.040112 C280.862708,131.503757 298.542192,158.760703 319.579406,182.368119 C347.347312,213.534185 340.982089,272.949746 292.169355,283.722729 C264.553727,289.830728 243.052064,272.995556 225.814187,255.251818 C201.251735,229.972337 172.120941,206.907006 134.812815,202.226751 C90.3704612,196.653202 52.3466281,204.883731 18.883523,169.900166 C-2.67143722,147.369285 -8.85392671,115.691674 16.7744718,92.1300681 C23.462492,86.0467731 31.1899666,81.2231181 39.5857261,77.8907952 Z"/>
    <path fill="#34AD7B" d="M107.989263,128.224692 L107.989263,41 L18,41 L18,128.224692 C18,128.430915 18,128.644776 18,128.850999 C18,147.708946 38.1494562,163 62.9984276,163 C87.847399,163 107.996855,147.724222 107.996855,128.850999 C108.004447,128.644776 107.996855,128.438553 107.989263,128.224692 Z"/>
    <path fill="#47C998" d="M104.574039,27.7805939 C111.538637,44.5966279 107.687293,63.9522431 94.8159971,76.8213675 C81.9447012,89.690492 62.5884369,93.5385705 45.7735785,86.571135 C28.9587202,79.6036995 17.9969297,63.1929763 18.0000006,44.9917505 C18.0041932,20.1422647 38.1498569,-3.53685755e-07 62.9993426,0 C81.2005683,2.5906027e-07 97.6094413,10.9645598 104.574039,27.7805939 Z"/>
    <path fill="#5EE5AE" d="M63.4918216,10.0000009 C77.4469615,9.99689661 90.0295703,18.401291 95.3714052,31.2935654 C100.71324,44.1858398 97.7620975,59.0265489 87.8943232,68.8943232 C78.0265489,78.7620975 63.1858398,81.7132401 50.2935654,76.3714052 C37.401291,71.0295703 28.9968966,58.4469615 29.0000009,44.4918216 C29.0042379,25.4442703 44.4442703,10.0042379 63.4918216,10.0000009"/>
    <path fill="#34AD7B" d="M41,70 C33.4135516,63.5688302 29.027467,54.1340032 29,44.1870176 C29.033291,25.3435481 44.279034,10.0668063 63.1176471,10 L63.1935484,10 C73.1380174,10.027474 82.5704573,14.4146686 89,22.0030368 C82.8795917,16.6374268 75.0054895,13.7014477 66.8671727,13.7504745 C53.5475097,13.7160846 41.4325024,21.4585526 35.8663108,33.5625287 C30.3001191,45.6665049 32.3063434,59.9061163 41,70"/>
    <path fill="#B8BEC5" d="M253.21579,170.496615 L82.5901801,256.066809 C78.314465,258.220941 73.0956633,256.519334 70.9250377,252.263351 L27.936545,167.126752 C25.7746707,162.866349 27.4823937,157.666237 31.7536728,155.503385 L202.417454,69.9331911 C206.693169,67.7790589 211.911971,69.4806662 214.082597,73.7366489 L257.063455,158.835214 C259.225329,163.095617 257.517606,168.295729 253.246327,170.458581 L253.21579,170.496615 Z"/>
    <path fill="#A1A6B1" d="M202.465707,69.9011151 L183,79.6581542 C187.272003,77.5079551 192.486274,79.2064556 194.655016,83.4546675 L237.598561,168.397855 C239.758559,172.650479 238.052318,177.841097 233.784747,180 L253.250454,170.242961 C257.518025,168.084058 259.224266,162.89344 257.064268,158.640816 L214.090212,73.7280005 C211.92147,69.4797886 206.707199,67.7812881 202.435196,69.9314872 L202.465707,69.9011151 Z"/>
    <path fill="#D3D8DD" d="M188.726709,87.3198376 L53.3864197,155.458645 C52.3307776,155.986065 51.6900549,157.091115 51.7566396,158.269514 C52.1777995,165.095579 50.0012004,171.828245 45.6640037,177.115283 C44.9253217,178.022241 44.790952,179.279631 45.321293,180.322264 L70.4762632,230.377054 C70.9990674,231.422422 72.0886886,232.061414 73.2560283,232.007206 C80.0880521,231.660976 86.7978517,233.914415 92.0365782,238.314521 C92.9432941,239.070616 94.2129196,239.21438 95.2656752,238.680162 L230.61358,170.541355 C231.669222,170.013935 232.309945,168.908885 232.24336,167.730486 C231.8222,160.904421 233.9988,154.171755 238.335996,148.884717 C239.074678,147.977759 239.209048,146.720369 238.678707,145.677736 L213.493274,95.6229455 C212.970469,94.5775782 211.880848,93.9385863 210.713509,93.9927941 C203.881485,94.3390241 197.171685,92.0855853 191.932959,87.6854791 C191.026243,86.9293843 189.756617,86.7856204 188.703862,87.3198376 L188.726709,87.3198376 Z"/>
    <path fill="#B8BEC5" d="M283.327618,197 L92.6418993,197 C87.8641835,196.983175 83.9999705,193.097997 84,188.311216 L84,92.6887838 C84,87.890101 87.8827578,84 92.6723822,84 L283.327618,84 C288.117242,84 292,87.890101 292,92.6887838 L292,188.311216 C292,193.109899 288.117242,197 283.327618,197 Z"/>
    <path fill="#A1A6B1" d="M283.29608,84 L261.471325,84 C266.274147,84 270.167604,87.8898382 270.167604,92.6881967 L270.167604,185.708398 C268.936668,189.169659 265.659978,191.483524 261.98332,191.487805 L84,191.487805 C85.3069282,194.812477 88.5173796,196.999249 92.0925824,197 L283.29608,197 C287.019519,196.998241 290.328693,194.62841 291.526213,191.106074 C291.594989,190.899939 291.656123,190.693804 291.709615,190.48767 C291.898261,189.777596 291.995837,189.046452 292,188.311803 L292,92.6881967 C292,87.8898382 288.106544,84 283.303722,84 L283.29608,84 Z"/>
    <path fill="#D3D8DD" d="M263.506541,94.0000659 L111.485817,94.0000659 C110.286966,93.992121 109.201273,94.7031124 108.734726,95.8016827 C106.025809,102.076223 101.029385,107.097991 94.7500112,109.857335 C93.6823622,110.334447 92.996771,111.391678 93.0000114,112.555959 L93.0000114,168.474497 C92.996771,169.638778 93.6823622,170.696009 94.7500112,171.173121 C101.029385,173.932465 106.025809,178.954234 108.734726,185.228773 C109.207391,186.307768 110.279692,187.003939 111.462891,186.999983 L263.537109,186.999983 C264.720308,187.003939 265.792609,186.307768 266.265274,185.228773 C268.974191,178.954234 273.970615,173.932465 280.249989,171.173121 C281.317638,170.696009 282.003229,169.638778 281.999989,168.474497 L281.999989,112.525552 C282.003229,111.361271 281.317638,110.30404 280.249989,109.826928 C273.964668,107.081177 268.957329,102.070279 266.234707,95.8016827 C265.762041,94.7226885 264.68974,94.0265174 263.506541,94.0304729 L263.506541,94.0000659 Z"/>
    <path fill="#A1A6B1" d="M187,105 C206.329966,105 222,120.670034 222,140 C222,159.329966 206.329966,175 187,175 C167.670034,175 152,159.329966 152,140 C152,120.670034 167.670034,105 187,105 Z"/>
    <path fill="#47C998" d="M274.984167,161.000003 C293.188845,160.993864 309.603817,171.956995 316.571862,188.775339 C323.539907,205.593684 319.688134,224.953575 306.813309,237.824055 C293.938485,250.694534 274.577294,254.539771 257.761304,247.566048 C240.945314,240.592325 229.987725,224.173652 230.00001,205.968977 C230.016769,181.134314 250.149502,161.008377 274.984167,161.000003"/>
    <path fill="#5EE5AE" d="M275.5,172 C294.553824,172 310,187.446176 310,206.5 C310,225.553824 294.553824,241 275.5,241 C256.446176,241 241,225.553824 241,206.5 C241,187.446176 256.446176,172 275.5,172"/>
    <path fill="#34AD7B" d="M253,231.939264 C245.413552,225.508094 241.027467,216.073267 241,206.126281 C241.066617,187.306526 256.302654,172.066634 275.117647,172 L275.193548,172 C285.138017,172.027474 294.570457,176.414669 301,184.003037 C294.883512,178.640907 287.01545,175.705166 278.882353,175.750475 C265.56269,175.716085 253.447683,183.458553 247.881491,195.562529 C242.315299,207.666505 244.321524,221.906116 253.01518,232"/>
    <path fill="#FFF" d="M204.977099 122.537058L193.236641 122.537058C195.486563 124.328263 196.922769 126.95247 197.221374 129.817886L204.977099 129.817886 204.977099 133.385568 197.29771 133.385568C196.587786 140.666395 190.824427 145.305913 181.709924 145.589184 187.259542 151.369441 193.312977 158.650269 199.267176 166L192.435115 166C186.885496 159.29337 181.687023 153.084379 175 145.941359L175 141.554488 178.916031 141.554488C186.603053 141.554488 190.725191 138.346636 191.229008 133.416192L175.022901 133.416192 175.022901 129.84851 191.053435 129.84851C190.061069 125.70663 186.282443 123.639518 180.091603 123.639518L175.038168 123.639518 175.038168 119 205 119 204.977099 122.537058zM289 195.497462L280.780303 195.497462C282.356089 196.753799 283.361183 198.595761 283.568182 200.606599L289 200.606599 289 203.111675 283.621212 203.111675C283.121212 208.220812 279.075758 211.48731 272.712121 211.677665 276.598485 215.736041 280.833333 220.814721 285.015152 226L280.234848 226C276.348485 221.294416 272.712121 216.939086 268.030303 211.928934L268.030303 208.822335 270.772727 208.822335C276.151515 208.822335 279.045455 206.538071 279.393939 203.111675L268.030303 203.111675 268.030303 200.606599 279.212121 200.606599C278.515152 197.705584 275.871212 196.251269 271.537879 196.251269L268 196.251269 268 193 288.977273 193 289 195.497462zM78.992416 31.5326112L70.7638137 31.5326112C72.3413065 32.7875001 73.3474903 34.6273396 73.5547129 36.6358608L78.992416 36.6358608 78.992416 39.1380502 73.6078007 39.1380502C73.1072589 44.2412998 69.0574215 47.5040332 62.6868906 47.6941692 66.5774648 51.7478682 70.8169014 56.820696 75.0032503 62L70.2177681 62C66.3271939 57.2998387 62.6868906 52.9495275 58 47.9451487L58 44.8041023 60.7453954 44.8041023C66.1300108 44.8041023 69.0270856 42.5224706 69.375948 39.100023L58 39.100023 58 36.5978336 69.2242687 36.5978336C68.5265439 33.7001613 65.87974 32.2475225 61.5417118 32.2475225L58 32.2475225 58 29 79 29 78.992416 31.5326112z"/>
  </g>
</svg>
