<svg xmlns="http://www.w3.org/2000/svg" xmlns:xlink="http://www.w3.org/1999/xlink" width="1440" height="363" viewBox="0 0 1440 363">
  <defs>
    <rect id="form-illustration-a" width="1440" height="380"/>
  </defs>
  <g fill="none" fill-rule="evenodd" transform="translate(0 -17)">
    <mask id="form-illustration-b" fill="#fff">
      <use xlink:href="#form-illustration-a"/>
    </mask>
    <g mask="url(#form-illustration-b)">
      <g transform="translate(0 17)">
        <path fill="#9BDEC7" d="M1052.64643,362.698262 C1026.64957,365.404466 998.98366,363.016418 972.784496,363.016418 L770.714122,363.016418 L510.586355,363.016418 L255.074257,363.016418 L66.843396,363.016418 C54.6129982,363.016418 42.4163188,364.272202 30.185921,364.266587 C17.1425361,364.260973 5.84688613,366.931618 11.4890914,352.552803 C19.2667927,332.73725 35.0788294,314.463821 51.9848395,301.224756 C60.5212039,294.541592 70.6741761,288.588317 81.6757271,289.01315 C113.509604,290.242732 126.31696,326.565008 162.762759,319.625447 C186.129581,315.176867 200.5217,294.270223 218.298768,280.739202 C238.715234,265.196307 262.183211,251.159978 288.198797,246.707655 C319.796646,241.300861 356.774445,256.748309 387.902109,261.475744 C414.575204,265.527564 442.368497,266.603683 468.148055,258.870601 C497.241378,250.145619 521.348131,231.318224 549.220101,220.003071 C579.019636,207.903756 615.6359,206.55814 647.250607,211.300547 C667.078875,214.274378 687.399806,219.989971 705.045746,229.332551 C723.793154,239.257171 738.464386,255.385849 758.749725,262.789544 C786.260158,272.828327 814.690354,260.092698 835.51706,242.683907 C869.085559,214.62435 919.256602,174.027544 963.912821,205.307971 C987.543771,221.863353 1002.84816,250.965341 1016.39732,275.332408 C1023.95772,288.92706 1030.80442,302.886657 1036.90557,317.141953 C1042.56089,330.35856 1052.65579,348.544028 1052.64643,362.698262 Z" opacity=".17"/>
        <path fill="#7CD9B6" fill-opacity=".97" d="M1540.53581,363.036737 C1540.53581,363.036737 566.79271,364.110984 565.83361,364.017408 C556.066526,363.061066 633.521341,345.474482 724.997373,342.055232 C759.890254,340.750789 784.839966,301.828985 846.302913,303.60692 C879.281341,304.559519 884.189235,261.391258 918.285988,268.392579 C931.269429,271.059481 944.112377,275.33214 957.573495,274.660267 C985.634662,273.258506 996.61748,251.103565 1011.68959,237.254387 C1025.34178,224.70778 1040.14788,212.550448 1057.54843,202.657643 C1094.82782,181.460915 1142.87273,178.357951 1176.77841,205.885999 C1176.78403,205.891614 1243.75619,260.264608 1243.75619,260.264608 C1243.75619,260.264608 1302.75957,316.323834 1371.33147,271.802471 C1394.9849,256.444856 1431.01671,251.058648 1460.51091,260.171033 C1480.36165,266.302101 1496.29545,278.599797 1504.03943,293.16202 C1506.62638,298.027948 1540.61636,368.224564 1540.53581,363.036737" opacity=".687"/>
        <path fill="#0AB775" d="M1540.05164,363.159287 C1521.64329,364.615322 1502.02669,363.340823 1483.4816,363.340823 L841.611439,363.340823 C838.762238,363.340823 835.931769,363.408197 833.082568,363.507388 C827.858095,363.688924 822.635496,363.937835 817.388545,363.986494 L804.888401,363.887304 L551.573615,362.017665 C551.757193,362.051352 551.940771,362.068196 552.122475,362.068196 C547.697877,362.083168 1.47358825,364.102528 0.698066016,364.102528 C-1.92447295,364.119371 3.64280263,346.585189 4.25722604,345.477255 C11.9206596,332.045424 35.0271011,320.763959 62.6986337,324.86631 C73.2356206,326.421535 83.660213,328.91813 94.5868343,328.538214 C117.374825,327.711006 126.29333,314.741438 138.519982,306.620954 C149.605829,299.275275 161.626423,292.163535 175.746922,286.356238 C206.018515,273.949995 245.023162,272.130887 272.531723,288.259564 L326.913815,320.101444 C326.913815,320.101444 374.816362,352.937096 430.474132,326.850111 C449.680484,317.868732 470.346091,309.383304 494.274885,314.709622 C502.738193,316.594234 510.332317,321.151362 518.147483,324.175723 C526.681974,327.478939 535.458113,330.452769 544.42345,333.085984 C600.341601,349.504746 665.507948,354.917154 725.449822,352.942711 C743.62589,352.343827 761.815071,350.728714 779.466632,347.462928 C792.5812,345.03745 806.046064,341.977531 817.796912,336.99557 C830.074141,331.787156 840.28331,322.470777 855.988572,324.259941 C866.398179,325.446478 874.780937,330.810227 883.620767,334.970595 C910.765918,347.745526 928.638521,330.997378 948.914494,319.356583 C963.375923,311.052691 980.004694,303.544191 998.435523,301.178601 C1020.81327,298.283375 1047.02368,306.538608 1069.0811,309.06889 C1087.96713,311.236099 1107.67738,311.797552 1125.92463,307.678357 C1146.54528,303.014553 1163.63113,292.940212 1183.36198,286.902719 C1204.48466,280.434779 1230.4197,279.706761 1252.81993,282.255759 C1266.87112,283.8428 1281.26511,286.885876 1293.78773,291.882809 C1307.0634,297.190413 1317.46551,305.808718 1331.83703,309.76322 C1351.31687,315.14007 1371.45797,308.324029 1386.21725,299.028236 C1410.00742,284.024336 1445.54844,262.3223 1477.18376,279.046118 C1493.92867,287.89462 1504.7635,303.445001 1514.36761,316.463228 C1519.72696,323.741532 1524.58615,331.201373 1528.89835,338.810935 C1532.91084,345.874015 1540.07599,355.600256 1540.05164,363.159287"/>
        <path fill="#1F7F57" d="M5.2779486e-05,364.129985 C18.4084031,364.594119 38.0249945,364.188002 56.5700915,364.188002 L698.44025,364.188002 C701.289451,364.188002 704.11992,364.208588 706.969121,364.240404 C712.193594,364.298421 717.416193,364.377024 722.663144,364.393868 L735.165162,364.362052 L988.478074,363.766912 C992.353812,363.787498 1538.5781,364.429426 1539.35362,364.429426 C1541.97616,364.435041 1536.41076,358.859811 1535.79446,358.507967 C1528.13103,354.23718 1505.02459,350.649495 1477.35306,351.955809 C1466.81607,352.449888 1456.39148,353.243408 1445.46485,353.12176 C1422.67686,352.859748 1413.75836,348.734939 1401.53171,346.154126 C1390.44586,343.818481 1378.42527,341.555825 1364.30477,339.710516 C1334.03505,335.767243 1295.02853,335.188946 1267.51997,340.315014 L1213.13787,350.439885 C1213.13787,350.439885 1165.23533,360.879171 1109.57756,352.586508 C1090.37121,349.730583 1069.7056,347.031865 1045.7768,348.725582 C1037.3135,349.324465 1029.72125,350.773014 1021.90421,351.734971 C1013.36972,352.784888 1004.59358,353.731872 995.628239,354.568438 C939.711962,359.78808 874.543742,361.50987 814.601867,360.881043 C796.425799,360.69202 778.236618,360.177355 760.586931,359.138666 C747.470489,358.367604 734.005625,357.39629 722.254777,355.811121 C709.977548,354.154834 699.768379,351.194104 684.063117,351.763043 C673.65351,352.139217 665.270752,353.844163 656.430922,355.167321 C629.285771,359.228499 611.413168,353.904051 591.137195,350.204075 C576.677639,347.563374 560.046996,345.175326 541.616166,344.422979 C519.238416,343.504067 493.028012,346.127925 470.97246,346.932675 C452.084559,347.621391 432.374306,347.799184 414.127054,346.490998 C393.506405,345.00689 376.420564,341.804736 356.689704,339.884566 C335.568899,337.827776 309.631989,337.59758 287.23176,338.406073 C273.180571,338.911381 258.786578,339.878952 246.263955,341.467864 C232.988288,343.155966 222.586174,345.895858 208.214661,347.153513 C188.734816,348.862202 168.593717,346.694993 153.834442,343.739878 C130.044267,338.969397 94.5032444,332.069138 62.8679315,337.3861 C46.1230202,340.19898 35.2881878,345.143511 25.6859487,349.283292 C20.3247298,351.596479 15.4655397,353.969554 11.1552096,356.387546 C7.14085174,358.633358 -0.0224261259,361.726965 5.2779486e-05,364.129985 L1236.4306,306"/>
        <g transform="translate(1270)">
          <path fill="#9BDEC7" d="M21.4526339,363.129985 L0.23254717,363.129985 L0.23254717,354.629584 C0.23254717,353.768689 0.582843446,352.945225 1.20475983,352.348213 L10.8425905,343.099208 L21.4526339,353.282096 L21.4526339,363.129985 Z"/>
          <polygon fill="#FDFEFF" points="10.843 343.099 21.453 353.282 66.731 353.282 55.229 343.043"/>
          <polygon fill="#0AB775" points="21.453 363.13 66.732 363.13 66.732 353.282 21.453 353.282"/>
          <path fill="#0AB775" d="M10.2150544,355.946379 C11.6555776,355.946379 12.8244807,357.11233 12.8244807,358.551521 L12.8244807,363.129236 L7.60562815,363.129236 L7.60562815,358.551521 C7.60562815,357.11233 8.77453123,355.946379 10.2150544,355.946379"/>
          <path fill="#C5C5C7" d="M51.5764277,338.158794 C52.4212599,338.158794 53.1049933,338.841896 53.1049933,339.685947 L53.1049933,344.986065 L50.0497354,344.986065 L50.0497354,339.685947 C50.0497354,338.841896 50.7334688,338.158794 51.5764277,338.158794"/>
          <path fill="#9BDEC7" d="M105.596052,26.4147647 C102.853148,13.364397 84.4697007,3.69933135 72.8460858,0.86481995 C43.9856466,-6.17743276 19.7903914,31.4093499 13.3827894,54.8291959 C9.72558492,68.1999215 8.63329487,83.2117787 12.1162575,96.7361262 C16.0432557,111.982163 25.0288871,118.151394 36.9503993,127.357467 C43.8619911,132.693018 50.3239266,140.293555 49.7019021,149.003168 C48.8644173,160.76461 38.4792307,169.526679 37.1227676,181.687163 C36.0098683,191.672587 37.6136424,202.881365 42.3237919,211.886981 C49.1716824,224.974817 56.1151249,233.991674 51.4068489,249.325762 C49.4114991,255.832211 46.7060671,262.353648 47.0826543,269.148607 C47.3842987,274.62654 49.6700515,279.763506 51.3112969,284.997891 C56.5760226,301.767033 50.153432,315.255785 50.7660887,330.93646 C50.9440776,335.518889 58.9048674,323.869852 59.2121325,322.888171 C61.5391038,315.443129 62.9049347,307.467904 64.2632714,299.801797 C66.7588638,285.730405 71.1298976,265.416719 63.5644306,252.150906 C52.4860239,232.723356 80.3347364,195.168422 80.3609664,195.130953 C89.4271612,182.908645 95.7560734,166.707155 98.8512075,151.97444 C106.16749,117.164092 22.6550766,115.487365 98.6132644,49.630406 C104.376359,44.6339474 106.572181,35.8718788 105.875213,28.2769619 C105.819006,27.6493603 105.723454,27.0273789 105.596052,26.4147647" opacity=".181"/>
        </g>
      </g>
    </g>
  </g>
</svg>
