<?xml version="1.0" encoding="UTF-8"?>
<svg width="616px" height="384px" viewBox="0 0 616 384" version="1.1" xmlns="http://www.w3.org/2000/svg" xmlns:xlink="http://www.w3.org/1999/xlink">
    <!-- Generator: Sketch 49.2 (51160) - http://www.bohemiancoding.com/sketch -->
    <title>google-plus-g</title>
    <desc>Created with Sketch.</desc>
    <defs></defs>
    <g id="Page-1" stroke="none" stroke-width="1" fill="none" fill-rule="evenodd">
        <g id="google-plus-g" fill="#354052" fill-rule="nonzero">
            <path d="M374.061,164.496 C375.895,174.188 377.204,183.88 377.204,196.452 C377.204,306.205 303.599,384 192.8,384 C86.716,384 0.8,298.085 0.8,192 C0.8,85.915 86.716,0 192.8,0 C244.664,0 287.883,18.859 321.411,50.292 L269.285,100.322 C255.14,86.701 230.257,70.723 192.8,70.723 C127.316,70.723 73.88,124.944 73.88,192 C73.88,259.056 127.316,313.277 192.8,313.277 C268.761,313.277 297.313,258.532 301.765,230.504 L192.8,230.504 L192.8,164.495 L374.061,164.495 L374.061,164.496 Z M559.467,170.933 L559.467,115.2 L503.466,115.2 L503.466,170.933 L447.733,170.933 L447.733,226.934 L503.466,226.934 L503.466,282.667 L559.467,282.667 L559.467,226.934 L615.2,226.934 L615.2,170.933 L559.467,170.933 Z" id="Shape"></path>
        </g>
    </g>
</svg>