<?xml version="1.0" encoding="UTF-8"?>
<svg width="640px" height="384px" viewBox="0 0 640 384" version="1.1" xmlns="http://www.w3.org/2000/svg" xmlns:xlink="http://www.w3.org/1999/xlink">
    <!-- Generator: Sketch 49.1 (51147) - http://www.bohemiancoding.com/sketch -->
    <title>graduation-cap</title>
    <desc>Created with Sketch.</desc>
    <defs></defs>
    <g id="Page-1" stroke="none" stroke-width="1" fill="none" fill-rule="evenodd">
        <g id="graduation-cap" transform="translate(-1.000000, 0.000000)" fill="#FFFFFF" fill-rule="nonzero">
            <path d="M623.884,135.005 L348.067,220.105 C330.395951,225.297997 311.604049,225.297997 293.933,220.105 L93.398,158.232 C84.834,169.67 82.38,181.282 81.48,196.567 C90.778,202.165 97,212.355 97,224 C97,235.952 90.443,246.366 80.735,251.861 L96.932,374.957 C97.562,379.743 93.832,384 89,384 L41,384 C36.172,384 32.438,379.747 33.068,374.956 L49.265,251.86 C39.557,246.366 33,235.952 33,224 C33,211.966 39.646,201.489 49.465,196.024 C50.412,178.073 53.439,162.793 61.617,148.427 L18.115,135.005 C-4.761,128.204 -4.651,95.764 18.115,88.995 L293.932,3.895 C311.603049,-1.29799686 330.394951,-1.29799686 348.066,3.895 L623.883,88.995 C646.76,95.796 646.65,128.236 623.884,135.005 Z M357.503,250.682 L357.296,250.746 L357.089,250.807 C333.528137,257.730782 308.472863,257.730782 284.912,250.807 L284.705,250.746 L284.498,250.682 L133.584,204.112 L121,288 C121,323.346 210.543,352 321,352 C431.457,352 521,323.346 521,288 L508.417,204.112 L357.503,250.682 Z" id="Shape"></path>
        </g>
    </g>
</svg>