<?xml version="1.0" encoding="UTF-8"?>
<svg width="576px" height="448px" viewBox="0 0 576 448" version="1.1" xmlns="http://www.w3.org/2000/svg" xmlns:xlink="http://www.w3.org/1999/xlink">
    <!-- Generator: Sketch 49.2 (51160) - http://www.bohemiancoding.com/sketch -->
    <title>home</title>
    <desc>Created with Sketch.</desc>
    <defs></defs>
    <g id="Page-1" stroke="none" stroke-width="1" fill="none" fill-rule="evenodd">
        <g id="home" fill="#354052" fill-rule="nonzero">
            <path d="M488,280.7 L488,424 C488,437.3 477.3,448 464,448 L348,448 C341.4,448 336,442.6 336,436 L336,324 C336,317.4 330.6,312 324,312 L252,312 C245.4,312 240,317.4 240,324 L240,436 C240,442.6 234.6,448 228,448 L112,448 C98.7,448 88,437.3 88,424 L88,280.7 C88,277.1 89.6,273.7 92.4,271.4 L280.4,116.6 C284.8,113 291.2,113 295.7,116.6 L483.7,271.4 C486.4,273.7 488,277.1 488,280.7 Z M571.6,219.8 L488,150.9 L488,12.4 C488,5.8 482.6,0.4 476,0.4 L420,0.4 C413.4,0.4 408,5.8 408,12.4 L408,85 L318.5,11.3 C300.8,-3.3 275.2,-3.3 257.5,11.3 L4.4,219.8 C-0.7,224 -1.4,231.6 2.8,236.7 L28.3,267.7 C32.5,272.8 40.1,273.5 45.2,269.3 L280.4,75.6 C284.8,72 291.2,72 295.7,75.6 L530.9,269.3 C536,273.5 543.6,272.8 547.8,267.7 L573.3,236.7 C577.5,231.5 576.7,224 571.6,219.8 Z" id="Shape"></path>
        </g>
    </g>
</svg>