<svg id="Layer_3" data-name="Layer 3" xmlns="http://www.w3.org/2000/svg" viewBox="0 0 447 447"><defs><style>.cls-1{fill:#354052;fill-rule:evenodd;}</style></defs><title>instagram-square</title><path class="cls-1" d="M58.37-.47H390.63C422.18-.47,448,22.88,448,56.9V389.16c0,34-25.82,57.37-57.37,57.37H58.37C26.82,446.53,1,423.18,1,389.16V56.9C1,22.88,26.82-.47,58.37-.47ZM326.63,49.19A20.18,20.18,0,0,0,306.5,69.31v48.18a20.18,20.18,0,0,0,20.13,20.13h50.53a20.17,20.17,0,0,0,20.1-20.13V69.31a20.17,20.17,0,0,0-20.1-20.12Zm70.85,139.37H358.13a130.77,130.77,0,0,1,5.74,38.35c0,74.35-62.21,134.63-139,134.63S86,301.26,86,226.91a131.1,131.1,0,0,1,5.73-38.35h-41V377.39a17.82,17.82,0,0,0,17.78,17.77H379.72a17.81,17.81,0,0,0,17.76-17.77ZM224.92,135.07c-49.56,0-89.77,39-89.77,87s40.21,87,89.77,87,89.78-38.95,89.78-87-40.18-87-89.78-87Zm0,0" transform="translate(-1 0.47)"/></svg>