<?xml version="1.0" encoding="UTF-8"?>
<svg width="496px" height="496px" viewBox="0 0 496 496" version="1.1" xmlns="http://www.w3.org/2000/svg" xmlns:xlink="http://www.w3.org/1999/xlink">
    <!-- Generator: Sketch 49.2 (51160) - http://www.bohemiancoding.com/sketch -->
    <title>life-ring</title>
    <desc>Created with Sketch.</desc>
    <defs></defs>
    <g id="Page-1" stroke="none" stroke-width="1" fill="none" fill-rule="evenodd">
        <g id="life-ring" fill="#354052" fill-rule="nonzero">
            <path d="M248,496 C384.967,496 496,384.967 496,248 C496,111.033 384.967,0 248,0 C111.033,0 0,111.033 0,248 C0,384.967 111.033,496 248,496 Z M144.602,419.28 L198.013,365.869 C229.819,379.375 266.141,379.391 297.987,365.869 L351.398,419.28 C288.181,457.599 207.819,457.599 144.602,419.28 Z M328,248 C328,292.112 292.112,328 248,328 C203.888,328 168,292.112 168,248 C168,203.888 203.888,168 248,168 C292.112,168 328,203.888 328,248 Z M419.28,351.398 L365.869,297.987 C379.374,266.181 379.391,229.859 365.869,198.013 L419.28,144.602 C457.599,207.819 457.599,288.181 419.28,351.398 Z M351.397,76.72 L297.986,130.131 C266.18,116.626 229.858,116.609 198.013,130.131 L144.602,76.72 C207.819,38.401 288.181,38.401 351.397,76.72 Z M76.72,144.602 L130.131,198.013 C116.625,229.819 116.609,266.141 130.131,297.987 L76.72,351.398 C38.401,288.181 38.401,207.819 76.72,144.602 Z" id="Shape"></path>
        </g>
    </g>
</svg>