<svg id="Layer_4" data-name="Layer 4" xmlns="http://www.w3.org/2000/svg" viewBox="0 0 447.38 446.61"><defs><style>.cls-1{fill:#354052;}</style></defs><title>linkedin</title><path class="cls-1" d="M54.4.92a53.76,53.76,0,1,0,53.73,53.73A53.76,53.76,0,0,0,54.4.92Zm0,0" transform="translate(-0.62 -0.92)"/><rect class="cls-1" x="7.39" y="148.28" width="92.72" height="298.33"/><path class="cls-1" d="M336.78,141.78c-45.11,0-75.35,24.75-87.74,48.19h-1.22V149.2H158.88V447.52h92.65V300c0-38.92,7.39-76.6,55.63-76.6,47.56,0,48.19,44.51,48.19,79.09V447.52H448V283.89c0-80.32-17.35-142.11-111.22-142.11Zm0,0" transform="translate(-0.62 -0.92)"/></svg>