<?xml version="1.0" encoding="UTF-8"?>
<svg width="320px" height="512px" viewBox="0 0 320 512" version="1.1" xmlns="http://www.w3.org/2000/svg" xmlns:xlink="http://www.w3.org/1999/xlink">
    <!-- Generator: Sketch 49.1 (51147) - http://www.bohemiancoding.com/sketch -->
    <title>mobile-android-alt</title>
    <desc>Created with Sketch.</desc>
    <defs></defs>
    <g id="Page-1" stroke="none" stroke-width="1" fill="none" fill-rule="evenodd">
        <g id="mobile-android-alt" fill="#FFFFFF" fill-rule="nonzero">
            <path d="M272,0 L48,0 C21.5,0 0,21.5 0,48 L0,464 C0,490.5 21.5,512 48,512 L272,512 C298.5,512 320,490.5 320,464 L320,48 C320,21.5 298.5,0 272,0 Z M208,452 C208,458.6 202.6,464 196,464 L124,464 C117.4,464 112,458.6 112,452 L112,444 C112,437.4 117.4,432 124,432 L196,432 C202.6,432 208,437.4 208,444 L208,452 Z M272,372 C272,378.6 266.6,384 260,384 L60,384 C53.4,384 48,378.6 48,372 L48,60 C48,53.4 53.4,48 60,48 L260,48 C266.6,48 272,53.4 272,60 L272,372 Z" id="Shape"></path>
        </g>
    </g>
</svg>