<svg xmlns="http://www.w3.org/2000/svg" width="51" height="50" viewBox="0 0 51 50">
    <g fill="none" fill-rule="evenodd">
        <path fill="#354052" fill-rule="nonzero" d="M44.884 26.22a12.92 12.92 0 0 0-5.29-4.645.998.998 0 0 0-1.328.462.983.983 0 0 0 .466 1.316c3.768 1.797 6.204 5.637 6.204 9.783 0 1.774-.441 3.533-1.275 5.088a.982.982 0 0 0 .41 1.334.996.996 0 0 0 1.345-.408 12.764 12.764 0 0 0 1.508-6.014c0-2.461-.705-4.853-2.04-6.915zM35.558 20.316h-.067a.99.99 0 0 0-.994.986.99.99 0 0 0 .994.986h.063a.99.99 0 0 0 .994-.981.99.99 0 0 0-.99-.991zM29.269 42.92c-3.77-1.798-6.204-5.638-6.204-9.784 0-1.774.44-3.533 1.274-5.088a.982.982 0 0 0-.41-1.334.998.998 0 0 0-1.345.408 12.764 12.764 0 0 0-1.508 6.014c0 2.462.706 4.853 2.04 6.916a12.921 12.921 0 0 0 5.291 4.645.996.996 0 0 0 1.327-.461.983.983 0 0 0-.465-1.317zM32.509 43.984h-.058a.99.99 0 0 0-.998.982.99.99 0 0 0 .99.99h.066a.99.99 0 0 0 .994-.985.99.99 0 0 0-.994-.987z"/>
        <path fill="#354052" fill-rule="nonzero" d="M38.514 16.98a4.516 4.516 0 0 0-.441-.806h2.588c2.521 0 4.573-2.036 4.573-4.537s-2.052-4.536-4.573-4.536H32.7c.506-.73.803-1.614.803-2.565C33.503 2.036 31.45 0 28.93 0H4.573C2.052 0 0 2.035 0 4.536c0 2.502 2.052 4.537 4.573 4.537h7.961a4.485 4.485 0 0 0-.803 2.564c0 .951.297 1.834.803 2.564H9.942c-2.522 0-4.574 2.035-4.574 4.537 0 1.436.678 2.718 1.732 3.55a4.516 4.516 0 0 0-1.732 3.55c0 1.437.678 2.719 1.732 3.55a4.516 4.516 0 0 0-1.732 3.55c0 1.437.678 2.72 1.732 3.551a4.516 4.516 0 0 0-1.732 3.55c0 2.502 2.052 4.537 4.574 4.537h11.716A16.919 16.919 0 0 0 34 49.9c9.32 0 16.9-7.52 16.9-16.765 0-7.694-5.251-14.193-12.386-16.157zm2.147-7.907c1.425 0 2.585 1.15 2.585 2.564 0 1.414-1.16 2.564-2.585 2.564H16.304c-1.425 0-2.585-1.15-2.585-2.564 0-1.414 1.16-2.564 2.585-2.564h24.357zM4.573 7.101c-1.425 0-2.585-1.15-2.585-2.565 0-1.413 1.16-2.564 2.585-2.564H28.93c1.425 0 2.585 1.15 2.585 2.564 0 1.414-1.16 2.565-2.585 2.565H4.573zm5.369 9.073h24.356c.4 0 .784.092 1.128.257a16.916 16.916 0 0 0-13.386 4.87H9.943c-1.426 0-2.585-1.15-2.585-2.563 0-1.414 1.16-2.564 2.585-2.564zm0 7.1h10.4a16.664 16.664 0 0 0-2.555 5.128H9.942c-1.426 0-2.585-1.15-2.585-2.564 0-1.414 1.16-2.564 2.585-2.564zm0 7.1h7.388a16.673 16.673 0 0 0-.061 5.129H9.942c-1.426 0-2.585-1.15-2.585-2.564 0-1.414 1.16-2.564 2.585-2.564zm0 12.23c-1.426 0-2.585-1.15-2.585-2.565 0-1.413 1.16-2.564 2.585-2.564h7.733a16.638 16.638 0 0 0 2.385 5.129H9.942zM34 47.929c-8.223 0-14.912-6.636-14.912-14.793S25.778 18.343 34 18.343c8.223 0 14.912 6.636 14.912 14.793S42.222 47.93 34 47.93z"/>
        <path fill="#0AB775" d="M37.106 28.83H36.05c.291.426.48.926.565 1.5h.924a.613.613 0 0 1 .591.776 1.057 1.057 0 0 1-1.019.776h-.487c-.126.937-.503 1.655-1.13 2.152-.628.498-1.516.795-2.663.891l3.2 3.816a.573.573 0 0 1-.439.942h-.495a1.6 1.6 0 0 1-1.212-.556l-3.494-4.054a1.6 1.6 0 0 1-.388-1.034v-.064a.648.648 0 0 1 .647-.653h1.514c.639 0 1.145-.132 1.52-.396.373-.264.623-.612.748-1.044h-3.8a.61.61 0 0 1-.587-.776c.13-.459.548-.776 1.024-.776h3.329c-.28-.881-1.036-1.321-2.269-1.321h-1.402a.692.692 0 0 1-.67-.87c.137-.513.601-.87 1.132-.87h6.354a.614.614 0 0 1 .591.78c-.129.462-.549.78-1.028.78z"/>
    </g>
</svg>
