<svg xmlns="http://www.w3.org/2000/svg" width="64" height="51" viewBox="0 0 64 51">
    <g fill="none" fill-rule="nonzero">
        <path fill="#354052" d="M32 12.684c-7.076 0-11.472 3.6-11.472 9.432 0 .663.541 1.2 1.208 1.2h20.528c.667 0 1.208-.537 1.208-1.2 0-5.82-4.396-9.432-11.472-9.432zm-8.972 8.232c.797-5.388 6.992-5.832 8.972-5.832 1.98 0 8.175.444 8.972 5.832H23.028zM32 .084c-3.168 0-5.736 2.552-5.736 5.7.007 3.145 2.57 5.693 5.736 5.7 3.168 0 5.736-2.552 5.736-5.7S35.168.084 32 .084zm0 9c-1.834 0-3.32-1.478-3.32-3.3 0-1.822 1.486-3.3 3.32-3.3 1.834 0 3.32 1.478 3.32 3.3 0 1.822-1.486 3.3-3.32 3.3zM11.472 40.284C4.395 40.284 0 43.884 0 49.716c0 .663.54 1.2 1.208 1.2h20.528c.667 0 1.207-.537 1.207-1.2 0-5.82-4.395-9.432-11.471-9.432zM2.5 48.516c.797-5.388 6.98-5.832 8.972-5.832 1.992 0 8.175.444 8.972 5.832H2.5zM11.472 27.684c-3.168 0-5.736 2.552-5.736 5.7.006 3.145 2.57 5.693 5.736 5.7 3.168 0 5.736-2.552 5.736-5.7s-2.568-5.7-5.736-5.7zm0 9c-1.834 0-3.321-1.477-3.321-3.3 0-1.823 1.487-3.3 3.32-3.3 1.835 0 3.321 1.477 3.321 3.3 0 1.822-1.486 3.3-3.32 3.3zM52.528 40.284c-7.076 0-11.471 3.6-11.471 9.432 0 .663.54 1.2 1.207 1.2h20.528c.667 0 1.208-.537 1.208-1.2 0-5.82-4.395-9.432-11.472-9.432zm-8.972 8.232c.797-5.388 6.98-5.832 8.972-5.832 1.993 0 8.175.444 8.972 5.832H43.556zM52.528 27.684c-3.168 0-5.736 2.552-5.736 5.7.007 3.145 2.571 5.693 5.736 5.7 3.168 0 5.736-2.552 5.736-5.7s-2.568-5.7-5.736-5.7zm0 9c-1.834 0-3.32-1.477-3.32-3.3 0-1.823 1.486-3.3 3.32-3.3 1.834 0 3.321 1.477 3.321 3.3 0 1.822-1.487 3.3-3.32 3.3z"/>
        <path fill="#0AB775" d="M38.243 41.208l-5.035-5.028V29.1c0-.663-.541-1.2-1.208-1.2-.667 0-1.208.537-1.208 1.2v7.08l-5.035 5.004a1.2 1.2 0 0 0-.012 1.704c.47.474 1.238.48 1.715.012L32 38.376l4.54 4.524a1.213 1.213 0 0 0 1.703-.13 1.194 1.194 0 0 0 0-1.562z"/>
    </g>
</svg>
