<svg xmlns="http://www.w3.org/2000/svg" width="350" height="350" viewBox="0 0 350 350">
  <g fill="none" fill-rule="evenodd">
    <rect width="350" height="350"/>
    <g fill-rule="nonzero" transform="translate(18 63)">
      <path fill="#F5F8FA" d="M246.570438,187.951014 C211.368756,223.494932 154.617673,229.89527 108.345599,220.986486 C59.859447,211.652027 16.4000461,185.320946 4.73827189,142.996622 C-7.75288018,97.6621622 8.57504608,43.8521959 56.6645392,13.2415541 C74.6944931,1.74831081 97.0516359,3.26097973 109.398548,6.87922297 C119.495323,9.8285473 127.760253,16.2288851 132.073018,24.4459459 C145.105069,49.2871622 145.775783,69.5827703 167.411728,92.5236486 C185.585922,111.853885 197.896774,107.673142 223.744516,111.010135 C240.411406,113.161318 255.311359,120.428209 261.592995,133.730574 C269.749747,151.008446 260.62659,172.413851 246.584862,187.943412"/>
      <ellipse cx="198.351" cy="198.448" fill="#273452" rx="114.649" ry="22.819"/>
      <path fill="#D3D8DD" d="M243.245714,70.9206081 C251.698157,84.8158784 256.609516,102.534628 256.609516,120.26098 C257.175008,152.563267 241.148326,182.670172 214.696926,198.995825 C188.245527,215.321478 155.491938,215.321478 129.040539,198.995825 C102.58914,182.670172 86.5624571,152.563267 87.1279493,120.26098 C87.1279493,102.534628 92.0393088,84.8158784 100.491751,70.9206081"/>
      <path fill="#A1A6B1" d="M36.8604378,49.5760135 C36.8604378,31.8496622 41.7717972,14.1309122 50.2242396,0.235641892 L13.9119124,0.235641892 C5.45947005,14.1309122 0.548110599,31.8496622 0.548110599,49.5760135 C0.569437291,76.6206132 12.2071069,102.200863 32.2011947,119.151267 C52.1952825,136.10167 78.3956477,142.599401 103.463088,136.824324 C64.5728374,127.827879 36.8628368,91.5187731 36.8604378,49.5532095 L36.8604378,49.5760135 Z" opacity=".55" transform="translate(86.544 72.056)"/>
      <path fill="#EFEFEF" d="M254.287258,99.0228041 C245.942995,110.546453 226.355253,118.201014 208.851774,118.201014 C191.348295,118.201014 176.145438,140.761824 159.8103,137.318412 C145.876751,134.384291 138.419562,124.616554 123.461912,121.796453 C120.640455,121.274412 117.780275,121.020016 114.915714,121.036318 C93.8062442,121.036318 89.8035945,97.4721284 89.8035945,97.4721284 C91.9799535,88.072824 95.5896244,79.1082463 100.491751,70.9282095 C100.392807,71.2120377 100.308543,71.5013141 100.239332,71.7947635 C100.117721,72.2928543 100.040458,72.8018159 100.008548,73.3150338 C100.008548,73.4822635 100.008548,73.6570946 100.008548,73.8319257 C100.008548,76.5228041 101.241797,79.1072635 103.513571,81.5320946 C107.91288,86.2297297 116.242719,90.3192568 127.161659,93.3293919 L127.507834,93.4206081 C139.724931,96.75 155.136935,98.7415541 171.875945,98.7415541 C201.329677,98.7415541 226.687005,92.5996622 237.742972,83.8125 C237.973756,83.6300676 238.204539,83.4400338 238.420899,83.25 C239.057375,82.7173077 239.661935,82.143574 240.231106,81.5320946 C242.50288,79.1072635 243.728917,76.5152027 243.728917,73.8319257 C243.728917,73.5810811 243.728917,73.3302365 243.728917,73.0717905 C243.728917,72.9425676 243.728917,72.8209459 243.685645,72.6993243 C243.642373,72.5777027 243.685645,72.4484797 243.635161,72.3268581 C243.617416,72.2039481 243.593341,72.0821466 243.563041,71.9619932 C243.563041,71.8403716 243.512558,71.71875 243.476498,71.5971284 C243.41159,71.3538851 243.33947,71.1106419 243.260138,70.8369932 C248.433116,79.4818753 252.169586,88.9931916 254.308894,98.9619932 L254.287258,99.0228041 Z"/>
      <path fill="#FFF" d="M243.714493,73.8623311 C243.714493,76.5532095 242.481244,79.1376689 240.20947,81.5625 C239.640299,82.1739794 239.035739,82.7477131 238.399263,83.2804054 C238.182903,83.4704392 237.95212,83.6528716 237.721336,83.8429054 C226.629309,92.6300676 201.308041,98.7719595 171.854309,98.7719595 C155.108088,98.7719595 139.703295,96.7880068 127.486198,93.4510135 L127.140023,93.3521959 C116.221083,90.3116554 107.891244,86.2525338 103.491935,81.5548986 C101.220161,79.1300676 99.9941244,76.5380068 99.9941244,73.8547297 C99.9941244,73.6798986 99.9941244,73.5126689 99.9941244,73.3378378 C100.030639,72.8251777 100.107837,72.3166428 100.224908,71.8175676 C102.662558,61.5785473 122.993134,53.0802365 150.362604,50.1157095 L159.651636,50.2601351 L199.202143,50.8606419 C222.821382,54.2280405 240.115714,61.8369932 243.19523,70.9510135 C243.281353,71.1997278 243.353597,71.4535398 243.41159,71.7111486 C243.41159,71.8327703 243.469286,71.9543919 243.498134,72.0760135 C243.528378,72.1961805 243.552453,72.317979 243.570253,72.4408784 C243.570253,72.5625 243.613525,72.691723 243.620737,72.8133446 C243.627949,72.9349662 243.620737,73.0565878 243.664009,73.1858108 C243.67808,73.4389722 243.67808,73.6927846 243.664009,73.9459459 L243.714493,73.8623311 Z"/>
      <path fill="#A1A6B1" d="M70.2302765,0.828547297 L65.2972811,22.9560811 C53.3975115,25.9966216 39.9832258,35.8783784 37.7042396,43.9586149 C35.2419285,52.6905662 33.9837832,61.7503498 33.9684332,70.8597973 C33.9684332,71.3690878 33.9684332,71.8783784 33.9684332,72.3800676 C31.1469754,71.8580271 28.2867954,71.6036306 25.422235,71.6199324 C4.31276498,71.6199324 0.310115207,48.0557432 0.310115207,48.0557432 C2.48647423,38.6564389 6.09614512,29.6918611 10.9982719,21.5118243 C10.8993278,21.7956526 10.8150642,22.0849289 10.7458525,22.3783784 C13.1835023,12.1393581 33.5140783,3.6410473 60.8835484,0.67652027 L70.1725806,0.820945946 L70.2302765,0.828547297 Z" opacity=".55" transform="translate(89.429 49.409)"/>
      <path fill="#333" d="M207.777189,61.4189189 C207.777189,66.6258446 198.553065,71.0878378 185.420046,72.9425676 L184.201221,73.1097973 C182.547273,73.3226351 180.838034,73.4898649 179.073502,73.6114865 C176.729608,73.7787162 174.299171,73.8699324 171.811037,73.8699324 C171.032143,73.8699324 170.267673,73.8699324 169.503203,73.8699324 L168.414194,73.8699324 C164.952442,73.7559122 161.627719,73.4746622 158.526567,73.0489865 C145.256521,71.2170608 135.880945,66.7246622 135.880945,61.4797297 C135.880945,57.3978041 141.549562,53.7719595 150.304908,51.4991554 L150.434724,51.4991554 L168.709885,52.0464527 L172.424055,52.160473 L183.90553,52.5101351 L189.134217,52.6621622 L197.788594,52.9282095 L198.668456,53.2626689 C204.28659,55.4594595 207.697857,58.347973 207.697857,61.5177365 L207.777189,61.4189189 Z"/>
      <path fill="#47C998" d="M179.109562,73.6114865 C176.765668,73.7787162 174.33523,73.8699324 171.847097,73.8699324 C171.068203,73.8699324 170.303733,73.8699324 169.539263,73.8699324 L168.450253,73.8699324 C164.988502,73.7559122 161.663779,73.4746622 158.562627,73.0489865 C152.793041,65.2956081 150.730415,57.7930743 150.34818,51.4915541 C149.938809,45.5844264 151.034346,39.6692924 153.521452,34.3581081 C159.005403,36.8428241 163.886579,40.6000195 167.801175,45.3496622 C169.545491,47.4530236 171.107142,49.7171774 172.467327,52.1148649 C174.422839,55.4588822 175.939146,59.0669145 176.974816,62.8403716 L177.739286,66.7398649 L179.109562,73.6646959 L179.109562,73.6114865 Z"/>
      <path fill="#5EE5AE" d="M192.480576,39.7246622 C189.523339,27.0756892 182.983086,15.6751385 173.729424,7.03885135 C173.729424,7.03885135 164.865899,18.5396959 167.793963,45.2964527 L171.45765,70.9662162 L186.134032,60.9324324 L192.624816,43.0692568 L192.480576,39.7170608 L192.480576,39.7246622 Z"/>
      <path fill="#D3D8DD" d="M267.708756,13.4315878 L219.705806,21.9831081 L198.747788,53.1486486 L197.867926,54.4636824 L185.448894,72.972973 L184.230069,73.1402027 C182.576121,73.3530405 180.866882,73.5202703 179.10235,73.6418919 C177.775346,73.7381757 176.419493,73.8065878 175.034793,73.8471284 C173.981843,73.8775338 172.916874,73.8952703 171.839885,73.9003378 C171.060991,73.9003378 170.296521,73.9003378 169.532051,73.9003378 L171.45765,71.0346284 L176.960392,62.847973 L183.94159,52.4721284 L184.605092,51.4839527 L192.466152,39.7930743 L212.493825,9.99577703 L265.602857,0.456081081 L266.446659,5.65540541 L267.701544,13.4315878 L267.708756,13.4315878 Z"/>
      <path fill="#EFEFEF" d="M266.446659,5.65540541 L216.200783,14.5565878 L175.042005,73.8471284 C173.989055,73.8775338 172.924086,73.8952703 171.847097,73.9003378 C171.068203,73.9003378 170.303733,73.9003378 169.539263,73.9003378 L171.464862,71.0346284 L176.967604,62.847973 L183.948802,52.4721284 L184.612304,51.4839527 L192.473364,39.7930743 L212.501037,9.99577703 L265.602857,0.456081081 L266.446659,5.65540541 Z"/>
      <path fill="#47C998" d="M217.585484,201.032939 L212.07553,201.032939 C208.490769,201.032939 205.584747,197.970022 205.584747,194.191723 L205.584747,188.384291 C205.59014,182.704014 209.193791,177.726835 214.390576,176.222128 L234.692304,170.346284 L229.117442,191.744088 C227.689812,197.221444 222.967583,201.019654 217.578272,201.025338"/>
      <path fill="#47C998" d="M234.71394,170.353885 L214.412212,164.478041 C209.215427,162.973334 205.611776,157.996155 205.606382,152.315878 L205.606382,146.508446 C205.606382,142.730147 208.512405,139.66723 212.097166,139.66723 L217.60712,139.66723 C222.996431,139.672914 227.71866,143.471124 229.14629,148.94848 L234.721152,170.346284"/>
      <path fill="#47C998" d="M234.71394,170.353885 L240.296014,148.986486 C241.723644,143.509131 246.445873,139.710921 251.835184,139.705236 L257.345138,139.705236 C260.929899,139.705236 263.835922,142.768153 263.835922,146.546453 L263.835922,152.353885 C263.830529,158.034161 260.226877,163.01134 255.030092,164.516047 L247.897442,166.583615 L234.721152,170.384291"/>
      <path fill="#47C998" d="M257.359562,201.032939 L251.849608,201.032939 C246.460297,201.027255 241.738068,197.229045 240.310438,191.751689 L237.346313,180.349662 L234.735576,170.331081 L255.037304,176.206926 C260.234089,177.711633 263.837741,182.688812 263.843134,188.369088 L263.843134,194.17652 C263.843134,197.95482 260.937111,201.017736 257.35235,201.017736"/>
      <path fill="#5EE5AE" d="M198.120346,165.527027 L202.014816,161.422297 C205.833885,157.387618 211.743993,156.549792 216.438779,159.377534 L234.742788,170.353885 L216.438779,181.330236 C211.743993,184.157978 205.833885,183.320152 202.014816,179.285473 L198.120346,175.180743 C195.603716,172.512413 195.603716,168.202959 198.120346,165.534628 L198.120346,165.527027 Z"/>
      <path fill="#5EE5AE" d="M239.293548,131.777027 L243.188018,135.881757 C247.016026,139.907015 247.810935,146.136206 245.128041,151.084459 L234.71394,170.376689 L224.292627,151.061655 C221.609733,146.113401 222.404642,139.884211 226.23265,135.858953 L230.12712,131.754223 C232.658768,129.101722 236.747476,129.101722 239.279124,131.754223 L239.293548,131.777027 Z"/>
      <path fill="#5EE5AE" d="M271.314747,175.173142 L267.420276,179.277872 C263.601207,183.312551 257.691099,184.150377 252.996313,181.322635 L234.692304,170.346284 L252.996313,159.369932 C257.691099,156.542191 263.601207,157.380017 267.420276,161.414696 L271.314747,165.519426 C273.831376,168.187756 273.831376,172.49721 271.314747,175.165541 L271.314747,175.173142 Z"/>
      <path fill="#5EE5AE" d="M230.141544,208.923142 L226.247074,204.818412 C222.419066,200.793154 221.624157,194.563963 224.307051,189.615709 L234.721152,170.32348 L245.135253,189.615709 C247.818147,194.563963 247.023238,200.793154 243.19523,204.818412 L239.30076,208.923142 C236.769112,211.575643 232.680404,211.575643 230.148756,208.923142 L230.141544,208.923142 Z"/>
    </g>
  </g>
</svg>
