<svg xmlns="http://www.w3.org/2000/svg" xmlns:xlink="http://www.w3.org/1999/xlink" width="350" height="350" viewBox="0 0 350 350">
  <defs>
    <polygon id="short-time-image-1-a" points=".128 .3 244.374 .3 244.374 280 .128 280"/>
  </defs>
  <g fill="none" fill-rule="evenodd" transform="translate(40 35)">
    <g transform="translate(11.295)">
      <mask id="short-time-image-1-b" fill="#fff">
        <use xlink:href="#short-time-image-1-a"/>
      </mask>
      <path fill="#EFF3F6" d="M0.254811009,127.408979 C2.15741693,177.846313 24.2859266,229.772474 70.2974505,256.862634 C119.582557,285.879646 183.68579,290.148841 227.117857,254.984703 C243.423714,241.782864 245.70537,219.6236 243.816518,206.27983 C242.275049,195.388795 236.485344,185.004336 227.91562,177.761025 C202.014526,155.868887 179.072259,147.607922 156.867939,118.159002 C138.155356,93.3413471 145.118676,82.9768414 145.969219,56.6990023 C146.517801,39.7509563 140.935694,22.6088414 126.936442,11.5568874 C108.758687,-2.79423908 82.7913787,-1.94329655 62.6224124,5.8584046 C15.9014097,26.6871862 -1.56110927,79.2692552 0.254811009,127.408979 Z" mask="url(#short-time-image-1-b)"/>
    </g>
    <path fill="#FFF" d="M213.065134 100.226103C212.98685 100.198309 212.899921 100.179265 212.821637 100.160735 212.725582 100.058309 212.639134 99.9558824 212.551724 99.8529412 212.725582 99.9744118 212.899921 100.095882 213.065134 100.226103M232.061303 118.382353C231.767107 117.953607 231.449668 117.548094 231.103574 117.157788 231.115355 116.859145 231.092112 116.583734 231.034483 116.323529 231.386308 117.004876 231.726671 117.6858 232.061303 118.382353M235.141762 124.558824C234.9449 124.262412 234.726633 123.976808 234.486358 123.697069 234.376923 123.288886 234.25151 122.89151 234.114943 122.5 234.475204 123.177115 234.81406 123.865036 235.141762 124.558824M240.573935 147.475158C240.686703 145.996179 240.573935 144.534076 240.275862 143.088235 240.882207 145.445704 241.231281 147.853188 241.302682 150.294118 241.220514 149.35426 240.963809 148.414709 240.573935 147.475158"/>
    <path fill="#FFF" d="M212.551724,99.8529412 C212.608335,99.917119 212.664946,99.9816193 212.7275,100.045797 C212.778482,100.057407 212.835093,100.06934 212.886074,100.086755 C212.778482,100.004839 212.664946,99.9290515 212.551724,99.8529412 M229.774337,117.190942 C229.831261,117.389603 229.853781,117.600197 229.842521,117.828205 C230.182501,118.125874 230.494331,118.435798 230.783329,118.762814 C230.454609,118.231332 230.12026,117.711137 229.774337,117.190942 M233.15224,122.941143 C233.293924,123.350075 233.424349,123.765135 233.537571,124.191804 C233.786848,124.48399 234.013605,124.781982 234.217531,125.091583 C233.877551,124.366922 233.526312,123.648389 233.15224,122.941143 M240.275862,151.323529 C240.236453,148.758353 240.043788,146.228006 239.709125,143.750228 C239.873641,145.269532 239.935882,146.806574 239.873641,148.361031 C240.088826,149.34853 240.230511,150.33603 240.275862,151.323529"/>
    <path fill="#FFF" d="M178.736354,81.32355 C139.668139,81.2942662 108.90688,112.51303 108.842993,151.236165 C108.784884,190.227359 140.017111,221.055135 178.39316,221.323516 C216.931977,221.346686 248.373523,190.577155 248.490061,151.580169 C248.612057,112.629521 217.734581,81.352512 178.736354,81.32355"/>
    <path fill="#FFF" d="M146.835249 204.852941C147.507126 205.568947 148.19175 206.254815 148.888889 206.911765 148.162316 206.351341 147.490439 205.627596 146.835249 204.852941M212.821637 100.160735C212.726063 100.058309 212.639134 99.9558824 212.551724 99.8529412 212.726063 99.9744118 212.899921 100.095882 213.065134 100.226103 212.98685 100.198309 212.899921 100.179265 212.821637 100.160735"/>
    <path fill="#B8BEC5" d="M138.360861,36.9702121 C145.700172,39.3653782 151.644973,43.7126664 156.198763,49.9432084 C157.954943,52.3463086 157.658164,54.2467 155.160514,55.999516 C149.593605,59.905982 144.001249,63.7765856 138.424161,67.6687701 C137.81279,68.0956282 137.233546,68.5688219 136.640307,69.0201173 C133.531922,71.1496474 130.389502,73.2322073 127.327559,75.4271151 C125.640087,76.6372341 123.63675,77.4550879 122.380927,79.227898 C120.03946,80.0260751 118.347217,81.8449033 116.290123,83.0905674 C115.600183,83.5082219 114.936964,83.9699903 114.261657,84.4117647 C113.743169,83.785283 113.136887,83.2114841 112.71987,82.5237505 C108.264053,75.1713175 106.169424,67.3374393 107.303736,58.654288 C108.380474,50.4138631 111.678122,43.3632458 117.450518,37.4154775 C117.748251,37.108584 118.537435,36.9070562 118.010676,36.1821907 C119.423636,35.3690974 119.237548,35.5 122.576553,35 C125.446688,35.0050779 128.316504,35.0098384 131.186638,35.0145989 C133.580272,35.6601226 136.007624,36.2021848 138.360861,36.9702121 Z"/>
    <path fill="#DCE0E4" d="M203.62686,56.4425272 C201.835522,55.0889173 201.859347,53.1830757 203.356099,51.1301863 C208.817683,43.6394197 216.151414,38.9756301 225.154785,36.8347689 C226.258434,36.5721378 227.468006,36.7037744 228.459616,36 C231.502701,36.004816 234.545786,36.0102741 237.589192,36.0150901 C239.433008,36.4440328 241.305155,36.7795457 243.116776,37.3179717 C251.862264,39.9176347 258.957751,44.7782371 263.8659,52.5801157 C263.344339,52.4282519 262.796378,52.3357852 262.306368,52.1152136 C255.753047,49.1623792 248.87874,48.2210167 241.827361,49.3598341 C233.285346,50.7391292 225.997332,54.6856597 220.137816,61.0655415 C218.881562,62.4329572 217.375795,63.7756509 217.183268,65.8529412 C212.441568,63.0362383 208.014736,59.758165 203.62686,56.4425272 Z"/>
    <path fill="#B8BEC5" d="M178.906788 222.010087C217.548985 222.033634 249.070603 191.188923 249.190991 152.101625 249.311056 113.059807 218.35114 81.7099746 179.252823 81.6809446 140.078217 81.651592 109.237401 112.942719 109.174954 151.755523 109.112185 190.840563 140.429401 221.737528 178.906788 222.010087M140.507299 76.1874986C145.41004 73.9989583 150.328875 71.8491246 155.482369 70.3053731 162.052833 68.3371383 168.807098 67.4504327 175.618659 66.9117647 178.09047 66.9159579 180.56228 66.9201512 183.034091 66.9243444 192.71178 67.6007437 202.12584 69.4635028 211.109531 73.2341788 213.450009 74.2163608 215.766345 75.2556353 218.09427 76.2684601 223.247121 79.2920971 228.245141 82.5499096 233.017516 86.1499536 238.660608 91.2705252 244.034277 96.6336586 248.393663 102.939945 256.852991 115.177063 262.029984 128.629248 263.470773 143.485195 265.119827 160.488073 261.930841 176.552314 253.981391 191.629212 247.403845 204.103731 238.138821 214.221335 226.552954 222.219103 226.213358 222.453601 225.894684 222.718742 225.566354 222.969045 224.674391 223.470619 223.727384 223.895748 222.899799 224.48796 219.536025 226.894225 215.489196 228.018009 212.080036 230.329766 211.144617 230.291382 210.342783 230.742315 209.509404 231.056161 189.189314 238.701699 168.885318 238.667508 148.5913 230.952944 147.758565 230.636516 146.958341 230.183003 146.021957 230.218484 141.597548 227.635136 136.876999 225.592713 132.561389 222.811638 123.643687 216.579539 115.789195 209.250107 109.621096 200.226934 101.393209 188.190123 96.3568832 174.951793 94.9096557 160.389693 93.4994459 146.199501 95.4501127 132.480563 100.932581 119.333193 105.736501 107.812149 112.706111 97.7532494 121.957616 89.3300302 123.184669 88.2126973 124.394662 87.0766561 125.611736 85.9499691 130.374776 82.387019 135.329985 79.117272 140.507299 76.1874986M219.565435 60.5162589C225.382715 54.1577647 232.618197 50.2244643 241.09864 48.8497931 248.099193 47.7147934 254.923949 48.6530001 261.430033 51.5959356 261.916511 51.8157678 263.482198 52.3486454 264 52.5 272.114466 64.0099914 270.994344 81.4857545 262.755541 92.6856769 261.067571 94.9803154 259.136362 95.3377427 256.738173 93.668042 250.783452 89.5209892 244.861014 85.3275381 238.921635 81.1584061 238.317852 80.7347411 237.802288 80.1226029 236.96038 80.1603615 232.526463 76.204982 227.470863 73.1138917 222.58275 69.7901697 220.599121 68.289103 218.615812 66.7883563 216.632184 65.2876095 216.823323 63.217283 218.318236 61.8790906 219.565435 60.5162589z"/>
    <path fill="#DCE0E4" d="M118.54724,36 C119.074121,36.72612 118.284754,36.928085 117.986951,37.2356443 C112.213214,43.1966344 108.914799,50.2625481 107.838129,58.5208507 C106.703553,67.2228403 108.79835,75.0733961 113.255204,82.4417803 C113.672318,83.1313239 114.27874,83.7060496 114.797349,84.3338905 C110.745837,87.2046565 106.733779,90.1339447 102.625316,92.920426 C100.687056,94.2352661 98.6358467,93.7025237 97.2795099,91.8320412 C88.3381231,79.4991338 89.0390402,60.4094623 98.7841115,48.5628613 C103.641853,42.6578489 109.625579,38.5043664 116.954188,36.305651 C117.469615,36.1510762 118.015586,36.0995513 118.54724,36"/>
    <path fill="#717588" d="M141.701149,235.870952 C139.472768,238.931724 137.275232,242.013335 135.00464,245.044871 C133.613971,246.902297 131.741455,247.479866 129.941021,246.75705 C127.92986,245.949635 126.91389,244.085989 127.482106,241.803706 C128.416903,238.048731 129.488396,234.32517 130.502419,230.588235 C131.020632,230.738148 131.614175,230.779825 132.045045,231.05508 C135.083541,232.997726 138.454524,234.318328 141.701149,235.870952"/>
    <path fill="#47C998" d="M221.662772 69C226.710396 72.3254286 231.930642 75.4184262 236.509579 79.3755165 235.107809 81.4068869 233.70505 83.4388977 232.30196 85.4705882 227.408475 81.8967209 222.283287 78.6634964 217 75.6623827 218.553927 73.4418019 220.108185 71.220901 221.662772 69M141.509579 75.7416938C136.192151 78.6613907 131.102508 81.9198921 126.210898 85.4705882 124.808147 83.4265111 123.404404 81.3833982 122 79.339321 123.304562 77.5434004 125.386703 76.7150332 127.140555 75.4893584 130.322945 73.2662356 133.588978 71.1569048 136.819636 69 138.382399 71.2475527 139.946154 73.4944625 141.509579 75.7416938"/>
    <path fill="#5B5E6F" d="M141.533831,235.735294 C138.307798,234.118491 134.958195,232.743301 131.938972,230.720353 C131.510834,230.43372 130.921057,230.39032 130.40613,230.234211 C130.8162,227.551846 131.58375,224.956604 132.316455,222.352941 C136.642353,225.145425 141.373481,227.19655 145.808429,229.790497 C144.438196,231.811177 143.162172,233.900844 141.533831,235.735294"/>
    <path fill="#273452" d="M174.844809,59.664987 C173.865585,59.6595474 172.886035,59.6640804 171.906811,59.6471571 C169.015194,59.5966896 167.634874,58.4682726 167.417995,55.8330834 C167.3285,54.7466722 167.365735,53.6249036 167.554851,52.5508827 C167.942556,50.3472359 169.110569,49.4237109 171.54687,49.4049745 C176.303192,49.3687104 181.060821,49.3759632 185.816817,49.4273373 C188.251485,49.4536287 189.403167,50.3841044 189.79969,52.5877512 C189.969862,53.53515 189.983581,54.5206262 189.941773,55.4840417 C189.812756,58.4540692 188.442561,59.6417175 185.206681,59.6692178 C184.297682,59.677075 183.388029,59.6746574 182.47903,59.6764706 C179.934616,59.672542 177.389549,59.6686134 174.844809,59.664987"/>
    <path fill="#0F2337" d="M174.559387,59.6764706 C176.9553,59.6802346 179.351521,59.6843123 181.747126,59.68839 C181.7256,62.0866913 181.704688,64.4843653 181.683469,66.8823529 C179.321999,66.8782753 176.960528,66.8741976 174.599057,66.8701199 C174.585834,64.4721322 174.57261,62.0744583 174.559387,59.6764706"/>
    <path fill="#FFF" d="M179.752968,92.6470762 C146.42999,92.6223582 120.192594,119.020495 120.138,151.764085 C120.088574,184.73463 146.727833,210.802445 179.460293,211.029401 C212.331338,211.048662 239.149238,185.030604 239.248735,152.055243 C239.352754,119.119046 213.016185,92.6717941 179.752968,92.6470762"/>
    <path fill="#47C998" d="M172.849875 176.712981C170.973273 176.443722 169.196349 175.969418 167.425287 175.367637 167.742235 174.769988 168.04094 174.159624 168.376455 173.573738 170.874248 169.273212 173.378229 164.972687 175.882537 160.678202 176.229127 160.67248 176.576042 160.654995 176.923284 160.661671 180.900272 160.771028 183.753124 158.92563 185.450242 155.560996 187.091332 152.304766 186.514442 149.15376 184.43816 146.157889 183.486341 144.796013 181.951117 144.237149 180.825352 143.153116 180.865744 137.639174 180.900272 132.131589 180.940664 126.617647 188.626882 127.682288 194.772337 131.386436 198.843791 137.729457 205.028336 147.37671 204.955695 157.291634 198.075365 166.548826 191.934144 174.809726 183.35409 178.217593 172.849875 176.712981zM163.352447 171.911765C161.776434 169.603727 159.487456 167.96201 157.959268 165.563067 150.099026 153.259595 154.334344 136.087107 167.097247 129.339064 169.708727 127.960494 172.475008 126.806475 175.503067 126.617647 175.523833 132.150111 175.538621 137.676514 175.559387 143.208978 169.717537 147.784863 168.838129 151.180575 171.879717 157.342996 169.035091 162.19702 166.196758 167.051362 163.352447 171.911765z"/>
    <path fill="#0F2337" d="M174.61255 143.076476C174.594829 137.414197 174.577108 131.751918 174.559387 126.089639 174.591774 121.20084 174.606134 116.312041 174.664186 111.423568 174.692295 109.040414 175.706064 107.522198 177.403624 107.153096 179.850663 106.621329 181.653938 108.378317 181.68663 111.436307 181.739182 116.324453 181.730016 121.213579 181.747126 126.102378 181.711379 131.764984 181.675631 137.427263 181.640189 143.088235 179.298865 142.384003 176.956013 142.375837 174.61255 143.076476M162.875321 172.040214C165.737049 167.19337 168.599093 162.346526 171.460504 157.5 173.207701 159.216418 175.091759 160.685815 177.639847 160.955756 175.20676 165.259853 172.770823 169.562358 170.343756 173.869639 170.013325 174.455678 169.72598 175.066229 169.418676 175.66532 168.003811 178.061048 166.598767 180.462506 165.171546 182.850593 163.814023 185.122492 161.767126 185.882975 159.936292 184.823901 157.971131 183.687475 157.578289 181.568691 158.912368 179.144314 160.219835 176.768641 161.55328 174.407611 162.875321 172.040214"/>
    <path fill="#FFF" d="M177.480693,160.588235 C174.884087,160.311075 172.964155,158.804159 171.183691,157.04424 C168.060533,150.738762 168.966746,147.264301 174.957372,142.578366 C177.433881,141.879426 179.909098,141.887587 182.383347,142.591424 C183.499729,143.705615 185.021599,144.277238 185.959773,145.680015 C188.018526,148.757506 188.593505,151.993981 186.966389,155.334921 C185.283099,158.791427 182.458569,160.685519 178.513459,160.573218 C178.169634,160.563425 177.825163,160.582359 177.480693,160.588235"/>
    <path fill="#0F2337" d="M147.854322,160.114073 L147.415198,174.142072 L138.665211,183.235294 L11.2446268,179.342512 L3.08045977,169.732264 L3.51958373,155.704583 C3.76214745,147.958104 9.6390094,141.850408 16.6444038,142.064273 L135.60775,145.698702 C142.613145,145.912884 148.096886,152.367594 147.854322,160.114073"/>
    <path fill="#47C998" d="M146.835249,174.300926 L143.772763,273.352887 C143.692332,275.956414 141.739865,278.011154 139.415042,277.93935 L4.06868128,273.751975 C1.74385821,273.679851 -0.0778673833,271.508429 0.00256412482,268.904903 L3.06504987,169.852941 L146.835249,174.300926 Z"/>
    <path fill="#B8BEC5" d="M28.8078786 160.585569C25.855603 160.499641 23.5348355 158.358677 23.6190812 155.798459L24.2275221 137.272601C24.3117677 134.712698 26.7685987 132.710855 29.7208743 132.796784 32.6728157 132.882712 34.9935832 135.023991 34.9096718 137.583894L34.3008966 156.109751C34.2169852 158.669655 31.7601543 160.671497 28.8078786 160.585569M59.6124763 161.614981C56.6602007 161.529053 54.3394332 159.388089 54.4236789 156.828185L55.0321198 138.302328C55.1163654 135.74211 57.5731964 133.740267 60.525472 133.826195 63.4774134 133.912124 65.7981809 136.053403 65.7142695 138.613306L65.1054943 157.139163C65.0215829 159.699067 62.564752 161.700909 59.6124763 161.614981M123.16147 135.885019C120.209529 135.79909 117.752363 137.800954 117.668118 140.360884L117.059677 158.887254C116.975765 161.44687 119.296533 163.587857 122.248809 163.673786 125.20075 163.76003 127.657581 161.757851 127.741827 159.198235L128.350268 140.671866C128.434513 138.111935 126.113746 135.970948 123.16147 135.885019M96.5188482 139.644641L95.9101912 158.16599C95.8259156 160.724631 93.3692154 162.730316 90.4168946 162.644398 87.4649082 162.558481 85.1443198 160.413692 85.2282609 157.855051L85.8369179 139.333701C85.9211935 136.77034 88.3782281 134.769691 91.3302145 134.855608 94.2825353 134.941525 96.6031237 137.081279 96.5188482 139.644641"/>
    <path fill="#FFF" d="M75.8791997,194.490024 C72.4982798,194.337408 69.7142774,195.26607 67.52687,197.275039 C65.3388176,199.284007 64.1643317,202.096564 64.0027673,205.711736 C63.8482976,209.170727 64.7541545,212.015038 66.7219505,214.242077 C68.688779,216.470088 71.3937729,217.661212 74.8366097,217.816421 C78.2791239,217.971954 81.0792505,217.029359 83.2379569,214.98734 C85.3956958,212.946292 86.5524451,210.194977 86.7065924,206.735986 C86.8613846,203.276671 85.9171521,200.408058 83.8745399,198.129498 C81.8322501,195.852235 79.1665993,194.638429 75.8791997,194.490024 M86.8765413,238.408352 C87.0461678,234.606541 85.9822938,231.451164 83.6862094,228.942545 C81.3898024,226.434898 78.3029877,225.093101 74.4257653,224.918126 C70.5485429,224.743152 67.3865895,225.787815 64.9389377,228.04985 C62.4909634,230.31318 61.1813568,233.376857 61.008828,237.241206 C60.8362992,241.105231 61.8398687,244.195155 64.0211489,246.510654 C66.2014617,248.826476 69.3231046,250.075925 73.3867226,250.259001 C77.4180923,250.441104 80.6316431,249.46967 83.027375,247.345024 C85.4214945,245.220701 86.70498,242.241271 86.8765413,238.408352 M95.3198115,206.983867 C95.1679216,210.380968 94.1408108,213.363963 92.239124,215.932203 C90.3367922,218.500767 87.8330282,220.464372 84.727187,221.823018 C88.1945325,223.50958 90.8940442,225.864286 92.825722,228.886812 C94.7573998,231.909338 95.6403603,235.275009 95.4746037,238.983177 C95.2114569,244.873344 93.0246945,249.474855 88.9143163,252.786413 C84.8036156,256.098944 79.5219764,257.608911 73.0713335,257.31761 C66.5581287,257.024041 61.4174149,255.035486 57.6508044,251.352269 C53.883549,247.669051 52.1314947,242.898722 52.3933515,237.039337 C52.5578182,233.3626 53.7061829,230.088305 55.8390906,227.218072 C57.9723208,224.347838 60.8404914,222.2287 64.4445701,220.860981 C61.5028731,219.229504 59.2225904,217.050097 57.6043668,214.322436 C55.9851758,211.595746 55.2515252,208.54827 55.4018026,205.182599 C55.6581772,199.448937 57.6914374,194.98125 61.5019057,191.780509 C65.311729,188.579768 70.2102575,187.114516 76.1965237,187.384431 C82.1518316,187.65305 86.8916981,189.553469 90.4167682,193.085042 C93.9418383,196.616615 95.5761861,201.249881 95.3198115,206.983867"/>
  </g>
</svg>
