<svg xmlns="http://www.w3.org/2000/svg" width="350" height="350" viewBox="0 0 350 350">
  <g fill="none" fill-rule="evenodd">
    <rect width="350" height="350"/>
    <g fill-rule="nonzero" transform="translate(47 3)">
      <path fill="#F5F8FA" d="M229.433195,308.814558 C219.089717,321.586001 200.820812,346.131237 181.577469,344.105474 C168.534438,342.711811 161.330816,327.137809 157.252614,316.285509 C150.684181,298.769517 148.179515,280.552885 139.496191,263.653761 C130.812867,246.754636 117.560512,231.279638 100.114466,223.686836 C85.8299288,217.464851 69.8780204,216.832752 54.4819025,214.586136 C39.0857846,212.339519 22.9534247,207.732052 12.6965642,195.981106 C2.30256053,184.039768 2.14543661e-12,167.04164 0.101052813,151.140166 C0.368120963,113.138078 12.1335557,75.2806882 33.4412631,43.9042152 C44.2178239,28.0332031 57.8888259,13.4416201 75.3781807,5.74981483 C92.8675354,-1.94199044 114.702161,-1.52312976 129.636323,10.4334388 C143.964169,21.856912 149.370494,40.8960339 156.256522,58.0007811 C163.568414,76.1184095 173.579861,93.4516261 187.770563,106.740933 C200.496,118.659424 216.346855,127.143256 227.469883,140.562029 C242.505098,158.664427 246.95864,183.141122 250.914135,206.42216 C254.082863,225.164272 257.294899,244.500404 254.523164,263.493832 C251.888573,281.459147 242.201939,296.309663 229.425976,308.791711"/>
      <polygon fill="#3FB283" points="212.175 178.998 146.44 115.309 80.712 178.998 146.44 245.148"/>
      <rect width="83.159" height="47.575" x="37.599" y="103.535" fill="#A1A6B1" transform="rotate(-180 79.178 127.322)"/>
      <path fill="#FFF" d="M95.7114503,235.026537 L95.7114503,128.559767 C95.6031794,107.190257 83.5129321,103.534745 69.9357649,103.534731 L164.492326,103.534745 C181.726808,103.517912 195.71216,118.242931 195.732081,136.426732 L195.732081,235.026537 L95.7114503,235.026537 Z"/>
      <rect width="81.564" height="1" x="105.485" y="171.253" fill="#5EE5AE"/>
      <rect width="81.564" height="1" x="105.413" y="180.141" fill="#5EE5AE"/>
      <rect width="81.564" height="1" x="105.449" y="189.889" fill="#5EE5AE"/>
      <rect width="81.564" height="1" x="105.376" y="198.776" fill="#5EE5AE"/>
      <rect width="81.564" height="1" x="105.434" y="207.29" fill="#5EE5AE"/>
      <rect width="81.564" height="1" x="105.355" y="216.185" fill="#A3C1E8"/>
      <rect width="81.564" height="1" x="105.391" y="225.933" fill="#A3C1E8"/>
      <rect width="81.564" height="1" x="105.319" y="234.821" fill="#A3C1E8"/>
      <rect width="81.564" height="1" x="105.376" y="243.335" fill="#A3C1E8"/>
      <rect width="81.564" height="1" x="105.297" y="252.223" fill="#A3C1E8"/>
      <rect width="81.564" height="1" x="105.333" y="261.971" fill="#A3C1E8"/>
      <rect width="81.564" height="1" x="105.261" y="270.858" fill="#A3C1E8"/>
      <polygon fill="#47C998" points="80.712 272.549 212.175 272.549 212.175 178.998 172.786 215.188 116.738 215.256 80.712 178.998"/>
      <polygon fill="#5EE5AE" points="212.254 272.343 172.706 215.112 116.658 215.348 80.792 272.754"/>
      <path fill="#273452" d="M146.042969,112.871531 C133.689774,112.892553 123.689815,123.471734 123.703093,136.505386 C123.71637,149.539039 133.737861,160.095515 146.09107,160.088519 C158.44428,160.081523 168.455024,149.513702 168.45504,136.480042 C168.43513,123.435264 158.406734,112.871514 146.042969,112.871531 Z"/>
      <path fill="#FFF" d="M143.415596 145.908215C142.724906 145.907143 142.062875 145.616787 141.574991 145.100956L136.421298 139.663383C135.435497 138.628788 135.375613 136.966104 136.284155 135.855559 136.764126 135.299152 137.438774 134.973881 138.151631 134.955186 138.864489 134.936491 139.55362 135.225995 140.059199 135.756555L143.430032 139.305447 154.55306 127.630658C155.52518 126.605958 157.094299 126.585686 158.089908 127.584964 158.584382 128.077 158.869422 128.758979 158.880296 129.476021 158.891169 130.193063 158.626954 130.884314 158.147653 131.392788L145.277855 145.100956C144.789972 145.616787 144.127941 145.907143 143.43725 145.908215L143.415596 145.908215zM24.4331266 134.796983C24.6163888 143.821274 31.6025443 151.036006 40.1576662 151.036006 48.7127881 151.036006 55.6989437 143.821274 55.8822058 134.796983L55.8822058 120.091166C55.8860316 115.694769 57.5454806 111.480152 60.4952891 108.375002 63.4450975 105.269851 67.4434826 103.528682 71.6103543 103.534745L120.758112 103.534745 120.758112 61.5039795 25.3281658 61.5039795 24.4475628 135.375773 24.4331266 134.796983z"/>
      <path fill="#FFF" d="M71.6103543 103.534745L120.758112 103.534745 120.758112 61.5039795 25.3281658 61.5039795 24.4475628 135.253922C24.6527361 142.091761 28.814072 148.095955 34.9277218 150.375245 41.0413715 152.654534 47.8541793 150.741719 52.0855072 145.557895L31.8172001 145.557895 31.8172001 144.697327 52.7495685 144.697327C54.342079 142.467482 55.3704535 139.84666 55.7378446 137.081678L31.7594556 137.081678 31.7594556 136.236341 55.8244613 136.236341C55.8605516 135.764171 55.8894238 135.292001 55.8894238 134.804599L55.8894238 128.194216 31.8316362 128.194216 31.8316362 127.348879 55.8894238 127.348879 55.8894238 120.129244C55.8892727 119.569712 55.9157723 119.010526 55.9688225 118.453801L31.7955459 118.453801 31.7955459 117.608464 56.0698753 117.608464C56.5026191 114.647157 57.6930482 111.866576 59.512889 109.566339L31.8749445 109.566339 31.8749445 108.675308 60.2274767 108.675308C63.1935637 105.388065 67.3086366 103.529678 71.6103543 103.534745zM113.475091 92.1112719L31.9110348 92.1112719 31.9110348 91.2659349 113.475091 91.2659349 113.475091 92.1112719zM31.9110348 72.6228267L113.475091 72.6228267 113.475091 73.4681637 31.9110348 73.4681637 31.9110348 72.6228267zM31.8532904 81.4874419L113.417347 81.4874419 113.417347 82.3327789 31.8532904 82.3327789 31.8532904 81.4874419zM31.8172001 100.975887L31.8172001 100.13055 113.381257 100.13055 113.381257 100.975887 31.8172001 100.975887zM24.4475628 135.360541L24.4475628 135.253922C24.4475628 135.093994 24.4475628 134.934065 24.4475628 134.766521L24.4475628 135.360541z"/>
      <rect width="81.564" height="1" x="31.925" y="72.638" fill="#5EE5AE"/>
      <rect width="81.564" height="1" x="31.853" y="81.526" fill="#5EE5AE"/>
      <rect width="81.564" height="1" x="31.889" y="91.274" fill="#5EE5AE"/>
      <rect width="81.564" height="1" x="31.817" y="100.161" fill="#5EE5AE"/>
      <path fill="#5EE5AE" d="M31.8749445 109.520645L59.5056709 109.520645C59.7366488 109.23125 59.9748447 108.949471 60.2274767 108.675308L31.8749445 108.675308 31.8749445 109.520645zM31.7955459 118.415723L55.9688225 118.415723C55.9976947 118.131405 56.031379 117.849626 56.0698753 117.570386L31.7955459 117.570386 31.7955459 118.415723z"/>
      <rect width="24.051" height="1" x="31.832" y="127.311" fill="#5EE5AE"/>
      <path fill="#5EE5AE" d="M31.7594556 137.081678L55.7378446 137.081678C55.7763409 136.802438 55.8052131 136.520659 55.8244613 136.236341L31.7594556 136.236341 31.7594556 137.081678zM31.8172001 145.565511L52.0855072 145.565511C52.309267 145.291347 52.5330268 145.009568 52.7351324 144.720174L31.802764 144.720174 31.8172001 145.565511z"/>
      <path fill="#0F2337" d="M222.46055,336.284203 L213.416324,323.573685 C212.499025,322.289554 211.05197,321.549772 209.528301,321.585999 C208.004633,321.622227 206.590632,322.430035 205.729092,323.756461 L197.615994,336.284203 C196.198476,337.555402 194.211792,337.846279 192.519765,337.030361 C190.827738,336.214443 189.736076,334.439146 189.719439,332.476379 L189.719439,266.220234 L230.364324,266.220234 L230.364324,332.476379 C230.350035,334.442127 229.257288,336.220996 227.562442,337.037527 C225.867595,337.854059 223.877834,337.560259 222.46055,336.284203 Z"/>
      <path fill="#D3D8DD" d="M208.443082,214.502363 C188.210417,214.548606 171.840016,231.883191 171.869219,253.230355 C171.898422,274.577519 188.316182,291.862172 208.548889,291.846792 C228.781596,291.831411 245.175732,274.521814 245.175779,253.174628 C245.131996,231.802982 228.699024,214.502314 208.443082,214.502363 Z"/>
      <path fill="#FFF" d="M208.19045,226.695017 C194.086072,226.728647 182.67506,238.813631 182.696297,253.694939 C182.717535,268.576246 194.162989,280.624919 208.267399,280.613734 C222.371809,280.602549 233.800084,268.535738 233.80012,253.654414 C233.768279,238.7553 222.31176,226.694979 208.19045,226.695017 Z"/>
      <path fill="#A1A6B1" d="M215.73332,254.286513 L205.678565,265.024577 C204.981176,265.758172 204.035968,266.169136 203.051192,266.166925 C202.066259,266.169976 201.120759,265.758885 200.423819,265.024577 L193.068618,257.279463 C191.635923,255.801423 191.550292,253.398818 192.87373,251.811427 C193.55724,251.018069 194.518779,250.554521 195.534651,250.528625 C196.550522,250.502728 197.532157,250.916741 198.251184,251.674345 L203.051192,256.731136 L218.887612,240.106175 C220.275186,238.637796 222.521234,238.610713 223.940252,240.045249 C224.636309,240.749274 225.036407,241.717901 225.051323,242.735124 C225.066239,243.752347 224.694732,244.733569 224.019651,245.459976 L215.73332,254.286513"/>
    </g>
  </g>
</svg>
