<?xml version="1.0" encoding="UTF-8"?>
<svg width="512px" height="512px" viewBox="0 0 512 512" version="1.1" xmlns="http://www.w3.org/2000/svg" xmlns:xlink="http://www.w3.org/1999/xlink">
    <!-- Generator: Sketch 52.2 (67145) - http://www.bohemiancoding.com/sketch -->
    <title>icon/menu/line/support 2 512</title>
    <desc>Created with Sketch.</desc>
    <defs>
        <path d="M256,3.55555556 C114.52,3.55555556 0,118.052556 0,259.555556 L0,309.269556 C4.9487661e-05,317.975194 4.71416686,325.998263 12.319,330.235556 L32.021,341.212556 C32.908,402.303556 82.698,451.555556 144,451.555556 L168,451.555556 C181.255,451.555556 192,440.810556 192,427.555556 L192,251.555556 C192,238.300556 181.255,227.555556 168,227.555556 L144,227.555556 C103.256,227.555556 67.598,249.313556 48,281.842556 L48,259.555556 C48,144.864556 141.309,51.5555556 256,51.5555556 C370.691,51.5555556 464,144.864556 464,259.555556 L464,281.842556 C444.402,249.313556 408.744,227.555556 368,227.555556 L344,227.555556 C330.745,227.555556 320,238.300556 320,251.555556 L320,427.555556 C320,440.810556 330.745,451.555556 344,451.555556 L368,451.555556 C429.302,451.555556 479.092,402.303556 479.979,341.211556 L499.681,330.234556 C507.285833,325.997263 511.999951,317.974194 512,309.268556 L512,259.555556 C512,118.075556 397.503,3.55555556 256,3.55555556 Z M144,275.555556 L144,403.555556 C108.71,403.555556 80,374.845556 80,339.555556 C80,304.265556 108.71,275.555556 144,275.555556 Z M368,403.555556 L368,275.555556 C403.29,275.555556 432,304.265556 432,339.555556 C432,374.845556 403.29,403.555556 368,403.555556 Z" id="path-1"></path>
    </defs>
    <g id="icon/menu/line/support-2-512" stroke="none" stroke-width="1" fill="none" fill-rule="evenodd">
        <g id="regular/headphones" transform="translate(0.000000, 28.000000)">
            <mask id="mask-2" fill="white">
                <use xlink:href="#path-1"></use>
            </mask>
            <use id="headphones" fill="#354052" fill-rule="nonzero" xlink:href="#path-1"></use>
        </g>
    </g>
</svg>