<svg xmlns="http://www.w3.org/2000/svg" width="350" height="350" viewBox="0 0 350 350">
  <g fill="none" fill-rule="evenodd">
    <rect width="350" height="350"/>
    <g fill-rule="nonzero" transform="translate(45 32)">
      <path fill="#F5F8FA" d="M42.9549439,81.2700782 C61.1676531,25.236078 115.805781,-19.967765 171.680926,9.05786052 C178.400312,12.4404035 184.681092,16.7198389 190.369411,21.7913374 C226.014557,54.4091438 242.895093,114.12915 254.643591,160.398584 C262.420944,191.032649 260.771587,240.210677 241.588295,264.61204 C226.750424,283.484393 201.039484,290.226434 178.240293,285.588768 C155.441102,280.951101 142.671271,228.154085 126.285542,211.312386 C96.0388696,180.202492 51.0494813,286.057896 38.6856463,226.686384 C29.2399048,181.361908 28.637255,125.33461 42.9549439,81.2700782 Z"/>
      <rect width="20.775" height="79.267" x="110.802" y="166.733" fill="#273452" rx="10.388" transform="rotate(-180 121.19 206.367)"/>
      <rect width="218.834" height="20.5" y="169.467" fill="#D3D8DD" transform="rotate(-180 109.417 179.717)"/>
      <path fill="#B8BEC5" d="M0,50.5666667 L218.834225,50.5666667 L218.834225,75.3033555 C218.835908,100.281023 209.388358,124.235885 192.570817,141.895888 C175.753276,159.555892 152.944007,169.473732 129.162937,169.466663 L89.0369858,169.466663 C39.8632164,169.466663 4.5069875e-15,127.597642 0,75.9495874 L0,50.5666667 Z" transform="rotate(-180 109.417 110.017)"/>
      <path fill="#273452" d="M0,50.5666667 L113.572193,50.5666667 L113.572193,110.029992 C113.572193,142.855961 88.1481912,169.466667 56.7860963,169.466667 C25.426487,169.466667 0.00351525718,142.860022 0,110.036654 L0,50.5666667 Z" transform="rotate(-180 56.786 110.017)"/>
      <g transform="translate(27.7 88.833)">
        <rect width="85.872" height="80.633" fill="#47C998"/>
        <polygon fill="#3FB283" points="0 80.633 55.294 23.233 85.489 26.313 85.872 80.633"/>
        <path fill="#5EE5AE" d="M47.8233781,49.9712303 L0,0 L85.8716578,0 L85.8716578,40.0902524 L75.5035494,50.3443489 C67.7022601,58.0722377 55.4312895,57.9068295 47.8233781,49.9712303 Z"/>
      </g>
      <path fill="#B8BEC5" d="M121.684192,71.0666667 L106.647059,78.2695349 C107.339572,86.1 113.641575,90.7222488 113.572193,113.433333 L123.261072,110.008704 L121.684192,71.0666667 Z"/>
    </g>
  </g>
</svg>
