<?xml version="1.0" encoding="UTF-8"?>
<svg width="512px" height="512px" viewBox="0 0 512 512" version="1.1" xmlns="http://www.w3.org/2000/svg" xmlns:xlink="http://www.w3.org/1999/xlink">
    <!-- Generator: Sketch 49.2 (51160) - http://www.bohemiancoding.com/sketch -->
    <title>user</title>
    <desc>Created with Sketch.</desc>
    <defs></defs>
    <g id="Page-1" stroke="none" stroke-width="1" fill="none" fill-rule="evenodd">
        <g id="user" fill="#354052" fill-rule="nonzero">
            <path d="M423.309,291.025 L402.221,285 C431.798,243.89 436,202.294 436,180 C436,80.649 355.484,0 256,0 C156.649,0 76,80.516 76,180 C76,202.299 80.198,243.884 109.779,285 L88.691,291.025 C21.28,310.285 0,371.59 0,408.605 L0,434.286 C0,477.138 34.862,512 77.714,512 L434.285,512 C477.138,512 512,477.138 512,434.286 L512,408.605 C512,372.358 491.275,310.444 423.309,291.025 Z M256,48 C328.902,48 388,107.099 388,180 C388,252.901 328.902,312 256,312 C183.098,312 124,252.901 124,180 C124,107.099 183.098,48 256,48 Z M464,434.286 C464,450.696 450.696,464 434.286,464 L77.714,464 C61.304,464 48,450.696 48,434.286 L48,408.605 C48,375.438 69.987,346.289 101.878,337.178 L147.981,324.006 C162.683,335.058 200.427,360 256,360 C311.573,360 349.317,335.058 364.019,324.006 L410.122,337.178 C442.013,346.29 464,375.438 464,408.605 L464,434.286 Z" id="Shape"></path>
        </g>
    </g>
</svg>