<svg id="Layer_2" data-name="Layer 2" xmlns="http://www.w3.org/2000/svg" viewBox="0 0 375.42 444.73"><defs><style>.cls-1{fill:#354052;}</style></defs><title>you-tube</title><path class="cls-1" d="M403.51,227.21c-4.59-20-20.93-34.7-40.56-36.9-46.56-5.2-93.7-5.22-140.58-5.2s-94.05,0-140.61,5.2c-19.64,2.2-36,16.93-40.57,36.9-6.53,28.43-6.61,59.47-6.61,88.73s0,60.33,6.54,88.76c4.6,19.94,20.91,34.68,40.57,36.88,46.56,5.2,93.66,5.22,140.58,5.2s94,0,140.58-5.2c19.66-2.2,36-16.94,40.59-36.88C410,376.27,410,345.23,410,315.94s.05-60.3-6.49-88.73Zm-261.83,22H114.5V393.63H89.26V249.25H62.58V225.59h79.1Zm68.54,144.38h-22.7V380c-9,10.32-17.58,15.38-25.91,15.38-7.33,0-12.36-3-14.64-9.32-1.22-3.78-2-9.77-2-18.61v-99h22.68v92.18c0,5.31,0,8.07.19,8.81.55,3.52,2.27,5.32,5.31,5.32,4.56,0,9.32-3.5,14.35-10.61v-95.7h22.7Zm86.19-37.57c0,11.57-.79,19.92-2.3,25.21-3,9.32-9.09,14.09-18.12,14.09-8.07,0-15.86-4.48-23.45-13.87v12.14H229.86v-168h22.68v54.89c7.33-9,15.11-13.58,23.45-13.58,9,0,15.11,4.74,18.12,14.13,1.54,5,2.3,13.32,2.3,25.17ZM382,335.18H336.67v22.2c0,11.56,3.79,17.36,11.59,17.36,5.58,0,8.84-3,10.13-9.11a147.49,147.49,0,0,0,.5-15.37H382v3.31c0,7.33-.26,12.35-.48,14.63a32.19,32.19,0,0,1-5.29,13.58c-6.28,9.1-15.59,13.58-27.45,13.58s-20.9-4.26-27.44-12.82c-4.82-6.27-7.31-16.14-7.31-29.45V309.24c0-13.36,2.21-23.16,7-29.5,6.56-8.56,15.59-12.84,27.18-12.84,11.38,0,20.41,4.28,26.75,12.84,4.77,6.34,7.05,16.14,7.05,29.5v25.94Zm0,0" transform="translate(-34.58 -2.05)"/><path class="cls-1" d="M348.05,287.33q-11.39,0-11.38,17.36v11.59h22.68V304.69c0-11.57-3.79-17.36-11.3-17.36Zm0,0" transform="translate(-34.58 -2.05)"/><path class="cls-1" d="M263.87,287.33c-3.74,0-7.55,1.77-11.33,5.5v76.33c3.78,3.78,7.59,5.58,11.33,5.58,6.54,0,9.87-5.58,9.87-16.91V304.4c0-11.28-3.33-17.07-9.87-17.07Zm0,0" transform="translate(-34.58 -2.05)"/><path class="cls-1" d="M276.54,173.57c8.35,0,17-5.08,26.17-15.52v13.8h23V45.3h-23V142q-7.62,10.74-14.46,10.73c-3.09,0-4.89-1.82-5.39-5.39-.26-.74-.26-3.52-.26-8.91V45.3H259.73V145.36c0,8.93.76,15,2,18.82,2.3,6.42,7.38,9.39,14.78,9.39Zm0,0" transform="translate(-34.58 -2.05)"/><path class="cls-1" d="M116.9,103.06v68.79h25.43V103.06l30.58-101h-25.7L129.85,68.72l-18-66.67H85.07C90.41,17.78,96,33.61,101.36,49.37,109.52,73,114.6,90.9,116.9,103.06Zm0,0" transform="translate(-34.58 -2.05)"/><path class="cls-1" d="M207,173.57c11.49,0,20.43-4.31,26.75-12.93,4.82-6.35,7.12-16.31,7.12-29.77V86.57c0-13.54-2.3-23.42-7.12-29.82-6.32-8.65-15.26-13-26.75-13s-20.33,4.33-26.68,13c-4.88,6.4-7.18,16.28-7.18,29.82v44.3c0,13.46,2.3,23.42,7.18,29.77,6.33,8.62,15.26,12.93,26.68,12.93ZM196.05,82c0-11.71,3.56-17.56,10.94-17.56S217.93,70.26,217.93,82V135.2c0,11.69-3.54,17.56-10.94,17.56s-10.94-5.87-10.94-17.56Zm0,0" transform="translate(-34.58 -2.05)"/></svg>