<svg xmlns="http://www.w3.org/2000/svg" width="30" height="30">
  <path fill="#354052" fill-rule="evenodd" d="M5.12400861 19.1455814C5.49297918 17.90652695 6.64297613 17 8 17c1.30329254 0 2.415628.83616034 2.8285255 2h9.342949C20.584372 17.83616034 21.6967075 17 23 17c1.3591193 0 2.5054792.9042273 2.8749557 2.1408652h1.6559503c.5590946 0 1.0295522-.3818377 1.1181892-.9052556l.4306846-2.58920274c.0443185-.2938863-.0318184-.58240972-.2215923-.81730425-.1909104-.23489453-.4670486-.38076511-.7772779-.41508759l-6.6011796-.67357884c-.0931824-.00858062-.1772739-.04183053-.2431834-.096532l-5.509127-4.3696818c-.3375022-.26814444-.7727323-.4150876-1.215917-.4150876H5.44212496c-.41250271 0-.79886887.19199143-1.03409769.51483733L1.1102784 13.91204862c-.1693193.22631391-.2318197.49874866-.18750123.77011084l.58636747 3.55345014c.08863695.5234179.55909458.9052556 1.12273463.9052556h2.42387952c.02319929 0 .04598905.0016091.06824982.0047162zM5 20H2.63187927c-1.01137026 0-1.86364857-.6875223-2.0193314-1.6303182l-.58636749-3.55345012c-.08409146-.49016804.03636388-.98355381.33295673-1.39006078l3.29888525-4.53807651C4.06143409 8.33142653 4.72734755 8 5.44212496 8h9.06937764c.6613679 0 1.3000085.21773329 1.8011481.61994995l5.4023081 4.28173042 6.4591333.66285306c.56364.0579192 1.0613706.32177333 1.4022819.74544154.3420477.41830533.4840941.94279586.4000026 1.47050411l-.4306846 2.58920272C29.3900091 19.3124777 28.5422763 20 27.530906 20H26c0 1.6537267-1.3462733 3-3 3s-3-1.3462733-3-3h-9c0 1.6537267-1.34627329 3-3 3s-3-1.3462733-3-3zm-1-6.5c0-.27614237.21990657-.5.49826741-.5H17.5017326C17.7769181 13 18 13.23193359 18 13.5c0 .27614237-.2199066.5-.4982674.5H4.49826741C4.22308192 14 4 13.76806641 4 13.5zM23 18c-1.1030986 0-2 .8977753-2 2 0 1.1022247.8969014 2 2 2 1.1064789 0 2-.8977753 2-2 0-1.1022247-.8935211-2-2-2zM8 18c-1.10222473 0-2 .8977753-2 2 0 1.1022247.89777527 2 2 2s2-.8977753 2-2c0-1.1022247-.89777527-2-2-2z"/>
</svg>
