<svg xmlns="http://www.w3.org/2000/svg" width="30" height="30">
  <g fill="#354052" fill-rule="evenodd">
    <path d="M18.6028563 7.00944955c-1.3305779 0-2.6178292.49885582-3.6027598 1.38329239-.98493061-.88425095-2.27218193-1.3832924-3.60295277-1.3832924C8.42107464 7.00944955 6 9.43741565 6 12.4218264c0 .74865498.12703646 1.50835439.37787677 2.2582623.0086846.02631175.21561943.63937075.41179498 1.00606458C7.68322102 17.5293211 9.30024606 19.31374 11.5965519 20.989942c1.70054198 1.2415245 3.12554078 1.9402939 3.18551279 1.9694827.06856013.0333654.14319948.0500248.21803182.0500248.07463934 0 .14947168-.0166594.21788706-.0500248.05992377-.0291888 1.48492254-.7279582 3.18546454-1.9694827 2.2998762-1.6789399 3.9186381-3.4664215 4.8112224-5.31283774.0009168-.00167059.0016887-.00348039.0024607-.00510457.011483-.02445554.2813812-.6023394.4074527-.99896459C23.8771129 13.87797494 24 13.14166374 24 12.42182639c0-2.98441075-2.4210264-5.41237684-5.3971437-5.41237684zm4.0987954 7.39239361c-.1042153.32808471-.3441516.84582744-.3631612.88661761-1.0262307 2.12085653-3.0152946 3.86323233-4.5034497 4.95138763-1.2561315.918498-2.37750691 1.5389818-2.8349443 1.7796856-.45758215-.2407038-1.57900578-.8611876-2.83513727-1.7796856-1.48868589-1.0887122-3.47871468-2.8319697-4.50475241-4.95412554-.00299136-.00617189-.00603097-.01234378-.00940832-.01846926-.13287444-.24580831-.30116277-.71315501-.35452484-.87176796-.21991347-.65746877-.33131765-1.32143426-.33131765-1.97365925 0-2.47270069 1.98834012-4.48427299 4.43218772-4.48427299 1.22428794 0 2.40597308.52024862 3.24186623 1.4271453.09157432.09935352.22295308.15624628.36108654.15624628.13794046 0 .26931922-.05689276.36094179-.15624628.84829281-.92030778 1.99963011-1.4271453 3.24181801-1.4271453 2.4440406 0 4.4321877 2.01175792 4.4321877 4.48427299 0 .6264701-.1089435 1.27414738-.3333923 1.98001677z"/>
    <path fill-rule="nonzero" d="M7.5 13c0 .27614237.22385763.5.5.5.27614237 0 .5-.22385763.5-.5 0-1.93299662 1.56700338-3.5 3.5-3.5.27614237 0 .5-.22385763.5-.5 0-.27614237-.22385763-.5-.5-.5-2.48528137 0-4.5 2.01471863-4.5 4.5z"/>
  </g>
</svg>
