<svg xmlns="http://www.w3.org/2000/svg" width="30" height="30">
  <path fill="#354052" fill-rule="evenodd" d="M19.8995907 12.1790235c-.6045493 0-1.1847339.2063386-1.7481678.6136861-.6045494-.4073475-1.184734-.6060721-1.7314172-.6136861-.6715523-.0091368-1.3096031.1819739-1.9057771.5954126-.2733416-.1979633-.5230798-.3464357-.7621586-.4469401-.2329875-.0974589-.5223184-.1484725-.8786523-.1484725-.6380508 0-1.2426001.1979633-1.8144094.5954126-.5383078-.3974493-1.12686782-.5954126-1.76491865-.5954126-.4553155 0-.88626629.0989816-1.29209098.3053203.16598458-.8512421.55505853-1.621776 1.17635862-2.3184544.62130008-.6966784 1.41010751-1.23879318 2.36185401-1.64004948.9540306-.4027791 1.9796326-.60454935 3.065385-.60454935 1.0849909 0 2.1029789.20177025 3.0570096.60454935.950985.4012563 1.7314171.94337108 2.3527172 1.64004948.6213001.6966784 1.0195108 1.4672123 1.184734 2.3184544-.4301894-.2063387-.8611402-.3053203-1.3004664-.3053203m1.6979157-1.292091c-.4004949-.7857619-.9380413-1.45579136-1.6149234-2.02227085-.6814504-.56876368-1.491577-1.0195108-2.4280955-1.35909393C16.6187304 7.16674598 15.632721 7 14.6055963 7c-1.0278862 0-2.0138955.16674598-2.9496526.50556772-.9365186.33958313-1.74664514.79033025-2.4280956 1.35909393-.67688208.56647949-1.21747406 1.23422485-1.62329875 2.02227085C7.19796326 11.6734558 7 12.4934805 7 13.3470068c0 .2565908.19796326.4568383.4553155.4568383h.09136766c.13248311 0 .23146474-.0426383.28933093-.1172552.46445227-.3974493.95326924-.5954126 1.45883696-.5954126.52155706 0 .99362335.1979633 1.42457405.5954126.0997431.0746169.1987247.1172552.3068431.1172552h.0327401c.1248691 0 .2276577-.0487295.306843-.1172552.4598839-.4027791.9692586-.5954126 1.5075664-.5954126.2406015 0 .437042.0373085.5801847.1058342.1469496.0730941.3479585.1911107.58856.3730846V21.23432c0 .4644522-.3563339.8535262-.8124108.8535262-.4309508 0-.7948986-.389074-.7948986-.8535262 0-.2565909-.2071001-.4545541-.4644523-.4545541-.2565909 0-.4553155.1979632-.4553155.4545541 0 .4895784.1659846.903017.4971923 1.2418388.3395832.3487199.7454079.5238412 1.2174741.5238412s.8763681-.1774055 1.2182355-.5238412c.3372989-.341106.513943-.7522604.513943-1.2418388v-7.6459503c.4720663-.3487199.9525079-.4971924 1.4413249-.4971924h.0167507c.3974493 0 .8801751.2032931 1.4413248.6114019.0860379.0639574.181974.1012659.2900924.1012659h.0167507c.1241077 0 .2238508-.0342629.2893309-.1012659.4895784-.4043019.9692586-.6114019 1.4420862-.6114019.4804417 0 .9959075.2032931 1.5410679.6114019.0845151.0639574.1735986.1012659.2733416.1012659h.0327401c.2573522 0 .4560769-.2002475.4560769-.4568383 0-.8535263-.2025317-1.6712668-.6053108-2.4600743"/>
</svg>
