<svg xmlns="http://www.w3.org/2000/svg" width="30" height="30">
  <path fill="#354052" fill-rule="evenodd" d="M24.3003495 13.5370097c-.6377476 0-1.2457476.1273786-1.8015534.3573592l-.2612039-.4899417c.639534-.271534 1.3379418-.4205049 2.0627573-.4205049.9022913 0 1.7933981.2326991 2.5767767.6729321.224233.1259029.5085049.0461359.6347185-.1780971.1259029-.2245437.0461359-.5085049-.1780971-.6347185-.9226408-.5182136-1.9714952-.7921553-3.0333981-.7921553-.8813204 0-1.7299417.1871845-2.5024466.5276116l-.4608155-.864699c.0431068.0030291.0867573.0048156.1307184.0048156h1.0789126c.2575534 0 .4660195-.2083884.4660195-.4660195V8.24085437c0-.2575534-.2084661-.46601942-.4660195-.46601942h-1.0789126c-.7308738 0-1.3670679.41141748-1.6901747 1.01491262l-.8225243-1.54306796C18.8740971 7.09491262 18.7160388 7 18.544 7h-2.1954175c-.2575534 0-.4660194.20869903-.4660194.46601942 0 .25724272.208466.46601941.4660194.46601941h1.9156505l.7919223 1.48574758c-.1019805-.07464078-.2102524-.1432233-.3249708-.20357282-.7020583-.36893204-1.5509903-.39052427-2.270602-.05770874l-1.4514951.67114564c-.5252039.24302911-.9365437.64349511-1.1972039 1.12411651-.4174757-.4623689-.9981359-.7773204-1.6598835-.8522719l-7.07370874-.79945627c-.3607767-.04093203-.72302912.0743301-.99363107.31642719-.27091262.24186408-.42625242.58858248-.42625242.95176698v2.047068c-.08924272.0385242-.17693204.0794563-.26306796.1237281-1.60714564.8285826-2.77304855 2.3071068-3.19875729 4.056466-.06097087.2500195.09258253.502136.34252428.5627962.03735922.0090873.0743301.0133592.11075728.0133592.20994175 0 .40046602-.1429126.45234951-.3558835.36170874-1.4866796 1.35316505-2.743301 2.72031068-3.4481553.48784466-.2514952 1.04792233-.3846991 1.61980583-.3846991h8.1158835v1.3516893H9.12714563c-.80163107-.6241553-1.80613592-.9975922-2.89382524-.9975922-2.42842719 0-4.44660194 1.8558447-4.69965049 4.223301H.46601942C.2087767 17.7603107 0 17.9690097 0 18.2263301v1.5497476c0 .2572427.2087767.4660194.46601942.4660194h1.47363107c.76512621 1.6568544 2.45079611 2.7493592 4.2936699 2.7493592 1.84279611 0 3.52823301-1.0925048 4.29335921-2.7493592h3.2114952c1.016699 0 1.8543689-.7791068 1.9484271-1.7715728.8643884-.3109903 1.5992233-.9335146 2.0455146-1.7739029l2.2078447-4.3085826c.1243495-.3319611.1753009-.6753398.160466-1.0115728l.8752621 1.6417088c-1.1680776.7408932-2.0858252 1.8671068-2.5554951 3.2403106-.0831068.2436505.0467573.5085049.2903301.5916117.0497864.0173204.1007378.025165.1508349.025165.1935534 0 .3746796-.121631.4408544-.3151844.3913786-1.1441554 1.1480388-2.0873787 2.113165-2.7172816l.2615146.4912622c-1.2675728.8485436-2.103767 2.2933592-2.103767 3.9301747 0 2.6065243 2.120466 4.7269903 4.7272233 4.7269903 2.6065243 0 4.7269903-2.120466 4.7269903-4.7269903 0-2.6067573-2.120466-4.7272233-4.7269903-4.7272233zM6.08582524 12.2508738v.0003107H4.59067961V10.568233c0-.1340582.07192233-.2184078.11502913-.256932.04279611-.0382913.13499029-.1004272.26788349-.0852816l7.07370877.799767c.7012039.0791456 1.2621359.5758447 1.4462912 1.2250874H6.08582524zm5.84776696 3.215767l1.1938641 2.2939806h-2.1944854c-.0913398-.8519612-.4114175-1.6371263-.8965437-2.2939806h1.897165zm-5.70027181-.9972816c1.91502912 0 3.51215534 1.438369 3.76 3.2912622H2.47300971c.24815534-1.8528932 1.84497087-3.2912622 3.76031068-3.2912622zm0 7.5900583c-1.32978641 0-2.5576699-.7084272-3.2384466-1.8173204h.59067961c.62438835.8365048 1.59495145 1.329165 2.64776699 1.329165 1.05250485 0 2.02337864-.4926602 2.64745631-1.329165h.59099029c-.68108738 1.1088932-1.90897087 1.8173204-3.2384466 1.8173204zm-1.31370874-1.8173204h2.6271068c-.38291262.2551456-.83642719.3971262-1.31339806.3971262-.47728156 0-.93079612-.1419806-1.31370874-.3971262zm8.81856315-.9320388H.93203884v-.6173981H14.6789903c-.1580583.3628738-.5203107.6173981-.9408155.6173981zm3.1707961-3.0506408c-.4918059.9259806-1.4486991 1.5012039-2.4972427 1.5012039h-.2336311l-1.1935534-2.2939806h1.0396893c.2576311 0 .4660194-.208466.4660194-.4660194v-1.8173981h4.0531262l-1.6344077 3.0761942zm2.1583689-4.199068l-.0716116.190835H14.448699c-.0063689-.0351845-.0133592-.070369-.0208932-.1049321.0191068-.6222912.3846991-1.2008543.9723495-1.472699l1.4514952-.670835c.4584078-.21211646.9987573-.19844656 1.4459806.0364272.7278446.3825243 1.0588738 1.2514952.7697087 2.0212039zm1.4165437-2.25638833v-.11347573c0-.54244661.4414757-.98392233.9839223-.98392233h.6128932v2.08100969h-.6128932c-.5424466 0-.9839223-.4410874-.9839223-.98361163zm2.3101359 6.62563103l.5148738.9657476c.0840388.1571262.2451262.2466019.4116505.2466019.0740194 0 .1489709-.0175534.2187961-.0549126.2272621-.120699.3130874-.4031844.192-.6301359l-.5151068-.9666019c.2166214-.0655534.4462913-.1010486.6841165-.1010486 1.3095146 0 2.3746796 1.0655534 2.3746796 2.3749903 0 1.3095146-1.065165 2.3746796-2.3746796 2.3746796-1.3094369 0-2.3749903-1.065165-2.3749903-2.3746796 0-.7381747.3388738-1.3989903.8686602-1.8346408zm1.5063301 5.6295923c-2.0928155 0-3.7951845-1.702369-3.7951845-3.7949515 0-1.280932.638369-2.4147573 1.6131263-3.1025243l.2315339.4344855c-.8215922.6021747-1.3561941 1.5733592-1.3561941 2.6680388 0 1.8231456 1.4833398 3.3067185 3.3067184 3.3067185 1.8234563 0 3.3067185-1.4835729 3.3067185-3.3067185 0-1.8233786-1.4832622-3.3070291-3.3067185-3.3070291-.3961942 0-.7763883.0703689-1.128932.1987573l-.2312233-.4338641c.4226796-.1629515.8807767-.2530486 1.3601553-.2530486 2.0925825 0 3.7951845 1.702369 3.7951845 3.7951845 0 2.0925825-1.702602 3.7949515-3.7951845 3.7949515zm-.4305243-3.6168544c-.0051262-.0124272-.0033398-.0081553-.000932-.0020971-.0800777-.2032621-.0108738-.4417864.1723495-.5640388.1805049-.120466.4360389-.0983301.5882719.0585631.1799611.1750679.1799611.4836505 0 .6586408-.2287379.2358058-.6319224.145631-.7584466-.1486602.002097.0060582.0039611.0097087-.0012428-.0024078z"/>
</svg>
