<svg width="32" height="32" viewBox="0 0 32 32" fill="none" xmlns="http://www.w3.org/2000/svg">
<circle cx="13.5" cy="20.5" r="9.5" fill="url(#paint0_linear_208_1362)"/>
<mask id="mask0_208_1362" style="mask-type:alpha" maskUnits="userSpaceOnUse" x="0" y="0" width="32" height="32">
<rect width="32" height="32" fill="#D9D9D9"/>
</mask>
<g mask="url(#mask0_208_1362)">
</g>
<g clip-path="url(#clip0_208_1362)">
<path d="M26.6622 27.2034C23.7205 27.2034 21.3378 24.8074 21.3378 21.8789C21.3378 18.9504 23.7338 16.5544 26.6622 16.5544C29.5907 16.5544 31.9867 18.9504 31.9867 21.8789C31.9867 24.8074 29.5907 27.2034 26.6622 27.2034ZM26.6622 17.8722C24.4526 17.8722 22.6689 19.6693 22.6689 21.8656C22.6689 24.0619 24.4659 25.8589 26.6622 25.8589C28.8586 25.8589 30.6556 24.0619 30.6556 21.8656C30.6556 19.6693 28.8586 17.8722 26.6622 17.8722Z" fill="#444545"/>
<path d="M4.6589 27.2966C2.08985 27.2966 0 25.2067 0 22.6377C0 20.0686 2.08985 17.9788 4.6589 17.9788C7.22795 17.9788 9.3178 20.0686 9.3178 22.6377C9.3178 25.2067 7.22795 27.2966 4.6589 27.2966ZM4.6589 19.3099C2.82196 19.3099 1.33111 20.8007 1.33111 22.6377C1.33111 24.4746 2.82196 25.9654 4.6589 25.9654C6.49584 25.9654 7.98669 24.4746 7.98669 22.6377C7.98669 20.8007 6.49584 19.3099 4.6589 19.3099Z" fill="#444545"/>
<path d="M26.6622 22.5447C26.3827 22.5447 26.1165 22.3583 26.0233 22.0788L21.4842 7.31671L17.9967 7.36996C17.5973 7.33002 17.3311 7.07711 17.3178 6.71771C17.3178 6.345 17.6107 6.05215 17.9701 6.03884L21.4576 5.9856C22.0832 5.99891 22.5757 6.35831 22.7488 6.91738L27.3012 21.6794C27.4077 22.0255 27.208 22.3982 26.8619 22.518C26.7953 22.5447 26.7288 22.5447 26.6622 22.5447Z" fill="#444545"/>
<path d="M4.28618 23.5695C4.03327 23.5695 3.79367 23.423 3.67387 23.1834C3.52745 22.8507 3.67387 22.4513 4.00665 22.3049L12.1531 18.6044C12.4858 18.4447 12.8852 18.6044 13.0316 18.9372C13.178 19.27 13.0316 19.6693 12.6988 19.8157L4.55241 23.5162C4.45923 23.5561 4.36605 23.5695 4.27287 23.5695H4.28618Z" fill="#444545"/>
<path d="M16.0932 21.3599C14.8819 21.3599 14.0433 21.0005 13.1115 20.1752L13.0183 20.0821C9.71714 15.7027 6.06988 13.1203 2.18303 12.4015C0.772047 12.1486 0.306157 11.3366 0.146423 10.884C-0.0931777 10.1919 0.0798673 9.41982 0.585691 8.84744C1.09151 8.28838 1.85025 8.04878 2.60899 8.22182C3.55408 8.35493 4.61897 8.54129 5.71048 8.72764C10.7953 9.59287 17.1314 10.6711 22.6423 9.35327C23.0017 9.26009 23.3611 9.48638 23.4409 9.84578C23.5208 10.2052 23.3078 10.5646 22.9484 10.6444C17.1714 12.0288 10.6889 10.924 5.48419 10.0454C4.39268 9.85909 3.3411 9.68605 2.35607 9.53962C1.91681 9.44645 1.6772 9.6328 1.57072 9.7526C1.38436 9.95227 1.33111 10.2318 1.41098 10.4714C1.51747 10.7909 1.87687 11.0172 2.42263 11.1103C6.62895 11.8824 10.5424 14.6245 14.03 19.2301C14.9484 20.0155 15.6406 20.2285 17.6506 19.8824C18.1165 19.8025 18.7288 18.6578 19.2879 17.6594C20.5923 15.2767 22.3894 12.0155 26.4093 11.9756C27.9534 11.9756 30.7887 12.6544 31.8669 14.4514C32.0532 14.7709 31.9468 15.1702 31.6406 15.3699C31.3211 15.5563 30.9218 15.4498 30.7221 15.1436C30.0433 14.0122 27.9534 13.3067 26.4093 13.3067C23.1747 13.3333 21.6572 16.0887 20.4459 18.2984C19.6206 19.8025 18.9684 21.0005 17.8769 21.1869C17.1847 21.3067 16.599 21.3732 16.0799 21.3732L16.0932 21.3599Z" fill="#444545"/>
<path d="M18.3161 13.9989H14.9085C14.6289 13.9989 14.3627 13.9057 14.1364 13.7327L11.0349 11.35C10.7421 11.1237 10.6888 10.711 10.9151 10.4182C11.1414 10.1253 11.5541 10.0721 11.8469 10.2984L14.9484 12.6811H18.3028L19.4343 10.3383C19.6073 10.0188 20.0067 9.88573 20.3261 10.0455C20.6589 10.2185 20.7787 10.6178 20.619 10.9373L19.3943 13.32C19.1814 13.7327 18.7687 13.9856 18.3028 13.9856L18.3161 13.9989Z" fill="#444545"/>
<path d="M26.5158 11.0304C26.0632 11.0304 25.6106 10.924 25.198 10.711C24.5191 10.3649 24.0133 9.76589 23.7737 9.03378C23.2945 7.51631 24.1331 5.90566 25.6373 5.41314C26.5025 5.13361 27.4343 5.61281 27.7138 6.49135L28.4592 8.8208C28.7388 9.68602 28.2596 10.6178 27.381 10.8973C27.0882 10.9905 26.7953 11.0304 26.5025 11.0304H26.5158ZM26.1431 6.66439C26.1431 6.66439 26.0765 6.66439 26.0499 6.6777C25.2379 6.93061 24.7854 7.80915 25.0516 8.62113C25.3178 9.43311 26.183 9.88569 26.995 9.61947C27.1681 9.56622 27.2612 9.37987 27.208 9.20682L26.4626 6.87737C26.4226 6.74426 26.2895 6.65108 26.1564 6.65108L26.1431 6.66439Z" fill="#444545"/>
</g>
<defs>
<linearGradient id="paint0_linear_208_1362" x1="4" y1="25.5" x2="18" y2="18" gradientUnits="userSpaceOnUse">
<stop stop-color="#89EBBB"/>
<stop offset="1" stop-color="#89EBBB" stop-opacity="0"/>
</linearGradient>
<clipPath id="clip0_208_1362">
<rect width="32" height="21.9634" fill="white" transform="translate(0 5.33325)"/>
</clipPath>
</defs>
</svg>
