<svg width="36" height="36" viewBox="0 0 36 36" fill="none" xmlns="http://www.w3.org/2000/svg">
<path d="M34.4251 24.7627C34.4251 27.4436 32.2523 29.6163 29.5714 29.6163C26.8906 29.6163 24.7178 27.4436 24.7178 24.7627C24.7178 22.0818 26.8906 19.9091 29.5714 19.9091C32.2523 19.9091 34.4251 22.0818 34.4251 24.7627Z" fill="url(#paint0_linear_1096_9157)"/>
<path d="M13.1304 25.3543C13.1304 27.9779 11.004 30.1043 8.38037 30.1043C5.75675 30.1043 3.63037 27.9779 3.63037 25.3543C3.63037 22.7307 5.75675 20.6043 8.38037 20.6043C11.004 20.6043 13.1304 22.7307 13.1304 25.3543Z" fill="url(#paint1_linear_1096_9157)"/>
<mask id="mask0_1096_9157" style="mask-type:luminance" maskUnits="userSpaceOnUse" x="0" y="7" width="36" height="24">
<path d="M35.0999 7.20001H0.899902V30.2312H35.0999V7.20001Z" fill="white"/>
</mask>
<g mask="url(#mask0_1096_9157)">
<path fill-rule="evenodd" clip-rule="evenodd" d="M8.17251 20.7678C5.9386 20.7678 4.12783 22.5786 4.12783 24.8125C4.12783 27.0464 5.9386 28.8572 8.17251 28.8572C10.4064 28.8572 12.2172 27.0464 12.2172 24.8125C12.2172 22.5786 10.4064 20.7678 8.17251 20.7678ZM2.77783 24.8125C2.77783 21.833 5.19302 19.4178 8.17251 19.4178C11.152 19.4178 13.5672 21.833 13.5672 24.8125C13.5672 27.792 11.152 30.2072 8.17251 30.2072C5.19302 30.2072 2.77783 27.792 2.77783 24.8125Z" fill="#444444"/>
<path fill-rule="evenodd" clip-rule="evenodd" d="M29.6823 20.7678C27.4484 20.7678 25.6376 22.5786 25.6376 24.8125C25.6376 27.0464 27.4484 28.8572 29.6823 28.8572C31.9162 28.8572 33.727 27.0464 33.727 24.8125C33.727 22.5786 31.9162 20.7678 29.6823 20.7678ZM24.2876 24.8125C24.2876 21.833 26.7028 19.4178 29.6823 19.4178C32.6618 19.4178 35.077 21.833 35.077 24.8125C35.077 27.792 32.6618 30.2072 29.6823 30.2072C26.7028 30.2072 24.2876 27.792 24.2876 24.8125Z" fill="#444444"/>
<path fill-rule="evenodd" clip-rule="evenodd" d="M14.5981 7.89915C14.5981 7.52636 14.9004 7.22415 15.2731 7.22415H19.6121L30.191 24.4639C30.386 24.7816 30.2865 25.1972 29.9687 25.3922C29.651 25.5872 29.2354 25.4877 29.0404 25.1699L18.8566 8.57415H15.2731C14.9004 8.57415 14.5981 8.27194 14.5981 7.89915Z" fill="#444444"/>
<path fill-rule="evenodd" clip-rule="evenodd" d="M24.5696 15.6714C24.8947 15.8539 25.0104 16.2653 24.828 16.5904L20.5576 24.2014C19.9842 25.2234 18.9036 25.8563 17.7317 25.8565L12.8914 25.8571C12.5186 25.8572 12.2164 25.555 12.2163 25.1822C12.2163 24.8094 12.5184 24.5072 12.8912 24.5071L17.7315 24.5065C18.4153 24.5064 19.0457 24.1371 19.3803 23.5408L23.6506 15.9298C23.833 15.6047 24.2445 15.489 24.5696 15.6714Z" fill="#444444"/>
<path fill-rule="evenodd" clip-rule="evenodd" d="M25.5683 10.6297C24.9242 10.8954 24.4706 11.5299 24.4706 12.2701C24.4706 13.0102 24.924 13.6443 25.5683 13.9097V10.6297ZM23.1206 12.2701C23.1206 10.5458 24.5183 9.14658 26.2433 9.14658H26.9183V15.3928H26.2433C24.5186 15.3928 23.1206 13.9947 23.1206 12.2701Z" fill="#444444"/>
<path fill-rule="evenodd" clip-rule="evenodd" d="M11.8799 18.1932C11.8799 17.8204 12.1821 17.5182 12.5549 17.5182H22.9512C23.324 17.5182 23.6262 17.8204 23.6262 18.1932C23.6262 18.566 23.324 18.8682 22.9512 18.8682H12.5549C12.1821 18.8682 11.8799 18.566 11.8799 18.1932Z" fill="#444444"/>
<path fill-rule="evenodd" clip-rule="evenodd" d="M15.8852 15.3264C16.4918 14.7274 17.31 14.3914 18.1625 14.3914H23.4612C23.834 14.3914 24.1362 14.6937 24.1362 15.0664C24.1362 15.4392 23.834 15.7414 23.4612 15.7414H18.1625C17.6651 15.7414 17.1877 15.9374 16.8338 16.2869L14.4174 18.6734C14.1521 18.9353 13.7247 18.9326 13.4628 18.6674C13.2008 18.4021 13.2035 17.9748 13.4688 17.7128L15.8852 15.3264Z" fill="#444444"/>
<path fill-rule="evenodd" clip-rule="evenodd" d="M3.8501 25.0899C3.8501 25.4627 3.54789 25.7649 3.1751 25.7649L1.99092 25.7649C1.61813 25.7649 1.31592 25.4627 1.31592 25.0899C1.31592 24.7171 1.61813 24.4149 1.99092 24.4149L3.1751 24.4149C3.54789 24.4149 3.8501 24.7171 3.8501 25.0899Z" fill="#444444"/>
<path fill-rule="evenodd" clip-rule="evenodd" d="M3.01514 17.1356C3.01514 16.1607 3.80496 15.3709 4.77983 15.3709H11.4657C12.0493 15.3709 12.499 15.7183 12.7721 16.0745C13.0482 16.4348 13.2304 16.9089 13.2304 17.3759V23.0762C13.2304 23.449 12.9282 23.7512 12.5554 23.7512C12.1826 23.7512 11.8804 23.449 11.8804 23.0762V17.3759C11.8804 17.2409 11.8187 17.0499 11.7006 16.8957C11.5793 16.7375 11.4841 16.7209 11.4657 16.7209H4.77983C4.55054 16.7209 4.36514 16.9063 4.36514 17.1356V23.2151C4.36514 23.5879 4.06293 23.8901 3.69014 23.8901C3.31734 23.8901 3.01514 23.5879 3.01514 23.2151V17.1356Z" fill="#444444"/>
</g>
<defs>
<linearGradient id="paint0_linear_1096_9157" x1="29.5714" y1="19.9091" x2="29.5714" y2="29.6163" gradientUnits="userSpaceOnUse">
<stop stop-color="#00D679"/>
<stop offset="0.828138" stop-color="#00D679" stop-opacity="0"/>
</linearGradient>
<linearGradient id="paint1_linear_1096_9157" x1="8.38037" y1="20.6043" x2="8.38037" y2="30.1043" gradientUnits="userSpaceOnUse">
<stop stop-color="#00D679"/>
<stop offset="0.828138" stop-color="#00D679" stop-opacity="0"/>
</linearGradient>
</defs>
</svg>
