<svg width="32" height="32" viewBox="0 0 32 32" fill="none" xmlns="http://www.w3.org/2000/svg">
<path d="M27 19.5C27 15.9101 24.0899 13 20.5 13H0V26H20.5C24.0899 26 27 23.0899 27 19.5V19.5Z" fill="url(#paint0_linear_208_1376)"/>
<mask id="mask0_208_1376" style="mask-type:alpha" maskUnits="userSpaceOnUse" x="0" y="0" width="32" height="32">
<rect width="32" height="32" fill="#D9D9D9"/>
</mask>
<g mask="url(#mask0_208_1376)">
<path d="M4.82666 13.4134L5.27999 7.69343C5.43999 5.62676 7.19999 4.01343 9.26666 4.01343H22.9867C25.0133 4.01343 26.6667 5.53343 26.84 7.54676L27.3467 13.4001H4.82666V13.4134ZM9.26666 5.33343C7.87999 5.33343 6.71999 6.41343 6.61333 7.78676L6.27999 12.0668H25.9067L25.5333 7.64009C25.4267 6.32009 24.3333 5.32009 23.0133 5.32009H9.26666V5.33343Z" fill="#444545"/>
<path d="M30.0533 26.6934H2C0.893333 26.6934 0 25.8001 0 24.6934V17.9867C0 14.7334 2.65333 12.0801 5.90667 12.0801H26.1467C29.4 12.0801 32.0533 14.7334 32.0533 17.9867V24.6934C32.0533 25.8001 31.16 26.6934 30.0533 26.6934ZM5.90667 13.4134C3.38667 13.4134 1.33333 15.4667 1.33333 17.9867V24.6934C1.33333 25.0667 1.62667 25.3601 2 25.3601H30.0533C30.4267 25.3601 30.72 25.0667 30.72 24.6934V17.9867C30.72 15.4667 28.6667 13.4134 26.1467 13.4134H5.90667V13.4134Z" fill="#444545"/>
<path d="M30.8667 16.04H0.893326V17.3734H30.8667V16.04Z" fill="#444545"/>
<path d="M8.14666 25.6934L6.82666 25.4667L7.10666 23.8401C7.21333 23.2001 7.77333 22.7334 8.42666 22.7334H23.7733C24.4267 22.7334 24.9733 23.2001 25.08 23.8401L25.36 25.4267L24.0533 25.6534L23.7733 24.0667H8.43999L8.15999 25.6934H8.14666Z" fill="#444545"/>
<path d="M6.08 29.3201H3.44C2.36 29.3201 1.45334 28.4401 1.44 27.3468V26.2934L2.76 26.2668V27.3201C2.78667 27.6801 3.08 27.9734 3.44 27.9734H6.08C6.25334 27.9734 6.42667 27.9068 6.56 27.7734C6.68 27.6401 6.76 27.4801 6.74667 27.2934V26.2801L8.06667 26.2534V27.2668C8.09334 27.8134 7.88 28.3201 7.50667 28.7068C7.13334 29.0934 6.62667 29.3068 6.08 29.3068V29.3201Z" fill="#444545"/>
<path d="M28.72 29.3201H26.08C25 29.3201 24.0933 28.4401 24.08 27.3468V26.2934L25.4 26.2668V27.3201C25.4267 27.6801 25.72 27.9734 26.08 27.9734H28.72C28.8933 27.9734 29.0667 27.9068 29.2 27.7734C29.3333 27.6401 29.4 27.4801 29.3867 27.2934V26.2801L30.7067 26.2534V27.2668C30.7333 27.8134 30.5333 28.3201 30.1467 28.7068C29.76 29.0934 29.2667 29.3068 28.72 29.3068V29.3201Z" fill="#444545"/>
<path d="M7.17334 20.3068L3.14667 20.2801C2.76 20.2801 2.38667 20.1334 2.09334 19.8801L0.693338 18.6401L0.306671 17.2134L1.58667 16.8668L1.86667 17.9068L2.97334 18.8934C2.97334 18.8934 3.08 18.9601 3.14667 18.9601L6.88 18.9868L6.44 17.1468L7.73334 16.8401L8.24 18.9734C8.32 19.3068 8.24 19.6401 8.02667 19.9068C7.81334 20.1734 7.50667 20.3201 7.17334 20.3201V20.3068Z" fill="#444545"/>
<path d="M24.52 20.3067C24.1867 20.3067 23.8667 20.16 23.6533 19.8933C23.44 19.6267 23.36 19.28 23.44 18.96L23.9467 16.8267L25.24 17.1333L24.8 18.9733L28.5333 18.9467C28.5333 18.9467 28.6667 18.92 28.7067 18.88L29.8133 17.8933L30.0933 16.8533L31.3733 17.2L30.9867 18.6267L29.5867 19.8667C29.2933 20.12 28.92 20.2667 28.5333 20.2667L24.5067 20.2933L24.52 20.3067Z" fill="#444545"/>
<path d="M4.4 13.3068H1.45334C0.720002 13.2801 0.120002 12.6801 0.133336 11.9468V10.6535C0.133336 9.93346 0.720002 9.33346 1.44 9.32012L3.28 9.29346C3.6 9.29346 3.85334 9.42679 4.04 9.65346L5.65334 11.7868L4.58667 12.5868L4.38667 12.3335V13.2935L4.4 13.3068ZM3.10667 10.6401L1.46667 10.6668V11.9601H4.12L3.10667 10.6401V10.6401Z" fill="#444545"/>
<path d="M27.7733 13.3068V12.3468L27.5733 12.6001L26.5067 11.8001L28.12 9.66679C28.3067 9.42679 28.52 9.30679 28.88 9.29346L30.72 9.32012C31.44 9.32012 32.0267 9.93346 32.0267 10.6535V11.9468C32.0267 12.6801 31.44 13.2801 30.7067 13.2801H27.7733V13.3068ZM29.0533 10.6535L28.04 11.9868H30.6933V10.6801L29.0533 10.6535V10.6535Z" fill="#444545"/>
</g>
<defs>
<linearGradient id="paint0_linear_208_1376" x1="27" y1="22.9211" x2="15.5591" y2="10.1915" gradientUnits="userSpaceOnUse">
<stop stop-color="#89EBBB"/>
<stop offset="1" stop-color="#89EBBB" stop-opacity="0"/>
</linearGradient>
</defs>
</svg>
