<svg width="32" height="32" viewBox="0 0 32 32" fill="none" xmlns="http://www.w3.org/2000/svg">
<circle r="11" transform="matrix(-1 0 0 1 13 18)" fill="url(#paint0_linear_208_1352)"/>
<mask id="mask0_208_1352" style="mask-type:alpha" maskUnits="userSpaceOnUse" x="0" y="0" width="32" height="32">
<rect width="32" height="32" fill="#D9D9D9"/>
</mask>
<g mask="url(#mask0_208_1352)">
<path fill-rule="evenodd" clip-rule="evenodd" d="M20.1677 2.63725C18.497 3.5155 16.9495 5.37045 16.1386 8.49603C16.0462 8.85242 15.6823 9.06637 15.3259 8.97391C14.9695 8.88144 14.7556 8.51757 14.848 8.16118C15.7304 4.7601 17.4713 2.54838 19.5473 1.45705C21.6227 0.366028 23.9578 0.437956 25.9079 1.46738C29.8634 3.55544 31.9919 9.34553 28.1543 16.8973C27.9875 17.2255 27.5862 17.3564 27.258 17.1896C26.9297 17.0228 26.7989 16.6215 26.9657 16.2933C30.5948 9.15168 28.3832 4.28177 25.2854 2.6465C23.7089 1.81426 21.839 1.75868 20.1677 2.63725Z" fill="#444444"/>
<g clip-path="url(#clip0_208_1352)">
<path fill-rule="evenodd" clip-rule="evenodd" d="M22.4184 4.27338C22.5783 3.94172 22.9768 3.80248 23.3085 3.96238C25.2333 4.89039 26.6687 6.69749 27.176 8.99126C27.2555 9.35076 27.0285 9.70665 26.669 9.78617C26.3095 9.86568 25.9536 9.6387 25.8741 9.2792C25.4509 7.36545 24.2689 5.90563 22.7294 5.16342C22.3978 5.00352 22.2585 4.60503 22.4184 4.27338Z" fill="#444545"/>
</g>
<path fill-rule="evenodd" clip-rule="evenodd" d="M11.4316 1.57312C13.5073 2.64345 15.254 4.82867 16.1509 8.19705C16.2456 8.55284 16.034 8.91806 15.6782 9.0128C15.3224 9.10753 14.9572 8.89589 14.8624 8.5401C14.0393 5.44848 12.4893 3.6187 10.8205 2.75819C9.15074 1.89721 7.28626 1.96398 5.71586 2.80321C2.63 4.45232 0.438431 9.31793 4.06086 16.4397C4.22779 16.7678 4.09707 17.1692 3.76889 17.3361C3.44071 17.503 3.03935 17.3723 2.87243 17.0442C-0.958474 9.51256 1.14995 3.73149 5.08743 1.62727C7.0287 0.589836 9.35671 0.503266 11.4316 1.57312Z" fill="#444444"/>
<path fill-rule="evenodd" clip-rule="evenodd" d="M6.07246 20.5854C6.07246 20.5854 6.07246 20.5854 6.07246 20.5854L6.07623 20.5903L6.08856 20.606L6.13813 20.669C6.182 20.7246 6.24716 20.8068 6.33157 20.9123C6.5004 21.1234 6.74615 21.4276 7.05251 21.7984C7.66557 22.5405 8.5197 23.5475 9.48481 24.6084C10.451 25.6704 11.5223 26.7797 12.57 27.7295C13.6272 28.6878 14.623 29.449 15.4404 29.8502C15.7709 30.0124 15.9074 30.4118 15.7451 30.7424C15.5829 31.0729 15.1835 31.2093 14.853 31.0471C13.8636 30.5616 12.7562 29.6978 11.6746 28.7174C10.5836 27.7284 9.4807 26.5852 8.49853 25.5056C7.51531 24.4248 6.64694 23.401 6.02458 22.6476C5.71324 22.2707 5.46305 21.9611 5.29037 21.7452C5.20402 21.6373 5.13703 21.5527 5.09144 21.495L5.03935 21.4288L5.02582 21.4115L5.0213 21.4057C5.02122 21.4056 5.02088 21.4052 5.54667 20.9953L5.0213 21.4057C4.79494 21.1153 4.84642 20.6959 5.13681 20.4695C5.42719 20.2432 5.8461 20.2951 6.07246 20.5854Z" fill="#444444"/>
<path fill-rule="evenodd" clip-rule="evenodd" d="M24.3009 20.6521C24.5273 20.3617 24.9462 20.3098 25.2366 20.5362C25.5269 20.7625 25.5788 21.1814 25.3525 21.4718L24.8267 21.062C25.3525 21.4718 25.3526 21.4717 25.3525 21.4718L25.3475 21.4781L25.334 21.4954L25.2819 21.5616C25.2363 21.6194 25.1693 21.7039 25.083 21.8119C24.9103 22.0277 24.6601 22.3374 24.3488 22.7143C23.7264 23.4676 22.8581 24.4915 21.8748 25.5722C20.8927 26.6519 19.7898 27.7951 18.6988 28.784C17.6172 29.7645 16.5097 30.6282 15.5204 31.1138C15.1899 31.276 14.7904 31.1395 14.6282 30.809C14.466 30.4785 14.6024 30.079 14.933 29.9168C15.7503 29.5157 16.7462 28.7544 17.8033 27.7962C18.8511 26.8464 19.9224 25.737 20.8886 24.675C21.8537 23.6141 22.7078 22.6072 23.3209 21.8651C23.6272 21.4942 23.873 21.19 24.0418 20.979C24.1262 20.8735 24.1914 20.7913 24.2352 20.7357L24.2848 20.6727L24.2971 20.6569L24.3009 20.6521C24.3009 20.6521 24.3009 20.6521 24.3009 20.6521Z" fill="#444444"/>
<path fill-rule="evenodd" clip-rule="evenodd" d="M15.7752 16.1508L13.3581 19.7583C12.9496 20.3371 12.1011 20.3852 11.6426 19.8208L11.6341 19.8104L9.97567 17.683L8.30832 19.3149C8.11209 19.5097 7.8535 19.6271 7.56 19.6271H0.666667C0.298477 19.6271 0 19.3286 0 18.9604C0 18.5922 0.298477 18.2937 0.666667 18.2937H7.44544L9.25168 16.5259C9.72275 16.0585 10.4647 16.1455 10.8442 16.6285L10.8458 16.6305L12.4609 18.7021L14.9374 15.0057C15.4203 14.2704 16.4728 14.4295 16.8069 15.1645L16.8109 15.1734L19.1024 20.631L20.3339 18.7507L20.3467 18.7337C20.5092 18.517 20.8072 18.2804 21.2133 18.2804H30.3067C30.6749 18.2804 30.9733 18.5789 30.9733 18.9471C30.9733 19.3153 30.6749 19.6137 30.3067 19.6137H21.3625L19.9456 21.7771C19.9454 21.7774 19.9459 21.7767 19.9456 21.7771C19.4785 22.494 18.3891 22.389 18.0644 21.6031L15.7752 16.1508ZM19.295 21.0898C19.2957 21.0914 19.2964 21.093 19.297 21.0947L19.295 21.0898ZM18.8277 21.0504C18.8281 21.0498 18.8285 21.0491 18.829 21.0485L18.8277 21.0504Z" fill="#444444"/>
</g>
<defs>
<linearGradient id="paint0_linear_208_1352" x1="2.81512e-07" y1="16.7895" x2="16.2105" y2="8.10526" gradientUnits="userSpaceOnUse">
<stop stop-color="#89EBBB"/>
<stop offset="1" stop-color="#89EBBB" stop-opacity="0"/>
</linearGradient>
<clipPath id="clip0_208_1352">
<rect width="6.66667" height="6.66667" fill="white" transform="translate(21.3333 3.32861)"/>
</clipPath>
</defs>
</svg>
