<svg width="32" height="32" viewBox="0 0 32 32" fill="none" xmlns="http://www.w3.org/2000/svg">
<path d="M28 9.5C28 5.91015 25.0899 3 21.5 3H10.5C6.91015 3 4 5.91015 4 9.5C4 13.0899 6.91015 16 10.5 16H21.5C25.0899 16 28 13.0899 28 9.5Z" fill="url(#paint0_linear_208_1357)"/>
<mask id="mask0_208_1357" style="mask-type:alpha" maskUnits="userSpaceOnUse" x="0" y="0" width="32" height="32">
<rect width="32" height="32" fill="#D9D9D9"/>
</mask>
<g mask="url(#mask0_208_1357)">
<path fill-rule="evenodd" clip-rule="evenodd" d="M16 3.19686C9.16201 3.19686 3.43112 7.96638 1.98357 14.3648C1.90232 14.7239 1.54534 14.9492 1.18622 14.8679C0.827111 14.7867 0.601853 14.4297 0.683097 14.0706C2.26564 7.07548 8.5278 1.86353 16 1.86353C23.4731 1.86353 29.7212 7.07621 31.3166 14.0694C31.3985 14.4284 31.1739 14.7858 30.8149 14.8677C30.456 14.9496 30.0986 14.7249 30.0167 14.366C28.5565 7.96566 22.8371 3.19686 16 3.19686Z" fill="#444444"/>
<path fill-rule="evenodd" clip-rule="evenodd" d="M5.48557 12.0149C4.21216 11.9238 2.86147 12.5339 2.20368 13.9291C2.04666 14.2621 1.6494 14.4048 1.31637 14.2478C0.983341 14.0907 0.840655 13.6935 0.997673 13.3604C1.91858 11.4072 3.82716 10.5596 5.58066 10.6849C7.33125 10.8101 9.02964 11.9224 9.42297 13.9507C9.49307 14.3122 9.25687 14.662 8.89541 14.7321C8.53396 14.8022 8.18412 14.566 8.11403 14.2045C7.85805 12.8845 6.76188 12.1061 5.48557 12.0149Z" fill="#444444"/>
<path fill-rule="evenodd" clip-rule="evenodd" d="M12.7553 12.0149C11.4819 11.9238 10.1312 12.5339 9.4734 13.9291C9.31638 14.2621 8.91912 14.4048 8.58609 14.2478C8.25305 14.0907 8.11037 13.6935 8.26739 13.3604C9.1883 11.4072 11.0969 10.5596 12.8504 10.6849C14.601 10.8101 16.2994 11.9224 16.6927 13.9507C16.7628 14.3122 16.5266 14.662 16.1651 14.7321C15.8037 14.8022 15.4538 14.566 15.3837 14.2045C15.1278 12.8845 14.0316 12.1061 12.7553 12.0149Z" fill="#444444"/>
<path fill-rule="evenodd" clip-rule="evenodd" d="M20.0631 12.0149C18.7897 11.9238 17.439 12.5339 16.7812 13.9291C16.6242 14.2621 16.227 14.4048 15.8939 14.2478C15.5609 14.0907 15.4182 13.6935 15.5752 13.3604C16.4961 11.4072 18.4047 10.5596 20.1582 10.6849C21.9088 10.8101 23.6072 11.9224 24.0005 13.9507C24.0706 14.3122 23.8344 14.662 23.473 14.7321C23.1115 14.8022 22.7617 14.566 22.6916 14.2045C22.4356 12.8845 21.3394 12.1061 20.0631 12.0149Z" fill="#444444"/>
<path fill-rule="evenodd" clip-rule="evenodd" d="M27.3328 12.0149C26.0594 11.9238 24.7087 12.5339 24.0509 13.9291C23.8939 14.2621 23.4966 14.4048 23.1636 14.2478C22.8306 14.0907 22.6879 13.6935 22.8449 13.3604C23.7658 11.4072 25.6744 10.5596 27.4279 10.6849C29.1785 10.8101 30.8769 11.9224 31.2702 13.9507C31.3403 14.3122 31.1041 14.662 30.7426 14.7321C30.3812 14.8022 30.0313 14.566 29.9613 14.2045C29.7053 12.8845 28.6091 12.1061 27.3328 12.0149Z" fill="#444444"/>
<path fill-rule="evenodd" clip-rule="evenodd" d="M16 12.6343C16.3682 12.6343 16.6666 12.9328 16.6666 13.3009V19.3866C16.6666 19.7548 16.3682 20.0533 16 20.0533C15.6318 20.0533 15.3333 19.7548 15.3333 19.3866V13.3009C15.3333 12.9328 15.6318 12.6343 16 12.6343Z" fill="#444444"/>
<path fill-rule="evenodd" clip-rule="evenodd" d="M16 0.666748C16.3682 0.666748 16.6666 0.965225 16.6666 1.33341V2.25008C16.6666 2.61827 16.3682 2.91675 16 2.91675C15.6318 2.91675 15.3333 2.61827 15.3333 2.25008V1.33341C15.3333 0.965225 15.6318 0.666748 16 0.666748Z" fill="#444444"/>
<path fill-rule="evenodd" clip-rule="evenodd" d="M8.53933 17.5326C6.85435 17.5326 5.48841 18.8985 5.48841 20.5835C5.48841 22.2685 6.85435 23.6344 8.53933 23.6344C10.2243 23.6344 11.5903 22.2685 11.5903 20.5835C11.5903 18.8985 10.2243 17.5326 8.53933 17.5326ZM4.15508 20.5835C4.15508 18.1621 6.11797 16.1992 8.53933 16.1992C10.9607 16.1992 12.9236 18.1621 12.9236 20.5835C12.9236 23.0048 10.9607 24.9677 8.53933 24.9677C6.11797 24.9677 4.15508 23.0048 4.15508 20.5835Z" fill="#444444"/>
<path fill-rule="evenodd" clip-rule="evenodd" d="M23.3842 17.4942C21.6993 17.4942 20.3333 18.8602 20.3333 20.5451C20.3333 22.2301 21.6993 23.5961 23.3842 23.5961C25.0692 23.5961 26.4352 22.2301 26.4352 20.5451C26.4352 18.8602 25.0692 17.4942 23.3842 17.4942ZM19 20.5451C19 18.1238 20.9629 16.1609 23.3842 16.1609C25.8056 16.1609 27.7685 18.1238 27.7685 20.5451C27.7685 22.9665 25.8056 24.9294 23.3842 24.9294C20.9629 24.9294 19 22.9665 19 20.5451Z" fill="#444444"/>
<path fill-rule="evenodd" clip-rule="evenodd" d="M15.9491 23.1217C14.8055 23.1217 13.8785 24.0487 13.8785 25.1923C13.8785 26.3358 14.8055 27.2629 15.9491 27.2629C17.0926 27.2629 18.0197 26.3358 18.0197 25.1923C18.0197 24.0487 17.0926 23.1217 15.9491 23.1217ZM12.5451 25.1923C12.5451 23.3123 14.0691 21.7883 15.9491 21.7883C17.829 21.7883 19.353 23.3123 19.353 25.1923C19.353 27.0722 17.829 28.5962 15.9491 28.5962C14.0691 28.5962 12.5451 27.0722 12.5451 25.1923Z" fill="#444444"/>
<path fill-rule="evenodd" clip-rule="evenodd" d="M3.27384 30.131L3.27443 30.1283C3.27572 30.1223 3.27816 30.1113 3.28188 30.0957C3.28932 30.0643 3.30189 30.0147 3.32074 29.9498C3.35851 29.8197 3.42107 29.6299 3.51743 29.4041C3.711 28.9507 4.03517 28.3661 4.55679 27.8291C5.56404 26.7921 7.41865 25.817 10.8672 26.5693C11.2269 26.6478 11.5821 26.4198 11.6606 26.06C11.7391 25.7003 11.5111 25.3451 11.1514 25.2666C7.30476 24.4275 4.96434 25.4958 3.60036 26.9001C2.93636 27.5837 2.53086 28.3192 2.29116 28.8807C2.17088 29.1624 2.09091 29.4037 2.04031 29.578C2.01497 29.6652 1.99689 29.736 1.98474 29.7871C1.97866 29.8127 1.97405 29.8333 1.97075 29.8487L1.96677 29.8677L1.96547 29.8742L1.96499 29.8766L1.96479 29.8776C1.9647 29.8781 1.96462 29.8785 2.61923 30.0048L1.96462 29.8785C1.89491 30.2401 2.13147 30.5897 2.493 30.6594C2.85428 30.729 3.20363 30.4928 3.27369 30.1317L3.27339 30.1333L3.27357 30.1324L3.27369 30.1317L3.27384 30.131ZM3.27339 30.1333C3.2733 30.1337 3.27328 30.1338 3.27333 30.1336L3.27339 30.1333Z" fill="#444444"/>
<path fill-rule="evenodd" clip-rule="evenodd" d="M16.0904 29.3727C15.1323 29.3699 14.178 29.75 13.5895 30.4755C13.3576 30.7615 12.9377 30.8052 12.6518 30.5733C12.3658 30.3413 12.3221 29.9215 12.554 29.6355C13.4423 28.5405 14.8116 28.0357 16.0942 28.0393C17.3691 28.0429 18.6923 28.5535 19.4218 29.664C19.6239 29.9718 19.5384 30.3851 19.2306 30.5873C18.9229 30.7894 18.5096 30.7038 18.3074 30.3961C17.8911 29.7624 17.0562 29.3754 16.0904 29.3727Z" fill="#444444"/>
<path fill-rule="evenodd" clip-rule="evenodd" d="M21.0635 26.7774L21.0727 26.7738C21.0819 26.7702 21.0971 26.7644 21.1181 26.7567C21.16 26.7413 21.2245 26.7184 21.309 26.691C21.4783 26.636 21.726 26.5634 22.0308 26.4961C22.6444 26.3606 23.4683 26.2515 24.3391 26.3393C25.2056 26.4267 26.1032 26.7069 26.897 27.3372C27.6879 27.9652 28.4235 28.9785 28.907 30.6138C29.0113 30.9669 29.3822 31.1685 29.7353 31.0641C30.0884 30.9598 30.29 30.5889 30.1856 30.2358C29.6378 28.3827 28.766 27.1187 27.7261 26.293C26.6889 25.4695 25.532 25.1195 24.4728 25.0127C23.418 24.9063 22.4452 25.0391 21.7434 25.1941C21.3905 25.272 21.101 25.3567 20.8973 25.4228C20.7954 25.4559 20.7146 25.4844 20.6578 25.5053C20.6293 25.5158 20.6069 25.5244 20.5907 25.5306L20.5712 25.5383L20.5651 25.5407L20.563 25.5416L20.5621 25.5419C20.5618 25.5421 20.5614 25.5422 20.8125 26.1598L20.5614 25.5422C20.2204 25.6808 20.0562 26.0697 20.1949 26.4108C20.3335 26.7517 20.722 26.9159 21.063 26.7776L21.0626 26.7777L21.0623 26.7779C21.0624 26.7778 21.0628 26.7777 21.0634 26.7774L21.0635 26.7774Z" fill="#444444"/>
</g>
<defs>
<linearGradient id="paint0_linear_208_1357" x1="28" y1="12.9211" x2="16.4946" y2="1.54205" gradientUnits="userSpaceOnUse">
<stop stop-color="#89EBBB"/>
<stop offset="1" stop-color="#89EBBB" stop-opacity="0"/>
</linearGradient>
</defs>
</svg>
