<svg width="21" height="21" viewBox="0 0 21 21" fill="none" xmlns="http://www.w3.org/2000/svg">
<g clip-path="url(#clip0_208_1133)">
<path d="M15.7388 10.2312C15.7388 9.93533 15.7174 9.63711 15.6792 9.34357C15.6921 9.43739 15.7049 9.53317 15.7174 9.6266C15.6387 9.05587 15.4873 8.49837 15.2662 7.96812C15.3024 8.05338 15.3386 8.13864 15.3724 8.22157C15.149 7.6956 14.8593 7.19961 14.5101 6.74606C14.5654 6.81848 14.6207 6.88855 14.6764 6.96097C14.3338 6.52026 13.9374 6.12433 13.4948 5.7794C13.5672 5.83468 13.6373 5.88996 13.7097 5.94563C13.2561 5.59642 12.7621 5.30677 12.2342 5.0833C12.3194 5.11951 12.4047 5.15571 12.4876 5.18959C11.9554 4.96807 11.3995 4.81701 10.8292 4.73837C10.923 4.75122 11.0187 4.76406 11.1122 4.77652C10.5224 4.69788 9.92633 4.69788 9.33652 4.77652C9.43034 4.76367 9.52612 4.75083 9.61955 4.73837C9.04882 4.81701 8.49132 4.96845 7.96107 5.18959C8.04633 5.15338 8.13159 5.11717 8.21452 5.0833C7.68855 5.30677 7.19257 5.59642 6.73902 5.94563C6.81143 5.89035 6.8815 5.83507 6.95392 5.7794C6.51321 6.12199 6.11728 6.51832 5.77235 6.96097C5.82763 6.88855 5.88291 6.81848 5.93858 6.74606C5.58937 7.19961 5.29972 7.69366 5.07625 8.22157C5.11246 8.13631 5.14867 8.05105 5.18254 7.96812C4.96102 8.50031 4.80996 9.05626 4.73132 9.6266C4.74417 9.53278 4.75702 9.437 4.76947 9.34357C4.69083 9.93338 4.69083 10.5294 4.76947 11.1192C4.75663 11.0254 4.74378 10.9296 4.73132 10.8362C4.80996 11.4069 4.96141 11.9644 5.18254 12.4947C5.14633 12.4094 5.11012 12.3242 5.07625 12.2412C5.29972 12.7672 5.58937 13.2632 5.93858 13.7167C5.8833 13.6443 5.82802 13.5742 5.77235 13.5018C6.11494 13.9425 6.51127 14.3385 6.95392 14.6834C6.8815 14.6281 6.81143 14.5728 6.73902 14.5172C7.19257 14.8664 7.68661 15.156 8.21452 15.3795C8.12926 15.3433 8.044 15.3071 7.96107 15.2732C8.49326 15.4947 9.04921 15.6458 9.61955 15.7244C9.52573 15.7116 9.42996 15.6987 9.33652 15.6863C9.92633 15.7649 10.5224 15.7649 11.1122 15.6863C11.0184 15.6991 10.9226 15.712 10.8292 15.7244C11.3999 15.6458 11.9574 15.4943 12.4876 15.2732C12.4024 15.3094 12.3171 15.3456 12.2342 15.3795C12.7601 15.156 13.2561 14.8664 13.7097 14.5172C13.6373 14.5724 13.5672 14.6277 13.4948 14.6834C13.9355 14.3408 14.3314 13.9445 14.6764 13.5018C14.6211 13.5742 14.5658 13.6443 14.5101 13.7167C14.8593 13.2632 15.149 12.7691 15.3724 12.2412C15.3362 12.3265 15.3 12.4118 15.2662 12.4947C15.4877 11.9625 15.6387 11.4069 15.7174 10.8362C15.7045 10.93 15.6917 11.0258 15.6792 11.1192C15.7197 10.8253 15.7388 10.5275 15.7388 10.2316C15.7388 9.95907 15.8579 9.67176 16.0495 9.47788C16.2348 9.29257 16.5369 9.15436 16.8032 9.16721C17.0776 9.18006 17.363 9.26921 17.5569 9.47788C17.7484 9.68655 17.8699 9.94194 17.8676 10.2316C17.8633 11.7709 17.3969 13.3337 16.4987 14.59C16.2581 14.9263 15.9985 15.2565 15.7088 15.5543C15.4172 15.8545 15.0976 16.1165 14.7655 16.3695C14.1628 16.8293 13.4901 17.17 12.7812 17.4296C12.0489 17.6979 11.2609 17.8361 10.4838 17.8641C9.70442 17.8941 8.90204 17.796 8.15261 17.583C6.70709 17.1742 5.35306 16.3185 4.3969 15.156C4.13294 14.8345 3.88184 14.4981 3.66655 14.1403C3.44931 13.7782 3.27684 13.3952 3.11722 13.0055C2.82329 12.288 2.67029 11.5214 2.61034 10.7509C2.48887 9.21159 2.88286 7.61268 3.68134 6.29251C4.45646 5.01284 5.62324 3.93132 6.99207 3.31387C7.37944 3.13945 7.77342 2.98178 8.1822 2.86694C8.60149 2.74975 9.02974 2.68396 9.45954 2.63257C10.2495 2.54108 11.0542 2.60065 11.8312 2.75832C12.5721 2.90937 13.3001 3.19279 13.9604 3.55875C14.6098 3.92081 15.2167 4.38916 15.7298 4.92563C16.7775 6.01766 17.5269 7.44021 17.7566 8.94335C17.8228 9.37121 17.8695 9.79712 17.8715 10.2293C17.8715 10.5018 17.7523 10.7891 17.5608 10.983C17.3755 11.1683 17.0734 11.3065 16.8071 11.2936C16.5326 11.2808 16.2472 11.1916 16.0534 10.983C15.8595 10.7766 15.7404 10.5209 15.7384 10.2316L15.7388 10.2312Z" fill="#00A364"/>
<path d="M11.2928 16.8058V19.3947C11.2928 19.6673 11.1737 19.9546 10.9822 20.1485C10.7968 20.3338 10.4947 20.472 10.2284 20.4591C9.95398 20.4463 9.66861 20.3571 9.47474 20.1485C9.28319 19.9398 9.16406 19.6844 9.16406 19.3947V16.8058C9.16406 16.5333 9.28319 16.246 9.47474 16.0521C9.66005 15.8668 9.96216 15.7286 10.2284 15.7414C10.5029 15.7543 10.7883 15.8434 10.9822 16.0521C11.1718 16.2627 11.2928 16.5185 11.2928 16.8058Z" fill="#00A364"/>
<path d="M11.2928 1.06557V3.65451C11.2928 3.92703 11.1737 4.21435 10.9822 4.40823C10.7968 4.59354 10.4947 4.73175 10.2284 4.7189C9.95398 4.70605 9.66861 4.6169 9.47474 4.40823C9.28319 4.19955 9.16406 3.94416 9.16406 3.65451V1.06557C9.16406 0.793053 9.28319 0.505738 9.47474 0.31186C9.66005 0.126546 9.96216 -0.0116596 10.2284 0.0011878C10.5029 0.0140352 10.7883 0.103187 10.9822 0.31186C11.1718 0.520532 11.2928 0.778259 11.2928 1.06557Z" fill="#00A364"/>
<path d="M3.65411 11.2954H1.06517C0.792645 11.2954 0.505331 11.1763 0.311453 10.9847C0.126528 10.799 -0.0120675 10.4969 0.000779838 10.2306C0.0136272 9.95617 0.10278 9.6708 0.311453 9.47692C0.520125 9.28538 0.775515 9.16625 1.06517 9.16625H3.65411C3.92663 9.16625 4.21394 9.28538 4.40782 9.47692C4.59313 9.66224 4.73134 9.96434 4.71849 10.2306C4.70564 10.5051 4.61649 10.7905 4.40782 10.9843C4.1972 11.1739 3.94142 11.295 3.65411 11.295V11.2954Z" fill="#00A364"/>
<path d="M19.3945 11.2954H16.8055C16.533 11.2954 16.2457 11.1763 16.0518 10.9847C15.8665 10.7994 15.7283 10.4973 15.7411 10.231C15.754 9.95656 15.8431 9.67119 16.0518 9.47731C16.2605 9.28577 16.5159 9.16664 16.8055 9.16664H19.3945C19.667 9.16664 19.9543 9.28577 20.1482 9.47731C20.3335 9.66263 20.4717 9.96473 20.4588 10.231C20.446 10.5055 20.3569 10.7909 20.1482 10.9847C19.9395 11.1743 19.6818 11.2954 19.3945 11.2954Z" fill="#00A364"/>
<path d="M11.1398 10.2311C11.1398 10.1416 11.1336 10.0544 11.1227 9.96482C11.1355 10.0586 11.1484 10.1544 11.1608 10.2479C11.1375 10.0773 11.0927 9.91149 11.0265 9.75187C11.0627 9.83713 11.0989 9.92239 11.1328 10.0053C11.0666 9.84997 10.9818 9.70515 10.8817 9.56889C10.937 9.6413 10.9923 9.71138 11.0479 9.78379C10.9393 9.64325 10.8159 9.51984 10.6754 9.41122C10.7478 9.4665 10.8179 9.52178 10.8903 9.57745C10.756 9.47545 10.6092 9.39214 10.4538 9.32635C10.5391 9.36255 10.6244 9.39876 10.7073 9.43263C10.5477 9.36645 10.3814 9.32206 10.2113 9.29832C10.3051 9.31116 10.4009 9.32401 10.4943 9.33647C10.3176 9.31311 10.1408 9.31311 9.96214 9.33647C10.056 9.32362 10.1517 9.31077 10.2452 9.29832C10.0747 9.32167 9.90881 9.36645 9.74919 9.43263C9.83445 9.39642 9.91971 9.36022 10.0026 9.32635C9.8473 9.39253 9.70247 9.4774 9.56621 9.57745C9.63862 9.52217 9.7087 9.46689 9.78111 9.41122C9.64057 9.51984 9.51716 9.64325 9.40854 9.78379C9.46382 9.71138 9.5191 9.6413 9.57478 9.56889C9.47278 9.7032 9.38946 9.84997 9.32367 10.0053C9.35988 9.92005 9.39608 9.83479 9.42995 9.75187C9.36377 9.91149 9.31939 10.0777 9.29564 10.2479C9.30849 10.154 9.32133 10.0583 9.33379 9.96482C9.31043 10.1416 9.31043 10.3183 9.33379 10.497C9.32094 10.4032 9.3081 10.3074 9.29564 10.214C9.319 10.3845 9.36377 10.5504 9.42995 10.71C9.39375 10.6247 9.35754 10.5394 9.32367 10.4565C9.38985 10.6119 9.47472 10.7567 9.57478 10.8929C9.51949 10.8205 9.46421 10.7505 9.40854 10.678C9.51716 10.8186 9.64057 10.942 9.78111 11.0506C9.7087 10.9953 9.63862 10.9401 9.56621 10.8844C9.70053 10.9864 9.8473 11.0697 10.0026 11.1355C9.91737 11.0993 9.83211 11.0631 9.74919 11.0292C9.90881 11.0954 10.075 11.1398 10.2452 11.1635C10.1514 11.1507 10.0556 11.1378 9.96214 11.1254C10.1389 11.1487 10.3156 11.1487 10.4943 11.1254C10.4005 11.1382 10.3047 11.1511 10.2113 11.1635C10.3818 11.1402 10.5477 11.0954 10.7073 11.0292C10.622 11.0654 10.5368 11.1016 10.4538 11.1355C10.6092 11.0693 10.754 10.9844 10.8903 10.8844C10.8179 10.9397 10.7478 10.9949 10.6754 11.0506C10.8159 10.942 10.9393 10.8186 11.0479 10.678C10.9927 10.7505 10.9374 10.8205 10.8817 10.8929C10.9837 10.7586 11.067 10.6119 11.1328 10.4565C11.0966 10.5418 11.0604 10.627 11.0265 10.71C11.0927 10.5504 11.1371 10.3841 11.1608 10.214C11.148 10.3078 11.1351 10.4036 11.1227 10.497C11.1332 10.4075 11.1398 10.3203 11.1398 10.2307C11.1418 9.95626 11.257 9.67284 11.4505 9.47701C11.6358 9.2917 11.9379 9.15349 12.2042 9.16634C12.4787 9.17919 12.764 9.26834 12.9579 9.47701C13.1475 9.68335 13.2709 9.94107 13.2686 10.2307C13.2643 10.8182 13.0981 11.4423 12.7512 11.9211C12.6449 12.0679 12.534 12.2193 12.4063 12.3513C12.2719 12.4895 12.1166 12.6067 11.9632 12.7219C11.7312 12.8964 11.4672 13.0116 11.1947 13.1116C10.6368 13.318 9.96643 13.3203 9.39569 13.1564C8.84637 12.9987 8.29938 12.6733 7.93732 12.226C7.82442 12.0878 7.71152 11.9472 7.61808 11.7938C7.51998 11.6319 7.44756 11.4532 7.37749 11.2764C7.26264 10.9911 7.21553 10.6866 7.19217 10.3802C7.14974 9.80092 7.31364 9.17724 7.61146 8.68125C7.90306 8.19383 8.35467 7.74884 8.87596 7.51253C9.04414 7.43584 9.21661 7.35914 9.3953 7.30814C9.58918 7.25286 9.79124 7.2295 9.9894 7.20809C10.2896 7.17383 10.594 7.21003 10.8899 7.26765C11.1986 7.32722 11.5073 7.45725 11.7775 7.61687C12.0415 7.77454 12.3011 7.97893 12.4993 8.21719C12.627 8.37253 12.757 8.53215 12.8571 8.70695C12.9552 8.87513 13.0296 9.06045 13.0977 9.24148C13.2168 9.55215 13.2639 9.9037 13.2682 10.2358C13.2701 10.5083 13.1491 10.798 12.9575 10.9895C12.7722 11.1748 12.4701 11.313 12.2038 11.3002C11.6245 11.2702 11.1437 10.8275 11.1394 10.2315L11.1398 10.2311Z" fill="#00A364"/>
</g>
<defs>
<clipPath id="clip0_208_1133">
<rect width="20.46" height="20.46" fill="white" transform="matrix(1 0 0 -1 0 20.46)"/>
</clipPath>
</defs>
</svg>
