<svg width="13" height="13" viewBox="0 0 13 13" fill="none" xmlns="http://www.w3.org/2000/svg">
<path d="M1.88556 12.3921C1.53144 12.3921 1.22988 12.2676 0.980891 12.0186C0.731911 11.7696 0.607422 11.468 0.607422 11.1139V1.88604C0.607422 1.53193 0.731911 1.23037 0.980891 0.981379C1.22988 0.7324 1.53166 0.60791 1.88623 0.60791H5.72812C5.86153 0.60791 5.98268 0.662363 6.09159 0.77127C6.2005 0.880188 6.25496 1.00213 6.25496 1.13709C6.25496 1.27467 6.2005 1.39783 6.09159 1.50657C5.98268 1.61533 5.86153 1.6697 5.72812 1.6697H1.88717C1.83269 1.6697 1.78274 1.6924 1.73732 1.73781C1.69192 1.78322 1.66921 1.83317 1.66921 1.88766V11.1123C1.66921 11.1668 1.69192 11.2167 1.73732 11.2622C1.78274 11.3076 1.83269 11.3303 1.88717 11.3303H11.1118C11.1663 11.3303 11.2163 11.3076 11.2617 11.2622C11.3071 11.2167 11.3298 11.1668 11.3298 11.1123V7.27136C11.3298 7.13796 11.3842 7.0168 11.4929 6.9079C11.6017 6.79898 11.7242 6.74452 11.8607 6.74452C11.9971 6.74452 12.1197 6.79898 12.2285 6.9079C12.3372 7.0168 12.3916 7.13796 12.3916 7.27136V11.1133C12.3916 11.4678 12.2671 11.7696 12.0181 12.0186C11.7691 12.2676 11.4676 12.3921 11.1134 12.3921H1.88556ZM4.56171 8.43623C4.44781 8.32459 4.39086 8.2002 4.39086 8.06308C4.39086 7.92596 4.44734 7.80206 4.56029 7.69137L10.582 1.6697H8.47601C8.33843 1.6697 8.21527 1.61533 8.10653 1.50657C7.99779 1.39783 7.94342 1.27524 7.94342 1.13881C7.94342 1.00236 7.99779 0.879763 8.10653 0.771022C8.21527 0.662281 8.33843 0.60791 8.47601 0.60791H11.7589C11.9309 0.60791 12.0793 0.670356 12.2042 0.795247C12.3291 0.92015 12.3916 1.06861 12.3916 1.24063V4.52347C12.3916 4.66105 12.3371 4.78421 12.2282 4.89295C12.1193 5.0017 11.9974 5.05607 11.8624 5.05607C11.7248 5.05607 11.6017 5.0017 11.4929 4.89295C11.3842 4.78421 11.3298 4.66105 11.3298 4.52347V2.41752L5.2926 8.4547C5.19439 8.56095 5.07653 8.61351 4.93902 8.61238C4.80151 8.61125 4.67574 8.55253 4.56171 8.43623Z" fill="#009F69"/>
</svg>
