<svg xmlns="http://www.w3.org/2000/svg" width="24" height="24" viewBox="0 0 24 24">
    <path fill="#00A465" fill-rule="evenodd" d="M19 10l2.666.58a1 1 0 0 1 .775.824L23 15h-2.509c0 1.484-1.069 2.49-2.488 2.49-1.42 0-2.542-1.006-2.542-2.49H8.49c0 1.195-.833 2.49-2.49 2.49-1.657 0-2.453-1.295-2.453-2.49H1v-3.573a1 1 0 0 1 .658-.94L3 10l2.4-3.2A2 2 0 0 1 7 6h8a2 2 0 0 1 1.6.8L19 10zM6.413 7.413L4.53 10H11V7.001H7.221a1 1 0 0 0-.809.412zM12 10h5.593l-1.959-2.6a1 1 0 0 0-.798-.398H12V10zm-6 3.5a1.5 1.5 0 1 0 0 3 1.5 1.5 0 0 0 0-3zm12 0a1.5 1.5 0 1 0 0 3 1.5 1.5 0 0 0 0-3z"/>
</svg>
