<svg xmlns="http://www.w3.org/2000/svg" width="24" height="24" viewBox="0 0 24 24">
    <path fill="#00A465" fill-rule="evenodd" d="M18.192 12.064a.5.5 0 0 1 .744.437c.817 0 1.225.447 1.225 1.34 0 .895-.306 1.68-.92 2.354 0 1.535-1.603 5.234-6.728 5.234s-6.718-3.875-6.718-5.234c-.841-.506-1.224-1.29-1.149-2.353.075-1.063.527-1.51 1.354-1.341a.5.5 0 0 1 .705-.456c2.027.913 3.79 1.201 5.808 1.201 2.007 0 4.069-.282 5.68-1.182zM12.977 3.26l.273.064 8.23 2.108c.527.135.56.746.115.955l-.095.036-.6.158v1.752c.121.06.21.122.237.225l.008.067v.397c0 .135-.054.21-.17.272l-.075.037.137 1.02c.042.126-.25.394-.672.394-.384 0-.701-.221-.71-.356l.008-.038.128-1.02c-.139-.045-.238-.117-.267-.233l-.008-.076v-.397c0-.12.09-.193.204-.255l.071-.037V6.851l-.958.246v2.696c0 .465-.32.87-.81 1.042l-.127.039-2.042.522c-2.11.54-4.328.575-6.452.102l-.423-.102-2.041-.522c-.52-.133-.88-.512-.931-.966L6 9.793V7.314l-3.48-.89c-.527-.136-.56-.762-.098-.958l.099-.034 8.208-2.108a5.002 5.002 0 0 1 2.248-.064z"/>
</svg>
