<svg xmlns="http://www.w3.org/2000/svg" width="24" height="24" viewBox="0 0 24 24">
    <path fill="#00A465" fill-rule="evenodd" d="M10.854 10.62l1.67 5.026a.5.5 0 0 0 .889.122L15.28 13l4.587-.013a19.33 19.33 0 0 1-.01.013H21.5a.5.5 0 1 1 0 1h-2.502C17.233 15.953 14.8 18.145 12 21c-2.8-2.855-5.233-5.047-6.998-7H2.5a.5.5 0 1 1 0-1h1.643l-.005-.006 4.855-.013a.5.5 0 0 0 .412-.22l1.45-2.14zM17 3c2.826 0 5 2.173 5 5.063 0 1.363-.497 2.62-1.384 3.923L15.012 12a.5.5 0 0 0-.413.22l-1.447 2.145-1.669-5.024a.5.5 0 0 0-.888-.122l-1.87 2.762-5.333.015C2.5 10.69 2 9.43 2 8.063 2 5.172 4.174 3 7 3c2.17 0 4.256 1.426 5 3.375C12.744 4.426 14.828 3 17 3z"/>
</svg>
