<svg xmlns="http://www.w3.org/2000/svg" width="24" height="24" viewBox="0 0 24 24">
    <path fill="#00A465" fill-rule="evenodd" d="M14.5 13l-.236.868h-1.212c.22.297.358.66.416 1.088H14.5l-.236.868h-.78c-.062.652-.303 1.143-.724 1.473-.421.33-1.006.494-1.756.494l2.53 3.143V21H12.37l-2.721-3.39-.005-.687h1.278c.428-.004.775-.103 1.042-.3a1.29 1.29 0 0 0 .508-.799H9.5l.236-.868h2.726c-.164-.696-.667-1.059-1.51-1.088H9.51L9.752 13H14.5zM12 2a.5.5 0 0 1 .5.5l.002.527c.22.014.397.03.532.047C17.522 3.643 22 7.87 22 13c-.975-1.327-1.964-1.99-2.965-1.99-1.002-.001-2.011.662-3.03 1.99-1.793-1.327-3.129-1.99-4.005-1.99-1.333 0-2.666.663-3.999 1.99-.9-1.328-1.917-1.992-3.05-1.99-1.132 0-2.116.664-2.951 1.99 0-5.145 4.5-9.381 9.005-9.931a9 9 0 0 1 .493-.043L11.5 2.5A.5.5 0 0 1 12 2z"/>
</svg>
