<svg xmlns="http://www.w3.org/2000/svg" width="24" height="24" viewBox="0 0 24 24">
    <path fill="#00A465" fill-rule="evenodd" d="M12 2a.5.5 0 0 1 .5.5l.002.527c.22.014.397.03.532.047C17.522 3.643 22 7.87 22 13c-.975-1.327-1.964-1.99-2.965-1.99-1.002-.001-2.011.662-3.03 1.99-1.48-1.095-2.647-1.738-3.502-1.93v8.915c0 1.03-1 1.988-2.01 1.988-1.01 0-1.993-.958-1.993-1.988v-.498a.502.502 0 1 1 1.004 0v.498c0 .553.516 1.03.99 1.03.473 0 1.01-.477 1.01-1.03V11.04c-1.168.144-2.335.798-3.503 1.96-.9-1.328-1.917-1.992-3.05-1.99-1.132 0-2.116.664-2.951 1.99 0-5.145 4.5-9.381 9.005-9.931a9 9 0 0 1 .493-.043L11.5 2.5A.5.5 0 0 1 12 2z"/>
</svg>
