<svg xmlns="http://www.w3.org/2000/svg" width="24" height="24" viewBox="0 0 24 24">
    <path fill="#00A465" fill-rule="evenodd" d="M20 8a2 2 0 0 1 2 2v8a2 2 0 0 1-2 2H4a2 2 0 0 1-2-2v-8a2 2 0 0 1 2-2h16zm-5.5 2H9.752l-.242.868h1.443c.786.027 1.276.345 1.472.953l.037.135H9.736l-.236.868h2.972a1.29 1.29 0 0 1-.508.8c-.229.168-.517.265-.864.292l-.178.007H9.644l.005.687 2.72 3.39h1.166v-.066l-2.53-3.143c.749 0 1.334-.165 1.755-.494.374-.293.606-.714.696-1.261l.028-.212h.78l.236-.868h-1.032a2.418 2.418 0 0 0-.313-.934l-.103-.154h1.212L14.5 10zm3.5 3.058a1 1 0 1 0 0 2 1 1 0 0 0 0-2zM6 13a1 1 0 1 0 0 2 1 1 0 0 0 0-2zm13.5-7a.5.5 0 1 1 0 1h-15a.5.5 0 0 1 0-1h15zm-2-2a.5.5 0 1 1 0 1h-11a.5.5 0 0 1 0-1h11z"/>
</svg>
