<svg xmlns="http://www.w3.org/2000/svg" xmlns:xlink="http://www.w3.org/1999/xlink" width="493" height="389" viewBox="0 0 493 389">
    <defs>
        <path id="a" d="M.004 43.713c0 23.949 19.414 43.363 43.362 43.363s43.363-19.414 43.363-43.363C86.729 19.765 67.314.351 43.366.351S.004 19.765.004 43.713"/>
        <path id="c" d="M.004 43.713c0 23.949 19.414 43.363 43.362 43.363s43.363-19.414 43.363-43.363C86.729 19.765 67.314.351 43.366.351S.004 19.765.004 43.713"/>
        <path id="e" d="M.004 43.713c0 23.949 19.414 43.363 43.362 43.363s43.363-19.414 43.363-43.363C86.729 19.765 67.314.351 43.366.351S.004 19.765.004 43.713z"/>
        <path id="g" d="M.004 43.713c0 23.949 19.414 43.363 43.362 43.363s43.363-19.414 43.363-43.363C86.729 19.765 67.314.351 43.366.351S.004 19.765.004 43.713"/>
        <path id="i" d="M.004 43.713c0 23.949 19.414 43.363 43.362 43.363s43.363-19.414 43.363-43.363C86.729 19.765 67.314.351 43.366.351S.004 19.765.004 43.713z"/>
        <path id="k" d="M.004 43.713c0 23.949 19.414 43.363 43.362 43.363s43.363-19.414 43.363-43.363C86.729 19.765 67.314.351 43.366.351S.004 19.765.004 43.713z"/>
        <path id="m" d="M.004 43.713c0 23.949 19.414 43.363 43.362 43.363s43.363-19.414 43.363-43.363C86.729 19.765 67.314.351 43.366.351S.004 19.765.004 43.713"/>
        <path id="o" d="M.004 43.713c0 23.949 19.414 43.363 43.362 43.363s43.363-19.414 43.363-43.363C86.729 19.765 67.314.351 43.366.351S.004 19.765.004 43.713"/>
        <path id="q" d="M.004 43.713c0 23.949 19.414 43.363 43.362 43.363s43.363-19.414 43.363-43.363C86.729 19.765 67.314.351 43.366.351S.004 19.765.004 43.713"/>
        <path id="s" d="M.004 43.713c0 23.949 19.414 43.363 43.362 43.363s43.363-19.414 43.363-43.363C86.729 19.765 67.314.351 43.366.351S.004 19.765.004 43.713"/>
        <path id="u" d="M.004 43.713c0 23.949 19.414 43.363 43.362 43.363s43.363-19.414 43.363-43.363C86.729 19.765 67.314.351 43.366.351S.004 19.765.004 43.713"/>
        <path id="w" d="M.004 43.713c0 23.949 19.414 43.363 43.362 43.363s43.363-19.414 43.363-43.363C86.729 19.765 67.314.351 43.366.351S.004 19.765.004 43.713"/>
        <path id="y" d="M.004 43.713c0 23.949 19.414 43.363 43.362 43.363s43.363-19.414 43.363-43.363C86.729 19.765 67.314.351 43.366.351S.004 19.765.004 43.713"/>
        <path id="A" d="M.004 43.713c0 23.949 19.414 43.363 43.362 43.363s43.363-19.414 43.363-43.363C86.729 19.765 67.314.351 43.366.351S.004 19.765.004 43.713"/>
        <path id="C" d="M.004 43.713c0 23.949 19.414 43.363 43.362 43.363s43.363-19.414 43.363-43.363C86.729 19.765 67.314.351 43.366.351S.004 19.765.004 43.713"/>
        <path id="E" d="M.004 43.713c0 23.949 19.414 43.363 43.362 43.363s43.363-19.414 43.363-43.363C86.729 19.765 67.314.351 43.366.351S.004 19.765.004 43.713"/>
        <path id="G" d="M.004 43.713c0 23.949 19.414 43.363 43.362 43.363s43.363-19.414 43.363-43.363C86.729 19.765 67.314.351 43.366.351S.004 19.765.004 43.713"/>
        <path id="I" d="M.004 43.713c0 23.949 19.414 43.363 43.362 43.363s43.363-19.414 43.363-43.363C86.729 19.765 67.314.351 43.366.351S.004 19.765.004 43.713"/>
        <path id="K" d="M.004 43.713c0 23.949 19.414 43.363 43.362 43.363s43.363-19.414 43.363-43.363C86.729 19.765 67.314.351 43.366.351S.004 19.765.004 43.713"/>
        <path id="M" d="M.004 43.713c0 23.949 19.414 43.363 43.362 43.363s43.363-19.414 43.363-43.363C86.729 19.765 67.314.351 43.366.351S.004 19.765.004 43.713"/>
        <path id="O" d="M.004 43.713c0 23.949 19.414 43.363 43.362 43.363s43.363-19.414 43.363-43.363C86.729 19.765 67.314.351 43.366.351S.004 19.765.004 43.713"/>
        <path id="Q" d="M.004 43.713c0 23.949 19.414 43.363 43.362 43.363s43.363-19.414 43.363-43.363C86.729 19.765 67.314.351 43.366.351S.004 19.765.004 43.713z"/>
        <path id="S" d="M.004 43.713c0 23.949 19.414 43.363 43.362 43.363s43.363-19.414 43.363-43.363C86.729 19.765 67.314.351 43.366.351S.004 19.765.004 43.713"/>
        <path id="U" d="M7.5 4A5.5 5.5 0 0 0 2 9.5c0 .52.088 1.019.219 1.5H6.3l1.27-3.367c.305-.807 1.484-.883 1.864 0L11.5 13l.588-1.424a.985.985 0 0 1 .912-.58h8.781c.13-.481.219-.98.219-1.5a5.5 5.5 0 0 0-5.5-5.5A5.507 5.507 0 0 0 12 6.34a5.506 5.506 0 0 0-4.5-2.344V4zM3 12.5c-.554 0-1 .446-1 1s.446 1 1 1h2.438L11 20c1 .898 1 .898 2 0l5.563-5.5H21c.554 0 1-.446 1-1s-.446-1-1-1h-7.6l-.926 2.3c-.406 1.01-1.552.869-1.92.026L8.5 9.5l-.958 2.328c-.156.377-.492.672-.942.672H3z"/>
        <path id="V" d="M9.767 6.638c-.053.004-.106.01-.159.018a.51.51 0 0 1-.14-1.012c.07-.01.14-.017.21-.024a.51.51 0 1 1 .09 1.017m-1.453.492c-1.578.972-2.28 2.998-2.288 3.018a.51.51 0 0 1-.967-.328c.034-.098.832-2.397 2.72-3.56a.51.51 0 1 1 .535.87m4.347-2.92V2.57a.513.513 0 0 0-1.026 0v1.643c-3.5.234-7.226 2.637-8.238 7.58a2.508 2.508 0 0 1 1.628-.582h.006c1.057.001 1.887.439 2.395 1.245a2.927 2.927 0 0 1 2.394-1.26c.713 0 1.406.283 1.948.754l.004.004v7.006c.012.217-.032.859-.371 1.223-.188.202-.448.303-.798.31a.878.878 0 0 1-.698-.29 1.196 1.196 0 0 1-.333-.863.513.513 0 0 0-.489-.537.52.52 0 0 0-.536.488 2.225 2.225 0 0 0 .623 1.626c.377.389.878.602 1.414.602h.039c.636-.013 1.153-.229 1.535-.644.693-.752.646-1.853.64-1.944v-7.022c.502-.446 1.171-.685 1.977-.685.047 0 .096 0 .145.002.856.03 1.548.487 2.001 1.306.516-.84 1.369-1.308 2.465-1.335a2.715 2.715 0 0 1 1.41.325c-.699-3.01-2.668-7.09-8.135-7.311"/>
    </defs>
    <g fill="none" fill-rule="evenodd">
        <path fill="#A3CCFC" fill-opacity=".5" d="M493 381.5c0 4.142-110.356 7.5-246.497 7.5C110.363 389 0 385.642 0 381.5c0-4.142 110.363-7.5 246.503-7.5S493 377.358 493 381.5"/>
        <path stroke="#ED9A26" stroke-linecap="round" stroke-linejoin="round" d="M84.098 47.304c-.974.328-1.938.671-2.896 1.029"/>
        <path stroke="#ED9A26" stroke-dasharray="4.999,4.999" stroke-linecap="round" stroke-linejoin="round" d="M76.041 51.149c-15.727 8.47-28.035 23.196-32.928 41.84-9.361 35.666 11.96 72.172 47.621 81.535 33.465 8.788 67.667-9.448 79.489-41.203"/>
        <path fill="#ED9A26" d="M84.218 52.71a.537.537 0 0 1-.07-.756l5.237-6.314-7.934-2.07a.535.535 0 1 1 .272-1.038l8.749 2.284a.537.537 0 0 1 .276.86l-5.775 6.964a.538.538 0 0 1-.756.07"/>
        <path stroke="#ED9A26" stroke-dasharray="4.988,4.988" stroke-linecap="round" stroke-linejoin="round" d="M172.587 29.09c0-15.79-12.8-28.59-28.59-28.59-15.789 0-28.59 12.8-28.59 28.59 0 15.788 12.802 28.588 28.59 28.588 15.79 0 28.59-12.8 28.59-28.589z"/>
        <path fill="#E3FDFF" d="M153.729 105.904c0-23.95-19.414-43.362-43.362-43.362-23.95 0-43.363 19.413-43.363 43.362s19.414 43.362 43.363 43.362c23.948 0 43.362-19.413 43.362-43.362"/>
        <path fill="#FFF" d="M159.939 105.904c0-27.378-22.194-49.573-49.572-49.573-27.38 0-49.574 22.195-49.574 49.573s22.194 49.573 49.574 49.573c27.377 0 49.572-22.195 49.572-49.573"/>
        <g transform="translate(67 62.19)">
            <mask id="b" fill="#fff">
                <use xlink:href="#a"/>
            </mask>
            <path fill="#1A30DC" d="M40.41 89.773c12.217 0 23.309-1.461 31.19-9.59C68.51 71.832 62.218 64.097 52.17 62c-15.107-3.155-19.612-.923-19.612-.923s-7.711 1.77-13.647 6.639c-3.89 3.189-6.681 5.999-8.152 7.563 7.762 7.31 18.149 14.494 29.652 14.494" mask="url(#b)"/>
        </g>
        <g transform="translate(67 62.19)">
            <mask id="d" fill="#fff">
                <use xlink:href="#c"/>
            </mask>
            <path fill="#2440E4" d="M34.992 57.986s-7.339-1.2-4.362 4.156c2.977 5.354 18.22 2.923 21.298 1.37 3.076-1.55 5.344-6.416-.985-6.416-6.328 0-15.95.89-15.95.89" mask="url(#d)"/>
        </g>
        <g transform="translate(67 62.19)">
            <mask id="f" fill="#fff">
                <use xlink:href="#e"/>
            </mask>
            <path fill="#FFD9D9" d="M33.355 51.173s1.048 5.24.492 9.354c0 0 6.003 2.922 17.096-.42 0 0-.972-8.174-.323-11.591l-17.265 2.657z" mask="url(#f)"/>
        </g>
        <g transform="translate(67 62.19)">
            <mask id="h" fill="#fff">
                <use xlink:href="#g"/>
            </mask>
            <path fill="#FFC7C7" d="M33.978 59.05l9.388-3.593-9.903-3.678c.216 1.27.663 4.354.515 7.27" mask="url(#h)"/>
        </g>
        <g transform="translate(67 62.19)">
            <mask id="j" fill="#fff">
                <use xlink:href="#i"/>
            </mask>
            <path fill="#364759" d="M23.535 23.474s.427 7.183 3.491 9.709c3.064 2.525.654-9.461.654-9.461l-4.145-.248z" mask="url(#j)"/>
        </g>
        <g transform="translate(67 62.19)">
            <mask id="l" fill="#fff">
                <use xlink:href="#k"/>
            </mask>
            <path fill="#364759" d="M59.329 24.163s-.68 7.724-2.35 10.39c-1.67 2.666-1.54-9.177-1.54-9.177l3.89-1.213z" mask="url(#l)"/>
        </g>
        <g transform="translate(67 62.19)">
            <mask id="n" fill="#fff">
                <use xlink:href="#m"/>
            </mask>
            <path fill="#FFE6E6" d="M25.72 24.58s-.65 5.767.235 12.648c.885 6.88 4.525 15.135 11.669 17.929 7.145 2.795 15.109-2.104 18.099-10.476 2.99-8.373 1.095-20.001 1.095-20.001s-21.142-5.794-31.097-.1" mask="url(#n)"/>
        </g>
        <g transform="translate(67 62.19)">
            <mask id="p" fill="#fff">
                <use xlink:href="#o"/>
            </mask>
            <path fill="#FFDCDC" d="M27.275 26.552c.059-.937.119-1.478.119-1.478.6-.343 1.244-.64 1.919-.903a52.144 52.144 0 0 0-2.038 2.38M56.83 24.76l-.013-.081s-4.443-1.215-10.21-1.985c-2.918-2.436-14.573-1.433-14.573-1.433s-.624.639-1.467 1.54c-1.78.396-3.43.968-4.847 1.779 0 0-.164 1.453-.216 3.77-.855.12-2.278.713-2.71 3.259-.621 3.656.235 9.93 3.978 9.674 1.59 5.786 5.075 11.615 10.85 13.874.562.219 1.129.375 1.696.5-.007-.001-.014-.002-.022-.005-7.144-2.795-10.784-11.05-11.67-17.93-.443-3.446-.5-6.612-.447-8.915 1.528.133 4.058.086 4.684-1.557 1.825 1.825 4.99 0 4.99 0s5.555 4.167 9.794-1.724c.766-1.064.77-1.88.275-2.508 4.218.49 7.89 1.267 9.908 1.742" mask="url(#p)"/>
        </g>
        <g transform="translate(67 62.19)">
            <mask id="r" fill="#fff">
                <use xlink:href="#q"/>
            </mask>
            <path fill="#FFE6E6" d="M57.063 29.748s2.45-1.121 3.402 2.023c.953 3.144-.852 8.112-4.598 9.329-3.744 1.216 1.197-11.352 1.197-11.352" mask="url(#r)"/>
        </g>
        <g transform="translate(67 62.19)">
            <mask id="t" fill="#fff">
                <use xlink:href="#s"/>
            </mask>
            <path fill="#212D3D" d="M55.626 48.942l-.043-.012a1.129 1.129 0 0 1-.781-1.388l4.781-17.106a1.128 1.128 0 0 1 1.387-.782l.043.012c.596.167.948.791.781 1.387l-4.78 17.108a1.13 1.13 0 0 1-1.388.781" mask="url(#t)"/>
        </g>
        <g transform="translate(67 62.19)">
            <mask id="v" fill="#fff">
                <use xlink:href="#u"/>
            </mask>
            <path fill="#212D3D" d="M31.735 25.453s-2.357 2.814-6.099 1.015c-3.74-1.8-3.153-6.339-2.682-8.189 0 0-1.19-1.246-.098-4.532 1.091-3.286 7.444-8.409 13.735-5.542 3.784-4.038 11.266-3.976 17.57.064 7.182 4.602 6.257 10.263 6.257 10.263s3.136 9.598-4.227 8.26c0 0-5.7 3.066-9.543-1.266 0 0-4.717 4.062-9.585.49 0 0-2.722 2.03-5.328-.563" mask="url(#v)"/>
        </g>
        <g transform="translate(67 62.19)">
            <mask id="x" fill="#fff">
                <use xlink:href="#w"/>
            </mask>
            <path fill="#152230" d="M36.592 8.205c-6.291-2.867-12.645 2.256-13.736 5.542-1.092 3.286.098 4.532.098 4.532-.471 1.85-1.06 6.389 2.683 8.189 3.742 1.799 6.099-1.015 6.099-1.015 2.606 2.593 5.328.563 5.328.563 2.286 1.678 4.532 1.665 6.279 1.186-2.623-.741-4.055-3.297-4.055-3.297s-.208 1.791-2.916.833c-2.707-.958-2.416-3.082-2.416-3.082s-3.54 4.082-5.331 1.541c-1.791-2.541.5-3.791.5-3.791s-5.623 1.083-3.75-4.623c1.876-5.706 11.217-6.578 11.217-6.578" mask="url(#x)"/>
        </g>
        <g transform="translate(67 62.19)">
            <mask id="z" fill="#fff">
                <use xlink:href="#y"/>
            </mask>
            <path fill="#FFC7C7" d="M42.19 30.906s-1.93 10.366-1.77 10.771c.161.405 4.447.316 4.258.116-.19-.199-3.405-.483-3.392-.962.012-.48.904-9.925.904-9.925" mask="url(#z)"/>
        </g>
        <g transform="translate(67 62.19)">
            <mask id="B" fill="#fff">
                <use xlink:href="#A"/>
            </mask>
            <path fill="#FFC7C7" d="M40.88 51.06c.733 1.192 2.54 1.62 3.39.304.1-.153-.055-.412-.246-.34-1.036.386-2.075.639-3.063-.04-.046-.032-.11.029-.08.076" mask="url(#B)"/>
        </g>
        <g transform="translate(67 62.19)">
            <mask id="D" fill="#fff">
                <use xlink:href="#C"/>
            </mask>
            <path fill="#4F3C2F" d="M30.189 31.566c1.578-.21 3.184-.416 4.776-.463 1.28-.038 2.554.104 3.821-.119.445-.078.414-.72.023-.849-2.656-.873-6.213-.113-8.79.741-.44.146-.281.75.17.69" mask="url(#D)"/>
        </g>
        <g transform="translate(67 62.19)">
            <mask id="F" fill="#fff">
                <use xlink:href="#E"/>
            </mask>
            <path fill="#4F3C2F" d="M54.838 31.246c-2.42-.867-6.164-2.17-8.66-1.085-.33.144-.203.593.073.704 1.152.458 2.494.282 3.72.404 1.56.154 3.117.354 4.65.684.463.1.669-.545.217-.707" mask="url(#F)"/>
        </g>
        <g transform="translate(67 62.19)">
            <mask id="H" fill="#fff">
                <use xlink:href="#G"/>
            </mask>
            <path fill="#4F3C2F" d="M33.965 34.627c.175.41.67.599 1.082.555A1.101 1.101 0 0 0 36 33.834c-.147-.594-.748-.922-1.333-.806-.283.057-.514.258-.672.488-.236.345-.183.752-.03 1.11" mask="url(#H)"/>
        </g>
        <g transform="translate(67 62.19)">
            <mask id="J" fill="#fff">
                <use xlink:href="#I"/>
            </mask>
            <path fill="#4F3C2F" d="M32.454 34.003a4.135 4.135 0 0 1 2.096-.637c.713-.02 1.293.267 1.971.385.132.023.255-.123.147-.236-1.122-1.168-3.282-.631-4.403.228-.146.112.034.357.19.26" mask="url(#J)"/>
        </g>
        <g transform="translate(67 62.19)">
            <mask id="L" fill="#fff">
                <use xlink:href="#K"/>
            </mask>
            <path fill="#4F3C2F" d="M49.787 35.555c.438-.074.746-.48.813-.894a1.1 1.1 0 0 0-1.046-1.276c-.613-.017-1.088.475-1.131 1.07-.021.293.114.573.302.788.268.309.68.375 1.062.312" mask="url(#L)"/>
        </g>
        <g transform="translate(67 62.19)">
            <mask id="N" fill="#fff">
                <use xlink:href="#M"/>
            </mask>
            <path fill="#4F3C2F" d="M52.206 34.355c-1.044-.951-3.152-1.662-4.368-.595-.087.076-.03.258.095.248.651-.057 1.248-.286 1.916-.233a4.144 4.144 0 0 1 2.153.83c.147.109.34-.126.204-.25" mask="url(#N)"/>
        </g>
        <g transform="translate(67 62.19)">
            <mask id="P" fill="#fff">
                <use xlink:href="#O"/>
            </mask>
            <path fill="#FF9C9C" d="M37.084 45.038s7.266-.23 10.724.66c0 0-6.898 8.495-10.724-.66" mask="url(#P)"/>
        </g>
        <g transform="translate(67 62.19)">
            <mask id="R" fill="#fff">
                <use xlink:href="#Q"/>
            </mask>
            <path fill="#FFD9D9" d="M61.363 53.15s-.836-3.227-1.264-3.935c-.227-.376-2.202-.93-2.69-4.525-.486-3.597-1.598-2.238-2.021-3.956-.703-2.857 2.194-9.797 3.874-9.15 1.68.647 5.457 4.28 5.817 6.758.359 2.477 2.193 12.822 2.193 12.822l-5.91 1.987z" mask="url(#R)"/>
        </g>
        <g transform="translate(67 62.19)">
            <mask id="T" fill="#fff">
                <use xlink:href="#S"/>
            </mask>
            <path fill="#2440E4" d="M82.52 92.901c-1.808 1.533-4.665 2.193-8.323-.872-5.338-4.474-14.585-41.568-14.585-41.568l7.829-3.553s13.217 21.754 15.99 31.21c2.309 7.863 2.404 11.973-.91 14.783" mask="url(#T)"/>
        </g>
        <g>
            <path fill="#ED9A26" d="M164.769 29.09c0-11.473-9.3-20.772-20.771-20.772-11.472 0-20.771 9.3-20.771 20.771s9.299 20.771 20.77 20.771c11.473 0 20.772-9.3 20.772-20.77"/>
            <path fill="#FFF" d="M141.95 41.957c-.367-.367-.55-.894-.55-1.581v-.604c0-.686.183-1.213.55-1.581.367-.366.894-.55 1.581-.55h.461c.687 0 1.214.184 1.581.55.368.368.551.895.551 1.58v.605c0 .687-.183 1.214-.55 1.58-.368.369-.895.552-1.582.552h-.46c-.688 0-1.215-.183-1.582-.551m.231-12.221c.402-.414.911-.621 1.527-.621 1.563 0 2.82-.367 3.766-1.101.947-.734 1.421-1.871 1.421-3.411 0-1.184-.426-2.167-1.279-2.948-.853-.781-1.918-1.172-3.197-1.172-1.303 0-2.45.438-3.446 1.314-.568.52-1.16.78-1.776.78a1.88 1.88 0 0 1-1.208-.425c-.616-.473-.924-1.03-.924-1.67 0-.544.225-1.041.676-1.491a9.051 9.051 0 0 1 3.001-2.043 9.353 9.353 0 0 1 3.677-.73c1.61 0 3.078.369 4.405 1.103a8.383 8.383 0 0 1 3.162 3.037 8.048 8.048 0 0 1 1.172 4.245c0 2.274-.652 4.074-1.954 5.4-1.303 1.327-3.032 2.155-5.187 2.486-.118.048-.177.107-.177.178v1.315c0 .616-.202 1.13-.604 1.545-.403.415-.912.622-1.528.622s-1.125-.207-1.527-.622c-.403-.414-.605-.93-.605-1.545v-2.7c0-.616.202-1.131.605-1.546M122.395 44.3a4.326 4.326 0 1 0-8.652 0 4.326 4.326 0 0 0 8.652 0M111.922 52.198a2.646 2.646 0 1 0-5.292.001 2.646 2.646 0 0 0 5.292 0"/>
            <path stroke="#ED9A26" stroke-linecap="round" stroke-linejoin="round" d="M179.886 73.853a4.228 4.228 0 1 0-8.456 0 4.228 4.228 0 0 0 8.456 0zM92.376 17.591h8.997M96.875 22.09v-8.997M50.324 159.946l6.362 6.361M50.324 166.308l6.362-6.361M384.183 20.315a76.276 76.276 0 0 0-2.228-1.132"/>
            <path stroke="#ED9A26" stroke-dasharray="5.233000000000001,5.233" stroke-linecap="round" stroke-linejoin="round" d="M377.182 17.044c-15.024-6.153-32.01-7.752-48.78-3.66"/>
            <path stroke="#ED9A26" stroke-linecap="round" stroke-linejoin="round" d="M325.878 14.044c-.801.223-1.6.459-2.398.708M371.954 165.917a82.084 82.084 0 0 0 2.362-.816"/>
            <path stroke="#ED9A26" stroke-dasharray="4.894,4.894" stroke-linecap="round" stroke-linejoin="round" d="M378.864 163.288c36.716-15.95 56.251-57.357 44.047-96.434a79.647 79.647 0 0 0-7.513-16.89"/>
            <path stroke="#ED9A26" stroke-linecap="round" stroke-linejoin="round" d="M414.126 47.89c-.448-.704-.906-1.4-1.374-2.086"/>
            <path fill="#ED9A26" d="M379.963 168.24a.5.5 0 0 0-.367-.604l-7.433-1.812 4.784-5.97a.5.5 0 1 0-.78-.625l-5.275 6.582a.5.5 0 0 0 .272.799l8.195 1.997a.498.498 0 0 0 .604-.367"/>
            <path fill="#FFF" d="M405.874 90.52c0-32.437-26.295-58.732-58.729-58.732-32.437 0-58.732 26.295-58.732 58.731s26.295 58.73 58.732 58.73c32.434 0 58.73-26.294 58.73-58.73"/>
            <path fill="#FFF" d="M400.98 90.52c0-29.733-24.104-53.837-53.835-53.837-29.733 0-53.836 24.104-53.836 53.836s24.103 53.835 53.836 53.835c29.73 0 53.835-24.103 53.835-53.835"/>
            <path fill="#FF9C9C" d="M347.145 144.355c12.692 0 24.352-4.404 33.556-11.752-1.69-7.278-6.826-20.457-22.261-26.127l-18.55-.52s-21.65 2.983-26.02 26.866c9.159 7.215 20.709 11.532 33.275 11.532"/>
            <path fill="#212121" d="M357.701 104.192s4.158 2.065 8.374.53 9.19-4.498 7.168-10.749c-2.02-6.25 1.385-7.559 2.693-10.252 1.308-2.692.394-4.333-1.577-5.762-1.972-1.429-2.41-2.18-2.41-2.18s2.871-1.694 1.64-5.772c-1.23-4.078-3.976-4.319-4.95-9.906-.974-5.587-4.327-13.97-14.597-9.907 0 0-3.609-4.889-12.9-3.665-9.293 1.224-9.54 13.618-15.524 16.788-5.982 3.17-9.35 8.808-4.376 14.066 0 0-4.727 3.945-2.646 10.258 2.08 6.314 6.456 1.112 8.71 11.877 2.255 10.767 17.797 1.34 17.797 1.34l12.598 3.334z"/>
            <path fill="#4F3C2F" d="M322.227 91.595c-7.337-5.13-.984-14.211-.984-14.211s-4.727 3.945-2.647 10.258c.9 2.73 2.23 3.307 3.63 3.953"/>
            <path fill="#212121" d="M340.758 96.684c-4.534 4.534-9.724 1.15-15.875-3.21.916 1.104 1.762 2.883 2.424 6.044 2.022 9.658 14.728 3.071 17.326 1.611 0-3.52-.6-7.722-3.875-4.445M353.38 60.871s-.603 3.924-7.643 2.385c-7.04-1.539-8.693 2.308-8.693 2.308s12.04 3.578 13.926 2.655c1.885-.924 2.86-6.309 2.41-7.348"/>
            <path fill="#212121" d="M336.505 93.724c9.464 3.77-6.473-19.433-6.473-19.433s-.798.314-2.298.314c0 0-.692 15.349 8.77 19.119"/>
            <path fill="#FFD9D9" d="M339.99 96.684s.147 8.583-.226 10.236c0 0 2.306 14.21 9.403 20.212 8.595-7.73 9.401-20.807 9.401-20.807l-.438-8.659-18.14-.982z"/>
            <path fill="#FFC7C7" d="M339.992 96.885c.018 1.122.094 7.091-.139 9.393l9.314-4.346-7.43-5.154-1.333-.072-.412.18z"/>
            <path fill="#FFE6E6" d="M330.032 74.29s.856 14.085 5.008 19.495c4.058 5.287 10.554 10.427 15.32 9.194 4.765-1.234 10.357-6.264 12.67-12.11 2.312-5.847 3.325-17.493 3.325-17.493s-1.2-1.44-1.296-3.008c-.094-1.567-.577-3.52-2.775-4.306-2.197-.786-7.929-2.35-8.903-5.19 0 0-1.604 5.066-7.335 3.533-5.733-1.533-9.306-.891-9.927 1.66-.62 2.553-2.038 7.43-6.087 8.226"/>
            <path fill="#FFDCDC" d="M345.045 66.218c2.96 0 4.724-1.178 5.692-2.183-1.111.613-2.63.92-4.691.37-5.732-1.534-9.306-.892-9.927 1.66-.62 2.552-2.038 7.43-6.087 8.225 0 0 .857 14.085 5.008 19.494 3.039 3.96 7.446 7.837 11.469 9.016-2.068-1.122-5.279-3.542-8.154-8.615-4.71-8.309-4.312-18.367-4.312-18.367 4.463-1.48 5.848-9.6 11.002-9.6"/>
            <path fill="#4F3C2F" d="M335.472 75.085c1.044-1.451 2.64-2.414 4.46-2.438 1.575-.022 2.655.85 4.034 1.385.3.118.583-.284.417-.54-.993-1.533-3.37-1.949-5.066-1.645-1.798.322-3.251 1.508-4.188 3.038-.137.221.197.404.343.2M340.223 77.691c.212.46.779.66 1.247.598a1.252 1.252 0 0 0 1.04-1.563c-.183-.67-.878-1.025-1.54-.874-.318.072-.574.308-.747.575-.258.4-.186.861 0 1.264"/>
            <path fill="#4F3C2F" d="M338.485 77.03a4.712 4.712 0 0 1 2.363-.79c.81-.044 1.48.263 2.253.375.15.022.286-.147.158-.272-1.31-1.293-3.749-.615-4.997.396-.162.132.05.405.223.29M340.016 79.701c.899.026 1.86.12 2.744-.088.105-.024.11-.197 0-.219-.892-.17-1.846-.039-2.744.023-.181.013-.185.28 0 .284M362.371 74.885c-.938-1.53-2.389-2.716-4.189-3.038-1.703-.304-4.07.11-5.066 1.644-.165.255.114.66.417.542 1.407-.547 2.402-1.425 4.033-1.386 1.825.042 3.41.974 4.462 2.439.147.203.48.02.343-.201M356.514 78.253c.496-.097.834-.568.896-1.041a1.25 1.25 0 0 0-1.23-1.418c-.696 0-1.221.574-1.25 1.252-.016.333.147.646.366.885.316.343.785.406 1.218.322"/>
            <path fill="#4F3C2F" d="M359.227 76.814c-1.217-1.048-3.635-1.791-4.983-.54-.097.09-.028.294.116.278.737-.085 1.408-.363 2.17-.323a4.7 4.7 0 0 1 2.473.876c.17.12.383-.155.224-.29M355.397 79.408c.716.005 1.541.121 2.243-.032.101-.022.103-.183 0-.205-.702-.154-1.526-.038-2.243-.033-.173.001-.173.27 0 .27"/>
            <path fill="#FFC7C7" d="M352.578 86.28s-3.379 1.433-5.578.42c-.268-.122-.432-.676-.355-1.221l1.22-8.595-.403 7.327c-.03.566.158 1.223.43 1.305 1.208.362 4.294.764 4.686.764"/>
            <path fill="#FF9C9C" d="M354.405 89.582s-11.316.203-11.428.314c-.11.11 1.933 4 5.021 4.694 3.087.691 4.908-4.043 6.407-5.008"/>
            <path fill="#FFC7C7" d="M353.843 88.464c-.067.968.319 2.039 1.28 2.396.134.05.217-.134.132-.225-.596-.633-1.154-1.267-1.227-2.171-.01-.118-.176-.12-.185 0"/>
            <path fill="#ED9A26" d="M305.746 4.223h-23.999c-6.983 0-12.697 5.713-12.697 12.697v7.759c0 6.983 5.714 12.697 12.697 12.697h13.557c4.016 1.64 13.941 5.697 13.941 5.697l-2.414-5.752c6.48-.556 11.611-6.025 11.611-12.642v-7.76c0-6.983-5.714-12.696-12.696-12.696"/>
            <path fill="#FFF" d="M285.195 20.8a3.263 3.263 0 1 0-6.526 0 3.263 3.263 0 0 0 6.526 0M297.009 20.8a3.263 3.263 0 1 0-6.526 0 3.263 3.263 0 0 0 6.526 0M308.822 20.8a3.262 3.262 0 1 0-6.525-.002 3.262 3.262 0 0 0 6.525.001"/>
        </g>
        <g>
            <path stroke="#ED9A26" stroke-linecap="round" stroke-linejoin="round" d="M395.794 183.154a4.086 4.086 0 1 0-4.086 4.087 4.086 4.086 0 0 0 4.086-4.087zM276.74 62.174h8.696M281.088 66.523v-8.697M430.503 120.143l6.436 6.436M430.503 126.58l6.436-6.437"/>
            <path fill="#313F54" d="M425.538 367.552H41.776a6.777 6.777 0 1 0 0 13.554h383.762a6.777 6.777 0 0 0 0-13.554"/>
            <path fill="#313F54" d="M85.798 381.19h6.941V229.383h-6.941zM151.048 381.19h6.941V268.001h-6.941zM307.611 381.19h6.941V268.001h-6.941zM368.314 381.19h6.941V229.383h-6.941z"/>
            <path fill="#FFDCDC" d="M200.621 101.825s3.42-5.866 7.057-7.608c1.557.673-1.829 4.493-2.088 7.608-.259 3.115-2.527 9.26-4.63 10.567-2.106 1.308-.339-10.567-.339-10.567"/>
            <path fill="#FFE6E6" d="M258.656 86.198c-.587 4.87-2.839 8.82-4.867 8.82-2.029 0-2.267-5.953-2.267-9.195 0-5.662 2.02-6.72 4.048-6.72s3.474 3.875 3.086 7.095"/>
            <path fill="#FFDCDC" d="M204.07 86.198c.587 4.87 2.839 8.82 4.867 8.82 2.029 0 2.266-5.953 2.266-9.195 0-5.662-2.02-6.72-4.048-6.72s-3.473 3.875-3.085 7.095"/>
            <path fill="#FFD9D9" d="M216.293 105.414c-.142.764.436 1.449.736 2.166.26.623.312 1.31.362 1.983l.228 3.114c.098 1.34-.084 2.69-.236 4.028-.107.948-.34 1.894-.267 2.846.112 1.456.922 2.753 1.709 3.984 1.044 1.632 2.111 3.29 3.588 4.544.844.716 1.803 1.283 2.772 1.82 1.164.645 3.515 3.785 4.785 4.18 2.25.697 3.526-1.84 5.826-2.346 1.477-.326 2.929-.864 4.147-1.76 1.617-1.188 2.729-2.924 3.804-4.62l2.763-4.355c.206-.324.416-.661.479-1.04.062-.367-.021-.74-.096-1.105-.601-2.885-.943-6.236.031-11.356-2.366.607-5.215 2.768-7.654 2.646-3.673-.183-7.344.278-11.019.37-3.676.092-7.464-.214-10.772-1.821"/>
            <path fill="#FFC7C7" d="M217.415 109.89l.204 2.787c.098 1.34-.083 2.69-.235 4.027-.107.949-.341 1.894-.268 2.847.112 1.456.923 2.753 1.71 3.984.075.118.153.235.229.354l15.732-6.004-17.372-7.995z"/>
            <path fill="#FFE6E6" d="M253.14 89c0 14.313-10.327 29.38-22.037 29.38-11.71 0-22.197-15.067-22.197-29.38 0-14.314-.34-26.57 22.197-26.57 24.43 0 22.038 12.256 22.038 26.57"/>
            <path fill="#FFDCDC" d="M222.542 63.207c-13.871 2.9-13.636 13.596-13.636 25.793 0 13.372 9.154 27.397 19.906 29.184-5.514-1.938-12.119-8.803-14.916-18.034-3.295-10.88 0-26.17 0-26.17s6.382-.096 10.297-.949c3.913-.853 9.99-4.719 9.99-4.719-1.698-2.878-6.722-4.351-11.641-5.104"/>
            <path fill="#FF9C9C" d="M221.82 101.37s9.566-1.107 18.99.45c0 0-3.013 7.604-9.687 7.604-6.675 0-9.076-6.798-9.303-8.054"/>
            <path fill="#364759" d="M207.605 64.573s-.784 8.512.252 14.58c0 0 1.05 1.048 1.802 8.527 0 0 .45-2.66.801-4.138.351-1.476 1.999-11.714 2.185-14.532.161-2.458-5.04-4.437-5.04-4.437M250.263 72.936s.575 5.922 2.624 14.32c1.086-3.317.26-6.488 1.986-7.71 0 0 .39-7.038-1.113-11.294-.64-4.256-3.497 4.684-3.497 4.684"/>
            <path fill="#FFC7C7" d="M229.981 112.147c.936 1.435 3.162 1.897 4.158.259.116-.192-.082-.503-.314-.409-1.254.508-2.518.851-3.749.055-.058-.038-.133.037-.095.095"/>
            <path fill="#000" d="M248.715 73.454c.025 0 .025-.039 0-.039s-.025.04 0 .04"/>
            <path fill="#FFC7C7" d="M230.61 126.427c.47 1.019 1.289 2.833 2.6 2.939.457.037.797-.16 1.066-.52.239-.321.398-.72.584-1.074.165-.315.44-1.254.59-1.438.285-.35-.332-.644-.435-.254-.12.446-.517.746-.725 1.152-.11.212-.211.427-.317.64-.243.487-.141.523-.797.493-.573-.025-.533-.01-.853-.353-.14-.151-.278-.306-.42-.457-.374-.406-.727-.82-1.053-1.268a.139.139 0 0 0-.24.14"/>
            <path fill="#4F3C2F" d="M216.792 80.722c1.922-.31 3.882-.615 5.83-.727 1.563-.089 3.128.042 4.67-.273.542-.11.482-.896 0-1.04-3.28-.979-7.606.07-10.73 1.202-.534.192-.32.927.23.838M246.941 79.504c-2.99-.98-7.614-2.45-10.631-1.037-.4.187-.23.733.112.858 1.424.523 3.06.263 4.566.37 1.915.136 3.825.329 5.713.68.567.107.8-.688.24-.871"/>
            <path fill="#FFC7C7" d="M235.964 97.939s-4.42.671-7.297.034a.614.614 0 0 1-.464-.77l1.594-5.413-.525 4.614a.661.661 0 0 0 .561.732c1.583.228 5.618.803 6.131.803"/>
            <path stroke="#7C6556" stroke-linecap="round" stroke-linejoin="round" d="M206.254 85.786c0-17.489 8.941-30.673 24.782-30.673 16.101 0 24.781 13.184 24.781 30.673"/>
            <path fill="#775D4B" d="M207.362 81.39s-1.35.356-1.602 1.264c-.25.908-.698 10.015-.083 11.177.616 1.163 3.361 2.164 3.992 2.164.631 0-2.307-14.606-2.307-14.606M254.778 81.39s1.351.356 1.602 1.264c.25.908.698 10.015.082 11.177-.616 1.163-3.362 2.164-3.993 2.164-.629 0 2.31-14.606 2.31-14.606"/>
            <path stroke="#564031" stroke-linecap="round" stroke-linejoin="round" stroke-width=".75" d="M244.323 107.205s5.932-2.737 6.781-3.288c.85-.55 2.742-9.855 2.742-9.855"/>
            <path fill="#775D4B" d="M245.406 106.125s.202.958-.22 1.347c-.423.39-5.277 2.964-6.094 2.86-.819-.103-2.176-1.617-2.362-2.023-.186-.407 8.676-2.184 8.676-2.184"/>
            <path fill="#564031" d="M237.009 108.285s2.546.192 3.209.52c.664.329-.742 1.44-1.076 1.36-.333-.08-1.908-1.291-2.133-1.88"/>
            <path fill="#212D3D" d="M202.501 58.07s.786 14.118 15.338 14.118c10.834 0 13.216-6.02 21.89-3.162 0 0 7.145-3.596 8.196-8.85.79-3.95-6.046-13.375-16.87-8.586-10.481 4.636-20.925 7.763-24.408 5.378 0 0-.368 2.418 1.586 3.766 0 0-1.762.267-5.732-2.664"/>
            <path fill="#131E2B" d="M217.839 72.188c10.834 0 13.216-6.02 21.89-3.164 0 0 .073-.037.176-.092.025-.105.06-.207.073-.316.67-6.347-9.761-9.031-16.22-5.563-4.97 2.667-11.018 1.52-11.018 1.52 2.629 1.8 11.76.382 11.76.382s-1.973 1.732-10 2.203c-8.028.47-11.998-9.089-11.998-9.089s.785 14.118 15.337 14.118"/>
            <path fill="#212D3D" d="M239.729 69.025s3.403 4.031 8.622 4.82c5.688.858 6.13-2.606 6.13-2.606s2.06-12.23-6.556-10.784c-7.146 1.2-8.196 8.57-8.196 8.57"/>
            <path fill="#564031" d="M205.596 91.234h-.056a.92.92 0 0 1-.918-.918v-5.294a.92.92 0 0 1 .918-.918h.056c.504 0 .918.413.918.918v5.294a.921.921 0 0 1-.918.918M256.626 91.234h-.056a.92.92 0 0 1-.918-.918v-5.294a.92.92 0 0 1 .918-.918h.056a.92.92 0 0 1 .918.918v5.294a.92.92 0 0 1-.918.918"/>
            <path fill="#131E2B" d="M239.729 69.025s1.064 5.602 11.6 4.748c0 0-8.977-.63-11.351-5.157 0 0-.25.094-.25.41"/>
            <path fill="#0AB775" d="M274.007 135.08c-6.21-3.61-23.021-11.096-23.021-11.096-8.293 10.998-18.914 8.835-18.914 8.835s-11.084 2.163-19.378-8.835c0 0-14.691 6.604-20.9 10.215-6.21 3.61 7.749 85.93 7.749 85.93H261.642s12.365-77.547 12.365-85.049"/>
            <path fill="#0B935F" d="M230.594 146.625l-4.431-5.925-3.17 2.48s-8.965-8.486-10.3-19.195l8.95 5.514 8.95 8.013v9.113z"/>
            <path fill="#86B5AD" d="M274.007 135.08s18.617 49.678 27.077 70.534c-9.215 14.094-22.364 7.646-30.277-15.526-7.913-23.17-10.78-44.11-10.78-44.11l13.98-10.898z"/>
            <path fill="#313F54" d="M225.546 136.656s3.007 6.392 4.043 9.36c0 0 3.375.554 4.897-.039 0 0 3.303-7.132 5.23-9.06l-7.644-4.098-6.526 3.837z"/>
            <path fill="#FFF" d="M216.83 118.296s3.65 10.76 15.01 14.523l-7.504 7.547s-7.605-3.232-11.642-16.382l4.137-5.688zM246.85 118.296s-3.65 10.76-15.01 14.523l7.505 7.88s7.606-3.565 11.642-16.715l-4.136-5.688z"/>
            <path fill="#0AB775" d="M187.904 136.311s-16.052 11.268-22.58 27.443c-6.53 16.175-1.306 23.888 6.263 24.63 7.568.741 30.957-32.362 30.957-32.362l-14.64-19.711z"/>
            <path fill="#313F54" d="M229.59 146.016s-5.09 52.688-5.09 54.237c0 1.55 7.571 19.877 7.571 19.877s7.323-13.875 8.635-18.773c1.311-4.896-6.22-55.38-6.22-55.38"/>
            <path fill="#FFE6E6" d="M185.716 122.788s6.566-7.025 5.56-11.738c-1.057-4.954 1.89-12.445 3.72-14.86 1.832-2.414 10.219-13.192 10.573-12.384 2.308 5.274-5.142 12.08-3.024 21.097 1.737 7.4-7.737 24.35-7.737 20.99 0 .949-9.092-3.105-9.092-3.105"/>
            <path fill="#0AB775" d="M164.944 186.61c2.881 2.442 7.433 3.493 13.258-1.39 8.504-7.127 23.235-66.214 23.235-66.214l-12.472-5.661s-21.054 34.653-25.473 49.715c-3.676 12.526-3.828 19.073 1.452 23.55"/>
            <path fill="#E3FDFF" d="M184.262 121.3l12.93 5.996-13.595-4.85z"/>
            <path fill="#C9F1F2" d="M197.489 121.972a1.622 1.622 0 1 0-3.245 0 1.622 1.622 0 0 0 3.245 0"/>
            <path fill="#FFE6E6" d="M240.497 202.35c-15.356-1.029-15.37-.76-13.593-.76-2.269 0-19.787 7.133-22.48 11.173-2.694 4.04 6.7 4.027 9.813 3.128 3.115-.899 8.378-2.516 8.378-2.516s6.738 2.181 11.91 1.141c5.17-1.04 11.072-1.906 11.072-1.906l-5.1-10.26z"/>
            <path fill="#0AB775" d="M300.51 203.113c1.245 3.144.833 7.307-4.98 10.848-8.482 5.17-58.718 1.35-58.718 1.35l-1.515-15.067s30.363-5.113 45.652-5.113c11.689 0 17.277 2.219 19.56 7.982"/>
            <path fill="#C9F1F2" d="M248.459 198.23l-.345 14.685-1.205-14.463zM242.482 208.708a1.621 1.621 0 1 0-3.243 0 1.621 1.621 0 0 0 3.243 0"/>
            <g fill="#FFF">
                <path d="M248.466 81.768v3.339c0 1.364-1.335 5.854-1.335 5.854s-6.315.595-9.46 0c-3.144-.595-3.728-.901-3.728-.901s-1.234-5.955-.631-8.542c0 0 13.986-.167 15.154.25"/>
                <path d="M238.58 82.686l-4.397-.193v1.111l4.396.167zM238.58 84.043l-4.397-.063v.362l4.396.055zM214.5 81.768v3.339c0 1.364 1.335 5.854 1.335 5.854s6.317.595 9.46 0c3.145-.595 3.729-.901 3.729-.901s1.234-5.955.63-8.542c0 0-13.986-.167-15.154.25"/>
                <path d="M215.64 82.686l4.397-.193v1.111l-4.396.167zM215.64 84.043l4.397-.063v.362l-4.396.055z"/>
            </g>
            <path fill="#4F3C2F" d="M216.254 90.564c1.23.086 7.644.637 12.425-.415.17-1.052.946-5.193.607-8.129-1.707-.137-9.412-.253-14.43.224-.13 1.112-.329 4.506 1.398 8.32m4.203 1.226c-2.303 0-4.36-.343-4.502-.355l-.224-.018-.118-.192c-2.877-4.667-1.626-9.268-1.588-9.471l.061-.326.33-.034c5.736-.616 15.212-.24 15.304-.232l.351.033.051.349c.518 3.62-.577 8.85-.615 9.052l-.05.288-.286.066c-2.882.676-6.182.84-8.714.84M247.843 82.244c-5.02-.477-12.724-.361-14.431-.224-.34 2.937.438 7.078.607 8.129 4.78 1.052 11.196.5 12.425.416 1.726-3.815 1.53-7.21 1.399-8.321m-14.316 8.706l-.285-.066-.052-.288c-.036-.203-1.132-5.432-.614-9.053l.05-.348.352-.032c.092-.008 9.568-.384 15.305.23l.329.036.06.325c.039.202 1.29 4.803-1.587 9.47l-.118.192-.224.019c-.14.012-2.2.355-4.502.355-2.532 0-5.832-.165-8.714-.84"/>
            <path fill="#4F3C2F" d="M229.654 83.003h3.321v-1.02h-3.321zM248.453 83.087l5.71-2.702-.29.796s-5.42 3.816-5.42 3.672v-1.766zM214.059 83.087l-5.563-2.631.142.725s5.42 3.816 5.42 3.672v-1.766z"/>
            <path fill="#775D4B" d="M221.682 85.553c.228.496.839.711 1.343.644a1.347 1.347 0 0 0 1.12-1.682c-.2-.723-.945-1.103-1.658-.94-.344.077-.62.331-.805.618-.277.43-.2.926 0 1.36"/>
            <path fill="#775D4B" d="M219.813 84.84a5.079 5.079 0 0 1 2.543-.85c.87-.045 1.59.284 2.424.406.161.024.308-.16.172-.294-1.411-1.391-4.036-.661-5.38.427-.175.142.053.436.24.312M241.07 86.158c.534-.104.897-.611.966-1.12.106-.795-.51-1.526-1.323-1.526-.75 0-1.315.617-1.347 1.347-.017.359.158.696.394.953.34.369.845.437 1.31.346"/>
            <path fill="#775D4B" d="M243.991 84.61c-1.31-1.13-3.912-1.929-5.363-.583-.105.097-.03.317.123.3.795-.09 1.517-.39 2.337-.348a5.07 5.07 0 0 1 2.663.942c.182.13.41-.165.24-.312M221.46 87.717c.966.028 2.001.128 2.951-.094.114-.027.12-.213 0-.236-.96-.184-1.986-.043-2.952.024-.195.014-.197.3 0 .306M239.87 87.401c.77.005 1.658.13 2.413-.035.11-.024.11-.197 0-.22-.755-.165-1.643-.04-2.414-.035-.187.001-.187.29 0 .29"/>
            <path fill="#212D3D" d="M193.975 222.368l-21.276 22.414s.483 21.456 26.819 19.955c26.375-1.502 48.417-1.062 65.42 2.163 17.003 3.225 27.058-18.176 27.058-18.176l-16.503-26.356h-81.518z"/>
            <path fill="#14202D" d="M264.995 257.776c-13.423-11.723-49.635-1.998-56.03-14.578-6.396-12.578-23.174-11.11-23.174-11.11v-1.098l-2.85 3.003c-2.499 4.48-4.79 13.199-6.572 21.525 3.452 5.106 10.147 9.96 23.15 9.219 26.374-1.502 48.415-1.063 65.418 2.163 2.452.464 4.751.404 6.904-.016-.815-2.532-2.8-5.575-6.846-9.108"/>
            <path fill="#AA6739" d="M144.804 272.371h175.087v-8.744H144.804z"/>
            <path fill="#FFE6E6" d="M194.727 334.956l3.114 20.062 15.681-2.767-2.076-18.565z"/>
            <path fill="#313F54" d="M198.035 351.149s-4.746 9.338-4.746 13.534c0 4.197 2.077 9.758 3.56 11.33 1.483 1.575 19.28.63 22.94-1.048 3.657-1.678 1.482-9.967 0-13.22-1.484-3.251-6.49-11.187-7.503-12.53-1.344-1.783-10-4.711-14.25 1.934"/>
            <path fill="#212D3D" d="M201.26 375.197c-1.483-1.573-3.56-7.134-3.56-11.33 0-4.197 4.747-13.534 4.747-13.534 1.04-1.626 2.344-2.676 3.739-3.313-2.847-.107-6.041.832-8.151 4.129 0 0-4.746 9.338-4.746 13.534 0 4.198 2.077 9.758 3.56 11.33 1.382 1.468 16.922.747 21.997-.715-6.625.852-16.498 1.054-17.586-.101"/>
            <path fill="#DDA568" d="M221.702 368.83c-10.837 5.062-24.036 2.887-27.272 2.239.717 2.224 1.647 4.126 2.419 4.946 1.483 1.574 19.28.628 22.94-1.05 1.855-.851 2.207-3.403 1.913-6.135"/>
            <path fill="#313F54" d="M190.759 342.359l-19.287-88.24c0-17.446 6.556-18.628 14.542-19.74 7.986-1.113 15.374 4.106 16.418 11.598l13.033 93.556"/>
            <path fill="#212D3D" d="M176.863 254.12c0-16.987 6.216-18.556 13.915-19.653a15.325 15.325 0 0 0-4.764-.088c-7.986 1.112-14.542 2.295-14.542 19.74l19.287 88.24 5.259-.601-19.155-87.638z"/>
            <path fill="#FFE6E6" d="M269.24 334.956l-3.115 20.062-15.68-2.767 2.074-18.565z"/>
            <path fill="#313F54" d="M265.93 351.149s4.747 9.338 4.747 13.534c0 4.197-2.076 9.758-3.56 11.33-1.483 1.575-19.28.63-22.94-1.048-3.657-1.678-1.482-9.967 0-13.22 1.484-3.251 6.49-11.187 7.503-12.53 1.344-1.783 9.999-4.711 14.25 1.934"/>
            <path fill="#212D3D" d="M248.67 374.965c-3.658-1.679-1.482-9.968 0-13.22 1.484-3.252 6.491-11.187 7.503-12.529.524-.697 2.168-1.566 4.226-1.974-3.85-.84-7.841.81-8.719 1.974-1.012 1.342-6.019 9.277-7.502 12.53-1.484 3.251-3.658 11.54 0 13.22 2.643 1.211 12.661 2.04 18.581 1.813-5.567-.166-12.041-.876-14.089-1.814"/>
            <path fill="#DDA568" d="M242.265 368.83c10.837 5.062 24.035 2.887 27.27 2.239-.715 2.224-1.646 4.126-2.417 4.946-1.484 1.574-19.281.628-22.94-1.05-1.854-.851-2.207-3.403-1.913-6.135"/>
            <path fill="#313F54" d="M248.793 339.718l12.233-93.664c.98-7.5 8.324-12.78 16.32-11.737 7.994 1.044 15.658 6.386 13.838 19.351l-19.327 89.848"/>
            <path fill="#212D3D" d="M252.922 339.718l12.234-93.664c.81-6.208 5.986-10.885 12.278-11.723l-.088-.014c-7.996-1.044-15.34 4.237-16.32 11.737l-12.233 93.664 23.065 3.798.14-.657-19.076-3.14z"/>
            <path fill="#AA6739" d="M73.912 234.229h314.104V214.76H73.912z"/>
            <path fill="#313F54" d="M351.019 135.508h-92.772a4.474 4.474 0 0 0-4.474 4.474v57.62a4.474 4.474 0 0 0 4.474 4.475h92.772a4.474 4.474 0 0 0 4.474-4.474v-57.621a4.474 4.474 0 0 0-4.474-4.474"/>
            <path fill="#212D3D" d="M353.795 198.81h-92.772a4.473 4.473 0 0 1-4.473-4.474v-57.622c0-.307.03-.607.09-.896a4.463 4.463 0 0 0-2.867 4.163v57.622a4.473 4.473 0 0 0 4.473 4.474h92.773a4.474 4.474 0 0 0 4.382-3.578c-.5.194-1.038.31-1.606.31"/>
            <path fill="#61758E" d="M331.798 147.387h-54.332a.765.765 0 0 1-.763-.763c0-.42.344-.762.763-.762h54.332c.42 0 .764.343.764.762 0 .42-.344.763-.764.763M331.798 150.828h-54.332a.765.765 0 0 1-.763-.762c0-.42.344-.763.763-.763h54.332c.42 0 .764.343.764.763a.765.765 0 0 1-.764.762M331.798 154.27h-54.332a.765.765 0 0 1-.763-.763c0-.419.344-.762.763-.762h54.332c.42 0 .764.343.764.762 0 .42-.344.763-.764.763"/>
            <path fill="#212D3D" d="M297.267 170.838l.604 31.238h10.1z"/>
            <path fill="#313F54" d="M297.267 170.838h16.182l18.388 43.942h-24.763z"/>
            <path fill="#313F54" d="M350.13 214.78h-61.838c-.996 0-1.81-.813-1.81-1.81v-.111c0-.996.814-1.81 1.81-1.81h61.838c.996 0 1.812.814 1.812 1.81v.11c0 .998-.816 1.812-1.812 1.812M271.407 214.78H160.781a1.816 1.816 0 0 1-1.812-1.81v-.111c0-.996.815-1.81 1.812-1.81h110.626c.996 0 1.812.814 1.812 1.81v.11c0 .998-.816 1.812-1.812 1.812M98.719 215.058h54.905v-7.771H98.719z"/>
            <path fill="#617A99" d="M95.439 207.288h54.905v-4.325H95.439zM111.929 212.657h25.839v-3.076h-25.839z"/>
        </g>
        <circle cx="409" cy="145" r="19" fill="#FFF" fill-rule="nonzero"/>
        <circle cx="401" cy="29" r="19" fill="#FFF" fill-rule="nonzero"/>
        <circle cx="45" cy="73" r="19" fill="#FFF" fill-rule="nonzero"/>
        <g transform="translate(390 16)">
            <use fill="#00A465" xlink:href="#U"/>
        </g>
        <g transform="translate(32 60)">
            <use fill="#00A465" xlink:href="#V"/>
        </g>
        <g fill="#00A465">
            <path d="M402.364 147.06a1.83 1.83 0 0 1 1.848 1.849 1.83 1.83 0 0 1-1.848 1.848 1.83 1.83 0 0 1-1.848-1.848 1.83 1.83 0 0 1 1.848-1.848zm13.307 0a1.83 1.83 0 0 1 1.849 1.849 1.83 1.83 0 0 1-1.849 1.848 1.83 1.83 0 0 1-1.848-1.848 1.83 1.83 0 0 1 1.848-1.848zm-4.177-7.392c.56 0 1.09.264 1.408.74l1.955 2.956c.708.738 1.042.738 1.852 1.002s1.614.158 2.05.334c.292.118.482.412.572.882v2.218c0 .407-.333.74-.74.74h-.358a2.569 2.569 0 0 0-2.562-2.219H415.634a2.586 2.586 0 0 0-2.55 2.218h-8.158a2.566 2.566 0 0 0-2.32-2.206l-.026-.002-.09-.007a2.604 2.604 0 0 0-.25 0l-.092.007-.027.002a2.566 2.566 0 0 0-2.318 2.206h-.58a.568.568 0 0 1-.555-.554v-1.664c0-.88.17-1.484.51-1.81.508-.49 1.042-.408 1.375-.962l1.848-2.994a1.814 1.814 0 0 1 1.553-.887h7.54zM404.027 141c-.49 0-1.025.667-1.606 2H407v-2h-2.973zm3.973 2h5.181c-.593-1.333-1.138-2-1.636-2H408v2z"/>
        </g>
    </g>
</svg>
