<svg xmlns="http://www.w3.org/2000/svg" width="24" height="24" viewBox="0 0 24 24">
    <path fill="#00A465" fill-rule="evenodd" d="M9.156 13.391c.62.142 1.558.496 2.465.839.894.338 1.816.686 2.526.867l.255.06.093.019c.24.048.688.138.823.343.018.028.075.115.029.332-.047.102-.33.64-1.834.561-1.332-.21-2.316-.553-2.339-.56a.498.498 0 0 0-.334.937c.235.084 5.788 2.02 8.97-.514.949-.757 1.454-.823 1.67-.795a.47.47 0 0 1 .332.203c.154.207.167.512.031.777-.496.974-2.185 3.292-7.128 3.774-4.736.462-7.504-.826-8.66-1.562l.009-.092.004-.092v-3.917c.652-.66 1.68-1.5 3.088-1.18zm-5.274-1.14c.087 0 .174.01.26.03.506.113.87.529.923 1.033l.007.128v5.046c0 .071-.006.142-.019.21l-.022.103-.041.123a1.198 1.198 0 0 1-1.06.753l-.13-.001-.422-.03a1.181 1.181 0 0 1-.822-.412 1.177 1.177 0 0 1-.286-.738l.004-.136.422-5.018a1.191 1.191 0 0 1 1.186-1.09zm13-6.465A3.218 3.218 0 0 1 20.095 9a3.218 3.218 0 0 1-3.215 3.214 3.217 3.217 0 0 1-3.198-3.525 3.207 3.207 0 0 1 1.025-2.05 3.217 3.217 0 0 1 2.173-.853zm-5.373-2.672c1.474 0 2.715.997 3.094 2.351A4.208 4.208 0 0 0 12.672 9c0 .107.008.21.015.315a3.181 3.181 0 0 1-1.178.227 3.218 3.218 0 0 1-3.214-3.214 3.218 3.218 0 0 1 3.214-3.214z"/>
</svg>
