<svg xmlns="http://www.w3.org/2000/svg" width="24" height="24" viewBox="0 0 24 24">
    <path fill="#00A465" fill-rule="evenodd" d="M22 21v2H2v-2h20zM6 11v8H4v-8h2zm14 0v8h-2v-8h2zm-5.5 0l-.236.868h-1.212c.22.297.358.66.416 1.088H14.5l-.236.868h-.78c-.062.652-.303 1.143-.724 1.473-.421.33-1.006.494-1.756.494l2.53 3.143V19H12.37l-2.721-3.39-.005-.687h1.278c.428-.004.775-.103 1.042-.3a1.29 1.29 0 0 0 .508-.799H9.5l.236-.868h2.726c-.164-.696-.667-1.059-1.51-1.088H9.51L9.752 11H14.5zM12 4.003c3.15 0 5.826 1 8.027 2.998H22v1.993H2V7h1.997C6.182 5.002 8.85 4.003 12 4.003zM15 1v2h-2.5v1.003h-1v-3l.5-.001V1h3z"/>
</svg>
