<?xml version="1.0" standalone="no"?>
<!DOCTYPE svg PUBLIC "-//W3C//DTD SVG 1.1//EN" "http://www.w3.org/Graphics/SVG/1.1/DTD/svg11.dtd" >
<svg xmlns="http://www.w3.org/2000/svg">
<metadata>Generated by IcoMoon</metadata>
<defs>
<font id="icomoon" horiz-adv-x="1024">
<font-face units-per-em="1024" ascent="960" descent="-64" />
<missing-glyph horiz-adv-x="1024" />
<glyph unicode="&#x20;" horiz-adv-x="512" d="" />
<glyph unicode="&#xe600;" glyph-name="facebook" d="M672 768c-88.366 0-160-71.634-160-160v-96h-128v-128h128v-448h128v448h144l32 128h-176v96c0 17.672 14.326 32 32 32h160v128h-160z" />
<glyph unicode="&#xe601;" glyph-name="twitter" d="M1024 765.582c-37.676-16.708-78.164-28.002-120.66-33.080 43.372 26 76.686 67.17 92.372 116.23-40.596-24.078-85.556-41.56-133.41-50.98-38.32 40.83-92.922 66.34-153.346 66.34-116.022 0-210.088-94.058-210.088-210.078 0-16.466 1.858-32.5 5.44-47.878-174.6 8.764-329.402 92.4-433.018 219.506-18.084-31.028-28.446-67.116-28.446-105.618 0-72.888 37.088-137.192 93.46-174.866-34.438 1.092-66.832 10.542-95.154 26.278-0.020-0.876-0.020-1.756-0.020-2.642 0-101.788 72.418-186.696 168.522-206-17.626-4.8-36.188-7.372-55.348-7.372-13.538 0-26.698 1.32-39.528 3.772 26.736-83.46 104.32-144.206 196.252-145.896-71.9-56.35-162.486-89.934-260.916-89.934-16.958 0-33.68 0.994-50.116 2.94 92.972-59.61 203.402-94.394 322.042-94.394 386.422 0 597.736 320.124 597.736 597.744 0 9.108-0.206 18.168-0.61 27.18 41.056 29.62 76.672 66.62 104.836 108.748z" />
<glyph unicode="&#xe602;" glyph-name="inr" horiz-adv-x="513" d="M513.143 682.286v-58.286q0-8-5.143-13.143t-13.143-5.143h-96q-13.143-82.286-73.714-133.714t-157.714-62.857q95.429-101.714 262.286-306.286 8-9.143 2.286-19.429-4.571-10.286-16.571-10.286h-111.429q-9.143 0-14.286 6.857-174.857 209.714-284.571 326.286-5.143 5.143-5.143 12.571v72.571q0 7.429 5.429 12.857t12.857 5.429h64q75.429 0 121.429 24.571t58.571 71.429h-244q-8 0-13.143 5.143t-5.143 13.143v58.286q0 8 5.143 13.143t13.143 5.143h236q-32.571 64.571-153.143 64.571h-82.857q-7.429 0-12.857 5.429t-5.429 12.857v76q0 8 5.143 13.143t13.143 5.143h475.429q8 0 13.143-5.143t5.143-13.143v-58.286q0-8-5.143-13.143t-13.143-5.143h-133.143q26.857-34.857 36.571-82.286h97.714q8 0 13.143-5.143t5.143-13.143z" />
<glyph unicode="&#xe603;" glyph-name="close" d="M810 664.667l-238-238 238-238-60-60-238 238-238-238-60 60 238 238-238 238 60 60 238-238 238 238z" />
<glyph unicode="&#xe604;" glyph-name="male" d="M409.6 868.978c-31.858-13.653-70.542-45.511-88.747-72.818-47.787-77.369-47.787-266.24 0-375.467 47.787-104.676 56.889-211.627 20.48-211.627-11.378 0-22.756-15.929-22.756-34.133s-56.889-61.44-125.156-95.573c-81.92-40.96-125.156-75.093-125.156-102.4 0-38.684 31.858-40.96 443.733-40.96 418.702 0 443.733 2.276 443.733 43.236 0 29.582-36.409 56.889-125.156 93.298-68.267 27.307-125.156 63.716-125.156 79.644s-15.929 40.96-34.133 56.889c-45.511 38.684-43.236 75.093 11.378 186.596 29.582 63.716 45.511 141.084 45.511 234.382 0 118.329-9.102 147.911-54.613 191.147-61.44 56.889-182.044 79.644-263.964 47.787z" />
<glyph unicode="&#xe605;" glyph-name="female" d="M434.631 907.662c-88.747-45.511-136.533-131.982-159.289-288.996-11.378-81.92-29.582-182.044-38.684-220.729-13.653-65.991-9.102-75.093 31.858-75.093 75.093 0 118.329-25.031 118.329-68.267 0-56.889-61.44-102.4-234.382-172.942-109.227-45.511-152.462-75.093-152.462-104.676 0-38.684 31.858-40.96 512-40.96 486.969 0 512 2.276 512 43.236 0 29.582-36.409 56.889-129.707 95.573-72.818 27.307-159.289 70.542-193.422 93.298-104.676 72.818-75.093 154.738 54.613 154.738 40.96 0 45.511 9.102 29.582 75.093-6.827 38.684-22.756 134.258-34.133 211.627-22.756 179.769-72.818 270.791-161.564 302.649s-88.747 31.858-154.738-4.551z" />
<glyph unicode="&#xe606;" glyph-name="car" horiz-adv-x="2564" d="M733.738 709.005c-69.293-11.549-143.976-39.266-250.226-92.391-58.514-29.257-85.462-37.726-144.746-46.195-40.036-6.159-75.453-10.779-77.762-10.779-10.779 0-22.328-43.116-26.947-101.63-3.080-35.417-7.699-67.753-11.549-71.603-4.62-6.159-10.009-88.541-7.699-124.728 1.54-22.328 53.125-39.266 170.153-56.205 65.444-9.239 120.108-19.248 121.648-23.098 6.929-18.478 38.496-57.744 57.744-72.373 15.398-11.549 36.186-16.168 74.683-18.478 64.674-3.85 114.719 16.168 140.896 56.974 13.859 21.558 21.558 26.177 44.656 26.177 15.398 0 30.027 2.31 33.107 5.389 3.080 3.85 177.853 6.159 388.042 6.159h382.653l22.328-25.408c32.337-36.956 73.143-55.435 123.958-55.435 53.895 0 87.002 13.859 114.719 46.965 29.257 35.417 30.797 35.417 109.329 45.426 37.726 4.62 84.692 13.859 103.94 20.788l36.186 12.319 3.85 54.665c3.080 49.275 1.54 59.284-19.248 102.4-26.177 56.974-46.195 73.913-102.4 90.851-52.355 14.629-192.481 38.496-296.421 50.045-69.293 7.699-87.002 12.319-123.188 34.647-23.098 13.859-92.391 50.045-153.985 80.842-83.152 41.576-125.498 58.514-169.383 66.214-79.302 13.859-457.335 13.089-544.337-1.54zM1054.027 659.729c4.62-21.558 10.779-57.744 13.089-80.842l5.389-42.346h-91.621c-50.815 0-109.329 2.31-130.887 4.62l-39.266 4.62-7.699 63.134c-4.62 33.877-5.389 64.674-3.080 68.523 8.469 9.239 90.851 18.478 171.693 20.018l73.913 0.77 8.469-38.496zM1301.173 670.508c31.567-10.009 80.072-32.337 107.020-49.275l48.505-31.567-20.018-18.478c-22.328-20.788-23.868-27.717-10.779-40.806 6.929-6.929-5.389-9.239-56.205-8.469-87.771 0.77-204.8 10.009-210.959 15.398-6.159 6.929-57.744 144.746-57.744 154.755 0 13.089 138.586-2.31 200.18-21.558zM788.403 646.641c2.31-16.168 6.159-45.426 9.239-65.444l4.62-36.956h-66.214c-56.205 0-68.523 2.31-81.612 15.398-22.328 22.328-19.248 42.346 10.779 65.444 25.408 19.248 90.851 49.275 110.099 50.045 4.62 0 10.779-13.089 13.089-28.487zM1817.023 324.812c12.319-6.929 27.717-22.328 34.647-34.647 33.107-64.674-10.009-138.586-80.842-138.586s-113.949 73.913-80.842 138.586c22.328 42.346 80.842 58.514 127.038 34.647zM700.632 317.113c60.824-31.567 60.824-130.117 0-161.684-64.674-33.107-138.586 10.009-138.586 80.842s73.913 113.949 138.586 80.842z" />
<glyph unicode="&#xe607;" glyph-name="health" horiz-adv-x="1263" d="M404.67 914.489c-77.369-9.481-161.944-54.613-210.868-113.019-51.959-62.199-79.644-138.050-80.024-218.833 0-50.062 14.791-119.087 34.892-158.151l6.827-14.412h90.643c68.267 0 91.401 1.138 94.436 4.93 2.276 2.655 14.412 32.616 26.927 66.75s25.79 66.37 29.203 71.301c3.034 5.31 12.136 11.757 19.721 15.17 16.687 6.827 36.409 2.276 48.924-10.999 6.447-7.206 46.27-124.776 56.51-166.874 1.138-6.068 3.793-10.619 5.689-10.619 3.793 0 0.759-11.757 51.2 193.422 38.684 156.255 41.719 165.736 53.096 177.493 9.861 9.861 15.17 12.136 27.686 12.136 23.135 0 36.409-8.344 43.615-27.307 5.31-14.412 27.307-113.019 57.647-260.93 15.17-72.818 3.413-64.474 94.815-64.474h78.507l12.516-13.653c16.687-17.446 17.825-40.201 3.034-58.027-15.17-18.204-27.686-20.101-132.361-18.584-105.055 1.138-109.227 2.276-120.604 26.927-3.034 6.827-12.136 45.132-20.101 85.333-7.964 39.822-15.929 72.818-17.446 72.818s-4.551-6.447-6.447-14.033c-6.447-23.514-71.301-286.341-74.335-299.615-1.517-6.827-7.964-17.067-15.55-23.893-10.619-9.102-16.687-11.378-30.341-11.378-14.791 0-19.342 1.896-29.582 12.516-10.24 10.24-16.308 25.79-42.098 109.606-16.308 53.855-30.72 97.849-32.237 97.849-1.138 0-6.068-9.102-10.999-20.48-14.791-36.030-4.551-34.133-197.594-36.409-127.052-1.517-171.046-3.034-177.114-6.827-11.757-6.827-20.101-23.893-20.101-42.477 0-12.136 2.655-18.204 12.895-29.582l12.895-14.033 264.344-3.793 28.444-23.135c87.609-70.921 177.114-137.671 252.587-187.733 46.649-31.099 85.713-56.51 86.85-56.51s21.997 13.274 46.649 29.961c24.273 16.308 78.507 50.441 120.225 76.231 196.836 120.604 264.344 175.597 318.957 258.655 50.062 75.852 73.576 152.462 73.956 241.967 0.379 93.677-23.514 169.908-74.714 237.796-47.407 63.336-109.227 97.090-197.594 107.71-78.507 9.481-133.499-4.93-238.175-62.957-22.756-12.516-42.477-20.859-49.683-20.859-7.964 0-26.548 8.723-56.889 27.307-25.031 14.791-56.889 32.616-71.68 39.443-44.753 20.48-100.883 29.582-147.153 24.273z" />
<glyph unicode="&#xe608;" glyph-name="check" d="M384 248.667l452 452 60-60-512-512-238 238 60 60z" />
<glyph unicode="&#xe609;" glyph-name="back" d="M396.288 907.776c-161.792-37.888-307.2-185.344-344.064-348.16-13.312-57.344-13.312-165.888 0-223.232 37.888-165.888 182.272-310.272 348.16-348.16 57.344-13.312 165.888-13.312 223.232 0 165.888 37.888 310.272 182.272 348.16 348.16 13.312 57.344 13.312 165.888 0 223.232-37.888 165.888-182.272 310.272-348.16 348.16-54.272 13.312-174.080 12.288-227.328 0zM603.136 877.056c223.232-51.2 379.904-276.48 342.016-493.568-40.96-238.592-269.312-408.576-497.664-368.64-189.44 31.744-336.896 179.2-368.64 368.64-22.528 130.048 25.6 272.384 124.928 372.736 107.52 107.52 260.096 153.6 399.36 120.832zM354.304 574.976l-122.88-128 129.024-129.024c114.688-113.664 132.096-128 146.432-115.712s6.144 24.576-80.896 111.616c-54.272 54.272-98.304 102.4-98.304 106.496s110.592 7.168 245.76 7.168c238.592 0 245.76 1.024 245.76 20.48s-7.168 20.48-245.76 20.48c-135.168 0-245.76 3.072-245.76 7.168s44.032 52.224 98.304 106.496c92.16 94.208 108.544 122.88 67.584 120.832-9.216 0-72.704-58.368-139.264-128z" />
<glyph unicode="&#xe610;" glyph-name="email" horiz-adv-x="1536" d="M307.2 778.24c276.48-245.76 463.36-386.56 496.64-373.76 40.96 15.36 476.16 378.88 524.8 437.76 30.72 38.4-20.48 40.96-550.4 40.96l-586.24-2.56 115.2-102.4zM128 430.080v-378.88l209.92 204.8c115.2 112.64 212.48 204.8 217.6 204.8 10.24 2.56-399.36 345.6-412.16 345.6-7.68 0-15.36-168.96-15.36-376.32zM1305.6 721.92c-51.2-43.52-135.68-120.32-189.44-166.4l-99.84-87.040 209.92-207.36 207.36-209.92v378.88c0 207.36-7.68 376.32-17.92 376.32-12.8 0-61.44-38.4-110.080-84.48zM404.48 220.16l-212.48-204.8 588.8-2.56h588.8l-419.84 419.84-76.8-71.68c-79.36-74.24-97.28-74.24-199.68 17.92l-53.76 48.64-215.040-207.36z" />
<glyph unicode="&#xe611;" glyph-name="edit" d="M123.668 861.538c-7.877-11.028-18.905-19.692-25.206-19.692-10.24 0-11.815-53.563-11.815-385.969 0-329.255 1.575-385.969 11.028-385.969 6.302 0 18.117-8.665 26.782-19.692l15.754-19.692h378.88c310.351 0 378.88 1.575 378.88 10.24 0 6.302 8.665 15.754 19.692 21.268l19.692 10.24v219.766c0 178.018-1.575 218.978-10.24 218.978-6.302 0-30.72-21.268-55.138-46.474l-44.898-47.262v-129.969c0-84.283-3.151-131.545-8.665-134.695-15.754-10.24-578.166-14.178-597.071-4.726-16.542 9.452-16.542 11.028-16.542 306.412 0 221.342 2.363 300.111 9.452 307.2 6.302 6.302 48.049 9.452 134.695 9.452h124.455l47.262 44.898c25.206 24.418 46.474 48.837 46.474 55.138 0 8.665-39.385 10.24-214.252 10.24l-215.040-0.788-14.178-18.905zM762.486 861.538c-7.877-10.24-14.178-22.055-14.178-26.782 0-11.028 133.12-142.572 144.148-142.572 23.631 0.788 44.898 30.72 44.898 63.015 0 17.329-3.151 36.234-7.877 41.748-3.938 5.514-16.542 21.268-28.357 35.446-11.028 13.391-25.206 25.206-31.508 25.206s-13.391 5.514-15.754 11.815c-3.151 7.877-15.754 11.815-41.748 11.815-29.145-0.788-38.597-3.938-49.625-19.692zM522.24 619.717c-88.222-87.434-159.902-163.84-159.902-169.354s32.295-41.748 72.468-81.132l72.468-71.68 165.415 165.415c158.326 158.326 164.628 166.203 155.963 185.108-18.117 40.172-114.215 130.757-137.846 130.757-4.726 0-80.345-71.68-168.566-159.114zM293.022 383.409c-11.028-11.028-13.391-129.969-3.151-146.511 4.726-7.089 26.782-9.452 81.132-7.877 68.529 2.363 74.043 3.938 76.406 18.905 2.363 18.905-55.926 87.434-103.975 122.88-34.658 25.206-37.022 25.994-50.412 12.603z" />
<glyph unicode="&#xe612;" glyph-name="call2" d="M228.431 848.935c0-7.089-69.317-89.797-127.606-151.237-17.329-17.329-22.055-29.932-22.055-57.502 0-18.905 3.151-34.658 6.302-34.658 3.938 0 16.542-25.206 28.357-56.714 25.994-66.166 70.892-140.997 123.668-207.951 56.714-71.68 182.745-189.046 250.486-233.157 61.44-40.172 135.483-77.194 155.963-77.194 5.514 0 12.603-5.514 14.966-11.815 7.089-17.329 121.305-17.329 121.305 0 0 6.302 3.151 11.815 7.089 11.815s38.597 22.843 76.406 51.2c38.597 28.357 74.043 51.2 79.557 51.2s10.24 7.089 10.24 15.754c0 8.665-3.938 15.754-8.665 15.754-5.514 0-37.809 18.905-73.255 42.535-66.954 44.111-124.455 75.618-138.634 75.618-4.726 0-25.994-16.542-47.262-36.234-37.022-34.658-40.96-36.234-74.831-33.083-81.132 9.452-185.895 86.646-250.486 185.895-35.446 54.351-68.529 125.243-68.529 146.511 0 6.302 19.692 28.357 43.323 48.837s43.323 43.323 43.323 49.625c0 13.391-53.563 106.338-91.372 159.114-14.966 20.48-26.782 40.96-26.782 45.686s-7.089 8.665-15.754 8.665c-8.665 0-15.754-3.938-15.754-8.665zM532.48 840.271c-10.24-38.597-5.514-52.775 17.329-57.502 121.305-25.994 162.265-45.686 222.917-105.551 52.775-52.775 81.92-108.702 94.523-180.382 4.726-26.782 12.603-48.837 17.329-51.2 5.514-1.575 22.843-1.575 39.385 0.788l29.145 3.151v41.748c0 22.843-3.938 43.323-8.665 44.898-3.938 1.575-16.542 22.843-25.994 47.262-49.625 122.88-146.511 213.465-262.302 247.335-22.843 7.089-41.748 15.754-41.748 19.692s-17.329 7.089-38.597 7.089c-33.083 0-38.597-2.363-43.323-17.329zM516.726 664.615c-7.089-7.089-12.603-22.843-12.603-34.658 0-20.48 3.151-22.843 37.022-27.569 77.194-10.24 144.148-75.618 144.148-140.209 0-33.083 15.754-49.625 43.323-42.535 29.145 7.089 37.022 28.357 26.782 74.831-18.905 89.797-96.886 159.114-197.711 177.231-20.48 3.938-31.508 1.575-40.96-7.089z" />
<glyph unicode="&#xe613;" glyph-name="calendar" d="M293.12 869.76c-9.6-5.12-11.52-16-11.52-68.48 0-65.92 4.48-78.080 28.8-78.080s28.8 12.16 28.8 78.080c0 55.040-1.28 62.72-12.16 69.12-15.36 7.68-19.84 7.68-33.92-0.64zM670.72 869.76c-9.6-5.12-11.52-16-11.52-68.48 0-65.92 4.48-78.080 28.8-78.080s28.8 12.16 28.8 78.080c0 55.040-1.28 62.72-12.16 69.12-15.36 7.68-19.84 7.68-33.92-0.64zM142.080 801.92c-11.52-5.76-27.52-19.2-35.2-30.080-14.080-19.84-14.080-21.12-16-325.76-1.28-293.12-1.28-307.2 10.88-334.72 10.24-22.4 18.56-31.36 40.32-40.96 26.24-12.16 44.16-12.8 356.48-12.8 319.36 0 330.24 0.64 356.48 13.44 19.84 9.6 30.72 20.48 40.32 40.32 12.8 26.24 13.44 37.12 13.44 326.4 0 330.88 0 328.32-40.96 357.76-15.36 10.88-30.72 14.72-69.12 16.64l-49.92 1.92v-44.8c0-39.040-1.92-46.080-16-60.8-26.88-26.88-62.080-26.88-88.96 0-14.72 14.72-16.64 21.76-16.64 60.16v44.16h-256v-44.16c0-38.4-1.92-45.44-16-60.16-26.88-26.88-62.080-26.88-88.96 0-14.72 14.72-16.64 21.76-16.64 60.16v44.16h-42.88c-26.88 0-51.84-4.48-64.64-10.88zM844.8 366.080c0-169.6-1.92-231.040-7.68-236.8-10.88-10.88-664.96-10.88-675.84 0-5.76 5.76-7.68 67.2-7.68 236.8v229.12h691.2v-229.12z" />
<glyph unicode="&#xe614;" glyph-name="bike" horiz-adv-x="1463" d="M892.343 848.823c0-1.463-2.926-2.926-6.144-2.926-7.314 0-71.095-30.135-97.134-45.934-47.104-28.087-60.562-42.715-60.562-64.951 0-10.825 1.755-14.336 11.41-23.991 9.362-9.655 13.166-11.41 23.113-11.41 15.506 0 23.698 3.218 42.423 17.262 20.48 15.214 64.073 38.912 66.414 36.279 2.633-3.218 29.257-86.894 29.257-92.16 0-3.511-7.607-4.681-40.96-6.144-93.038-4.389-154.77-21.065-199.826-53.833-19.602-14.629-33.646-32.475-50.615-66.414-9.362-18.725-17.554-31.013-21.943-33.061-8.777-4.681-90.112-4.974-125.513-0.878-46.226 5.559-53.541 10.825-74.313 53.541-13.751 28.087-17.847 33.938-27.209 39.205-31.89 17.554-157.403 16.677-221.184-1.755-37.157-10.825-66.706-27.794-70.802-41.253-4.389-14.043 14.629-36.571 36.571-43.301 5.559-1.755 44.178-4.681 85.431-6.437 118.784-4.974 189.001-18.432 245.76-47.104 39.205-19.602 81.335-51.2 81.335-60.562 0-3.218-9.362-9.947-25.454-18.725l-25.161-14.043-14.921 14.043c-48.567 45.641-107.959 67.877-169.984 64.073-83.090-5.266-153.893-52.37-189.879-126.391-16.384-33.353-22.821-61.44-22.528-100.937 0.293-75.776 36.279-143.067 100.059-186.368 46.811-32.183 116.151-44.471 175.25-31.598 76.361 16.677 141.897 78.117 165.303 155.063l6.437 20.48 44.471 0.878c39.205 0.585 45.349 0 52.37-4.681 11.118-7.607 33.646-16.677 57.637-22.821 29.55-7.899 127.269-7.899 160.914-0.293 28.087 6.729 63.488 22.821 69.339 31.89 3.218 4.974 4.974 20.48 6.144 57.929 2.341 56.759 7.607 92.745 20.773 142.482 7.022 26.331 26.331 79.579 35.694 97.719l7.899 15.799 24.576-49.737c13.458-27.502 25.746-50.907 27.502-52.663 4.681-4.681 2.926-11.995-6.437-23.698-18.725-23.406-37.449-57.344-45.349-82.798-6.144-19.602-8.485-66.999-3.511-76.361 4.681-8.485 17.847-11.41 24.869-5.266 2.633 2.048 8.485 11.41 12.873 20.773 8.777 18.432 12.581 18.725 8.485 0.293-6.729-27.794-1.463-73.728 11.995-106.496 17.847-43.301 53.541-82.213 93.33-101.522 32.768-16.091 56.174-21.65 90.405-21.943 48.274 0 87.479 13.458 125.806 42.715 31.89 24.576 59.685 68.462 69.339 108.544 5.851 26.331 5.851 70.802-0.293 95.378-8.485 33.353-26.624 66.121-50.322 90.112-11.703 11.995-21.358 21.943-21.358 22.528s5.559 1.17 12.581 1.755c11.41 0.878 12.288 1.463 11.703 9.070-1.17 17.554-28.965 46.519-57.929 60.27-52.955 24.869-132.827 30.72-184.32 13.458-18.432-6.144-23.406-6.729-25.454-3.803-8.485 11.703-60.855 122.587-59.392 125.221 0.878 1.463 7.314 2.926 14.043 2.926 18.432 0 33.061 4.974 43.008 14.921 7.607 7.607 8.777 11.118 8.777 23.991 0 27.502-26.624 122.587-40.082 142.775-3.803 5.559-12.288 13.458-19.31 17.554-10.825 6.144-16.677 7.022-48.274 7.899-41.545 1.463-36.279-2.633-48.567 38.619-8.777 29.842-13.166 36.279-28.672 43.886-13.458 6.437-19.895 7.314-19.895 2.926zM332.069 337.993c16.969-5.266 45.349-21.358 45.349-26.039 0-1.755-23.698-16.969-52.663-33.646-28.965-16.384-55.881-33.061-59.685-36.571-15.799-14.629-15.506-42.715 0.293-57.637 13.458-12.873 20.773-14.043 87.479-14.043 51.785 0 62.61-0.585 62.61-4.096 0-8.192-13.458-29.257-28.672-44.471-32.475-33.353-81.042-46.811-124.928-35.109-44.471 11.703-82.213 49.152-93.915 93.623-18.432 68.754 26.331 143.653 95.378 159.451 27.502 6.437 43.301 5.851 68.754-1.463zM567.003 308.443c5.559-14.336 12.288-39.79 12.288-46.811 0-6.729-0.585-6.729-30.72-6.729-34.231 0-32.768-0.878-37.742 22.528-2.048 9.070-1.463 9.362 22.235 23.698 13.458 8.192 25.746 14.921 27.502 14.921 1.755 0.293 4.681-3.218 6.437-7.607zM1248.402 296.155c21.358-7.607 33.061-15.506 48.274-31.598 62.025-66.706 24.283-177.006-65.829-191.342-70.217-11.41-133.705 42.423-133.705 113.518 0 20.187 8.192 50.907 14.629 55.003 1.463 0.878 9.947-7.899 19.017-19.602s26.331-32.183 38.327-45.349c26.917-29.55 37.157-33.938 58.514-24.576 10.533 4.681 14.336 8.485 19.31 19.602 5.266 12.288 5.559 14.921 2.048 25.161-2.048 6.144-13.458 22.821-25.746 36.864-25.161 28.965-47.104 57.051-47.104 60.27 0 8.777 50.030 10.24 72.265 2.048z" />
<glyph unicode="&#xe615;" glyph-name="g_1" horiz-adv-x="1465" d="M348.896 859.44c-108.532-31.885-213.998-122.635-261.212-224.422-30.659-66.836-32.498-76.034-32.498-186.405 0-97.495 1.226-108.532 14.716-143.483 57.025-145.322 175.368-246.496 320.69-274.702 147.775-28.206 275.315 8.584 377.102 107.919 50.28 50.28 58.251 61.931 91.363 137.964 15.329 35.564 23.914 93.202 23.914 158.812v71.128h-411.44l1.84-71.741 1.84-72.354 118.343-1.84c64.383-0.613 117.729-2.453 117.729-4.292 0-1.226-6.745-17.782-15.329-36.79-69.902-152.68-286.965-177.82-409.6-46.601-25.753 26.98-36.79 46.601-60.091 104.853-12.877 31.885-11.037 118.343 3.679 156.359 14.716 40.469 57.638 100.56 87.071 123.248 87.684 67.449 180.886 72.968 291.871 17.169l42.922-21.461 54.572 53.959c29.432 29.432 53.959 57.025 53.959 61.317 0 8.584-70.515 55.799-110.984 74.194-52.12 23.914-98.108 31.885-177.82 31.272-60.091 0-85.844-3.066-122.635-14.103zM1146.635 564.503v-58.251h-116.503v-110.371h122.635v-122.635h110.371v116.503h116.503v116.503h-116.503v116.503h-116.503v-58.251z" />
<glyph unicode="&#xe616;" glyph-name="back2" d="M261.12 642.56l-215.040-215.040 435.2-435.2 37.888 38.912 38.912 37.888-307.2 307.2h670.72v102.4h-670.72l153.6 153.6 152.576 153.6-34.816 35.84c-19.456 19.456-36.864 35.84-40.96 35.84-3.072 0-102.4-97.28-220.16-215.040z" />
<glyph unicode="&#xe617;" glyph-name="bike2" horiz-adv-x="1856" d="M1555.222 541.090c-40.816 0-79.728-8.152-115.299-22.871l-16.717 31.356c40.93 17.378 85.628 26.912 132.016 26.912 57.747 0 114.777-14.893 164.914-43.068 14.351-8.058 32.544-2.953 40.622 11.398 8.058 14.371 2.953 32.544-11.398 40.622-59.049 33.166-126.176 50.698-194.137 50.698-56.405 0-110.716-11.98-160.157-33.767l-29.492 55.341c2.759-0.194 5.552-0.308 8.366-0.308h69.050c16.483 0 29.825 13.337 29.825 29.825v192.815c0 16.483-13.342 29.825-29.825 29.825h-69.050c-46.776 0-87.492-26.331-108.171-64.954l-52.642 98.756c-5.185 9.713-15.3 15.787-26.311 15.787h-140.507c-16.483 0-29.825-13.357-29.825-29.825 0-16.464 13.342-29.825 29.825-29.825h122.602l50.683-95.088c-6.527 4.777-13.456 9.166-20.798 13.029-44.932 23.612-99.263 24.994-145.319 3.693l-92.896-42.953c-33.613-15.554-59.939-41.184-76.621-71.943-26.718 29.592-63.881 49.749-106.233 54.545l-452.717 51.165c-23.090 2.62-46.274-4.757-63.592-20.251-17.338-15.479-27.28-37.669-27.28-60.913v-131.012c-5.712-2.466-11.324-5.085-16.836-7.919-102.857-53.029-177.475-147.655-204.72-259.614-3.902-16.001 5.925-32.137 21.922-36.019 2.391-0.582 4.757-0.855 7.088-0.855 13.436 0 25.63 9.146 28.95 22.777 23.149 95.147 86.603 175.571 174.1 220.682 31.222 16.096 67.067 24.621 103.668 24.621h519.417v-86.508h-283.588c-51.304 39.946-115.593 63.846-185.205 63.846-155.419 0-284.583-118.774-300.778-270.291h-68.33c-16.464 0-29.825-13.357-29.825-29.825v-99.184c0-16.464 13.362-29.825 29.825-29.825h94.312c48.968-106.039 156.851-175.959 274.795-175.959 117.939 0 225.807 69.92 274.775 175.959h205.536c65.069 0 118.68 49.863 124.699 113.381 55.321 19.903 102.35 59.745 130.913 113.53l141.302 275.749c7.958 21.246 11.219 43.222 10.27 64.741l56.017-105.069c-74.757-47.417-133.493-119.495-163.552-207.38-5.319-15.594 2.992-32.544 18.581-37.863 3.186-1.109 6.447-1.611 9.653-1.611 12.387 0 23.979 7.784 28.215 20.172 25.048 73.226 73.474 133.592 135.243 173.906l16.737-31.441c-81.125-54.307-134.641-146.775-134.641-251.531 0-166.818 135.71-302.527 302.542-302.527 166.818 0 302.527 135.71 302.527 302.527 0 166.832-135.71 302.542-302.527 302.542v0zM389.493 623.402v-0.020h-95.689v107.709c0 8.58 4.603 13.978 7.362 16.444 2.739 2.451 8.639 6.427 17.145 5.458l452.717-51.185c44.877-5.065 80.777-36.854 92.563-78.406h-474.097zM763.75 417.593l76.407-146.815h-140.447c-5.846 54.526-26.331 104.776-57.379 146.815h121.419zM398.933 481.419c122.562 0 224.778-92.056 240.64-210.641h-481.3c15.882 118.585 118.078 210.641 240.66 210.641v0zM398.933-4.345c-85.106 0-163.691 45.339-207.261 116.309h37.803c39.961-53.536 102.077-85.067 169.457-85.067 67.36 0 129.496 31.53 169.437 85.067h37.823c-43.59-70.969-122.174-116.309-207.261-116.309v0zM314.855 111.964h168.135c-24.506-16.329-53.531-25.416-84.057-25.416-30.546 0-59.571 9.087-84.077 25.416v0zM879.243 171.614h-819.593v39.513h879.805c-10.116-23.224-33.3-39.513-60.212-39.513v0zM1082.174 366.855c-31.476-59.263-92.717-96.077-159.824-96.077h-14.952l-76.387 146.815h66.54c16.488 0 29.825 13.342 29.825 29.825v116.313h259.4l-104.602-196.876zM1220.31 635.596l-4.583-12.213h-291.010c-0.408 2.252-0.855 4.504-1.337 6.716 1.223 39.827 24.621 76.855 62.23 94.253l92.896 42.933c29.338 13.575 63.92 12.701 92.543-2.331 46.582-24.482 67.768-80.096 49.261-129.357v0zM1310.969 780.005v7.262c0 34.717 28.254 62.971 62.971 62.971h39.225v-133.185h-39.225c-34.717 0-62.971 28.23-62.971 62.951v0zM1458.817 355.964l32.952-61.808c5.378-10.056 15.688-15.783 26.346-15.783 4.737 0 9.534 1.123 14.003 3.514 14.545 7.725 20.038 25.804 12.288 40.329l-32.967 61.863c13.864 4.195 28.563 6.467 43.783 6.467 83.809 0 151.979-68.195 151.979-151.999 0-83.809-68.171-151.979-151.979-151.979-83.804 0-151.999 68.171-151.999 151.979 0 47.243 21.688 89.535 55.594 117.417v0zM1555.222-4.33c-133.94 0-242.892 108.952-242.892 242.877 0 81.98 40.856 154.544 103.24 198.562l14.818-27.807c-52.582-38.539-86.796-100.695-86.796-170.754 0-116.681 94.934-211.63 211.63-211.63 116.701 0 211.63 94.949 211.63 211.63 0 116.696-94.929 211.65-211.63 211.65-25.356 0-49.689-4.504-72.252-12.72l-14.798 27.767c27.051 10.429 56.37 16.195 87.050 16.195 133.925 0 242.892-108.952 242.892-242.892 0-133.925-108.967-242.877-242.892-242.877zM1527.669 227.149c0.333-0.775 0.214-0.542 0.080-0.154 8.098-18.835 33.901-24.606 48.541-9.514 11.518 11.199 11.518 30.949 0 42.153-9.743 10.041-26.097 11.458-37.649 3.748-11.726-7.824-16.155-23.090-11.030-36.098-0.154 0.388-0.268 0.661 0.060-0.134z" />
<glyph unicode="&#xe618;" glyph-name="car2" horiz-adv-x="2048" d="M349.799 199.128c-1.52 0.212-3.075 0.322-4.659 0.322h-165.47c-38.478 0-70.594 26.067-76.645 61.799l-40.029 242.582c-3.025 18.525 1.241 37.123 12.8 52.573l225.126 309.799c16.058 22.040 42.434 35.146 70.594 35.146h619.136c30.255 0 59.966-10.031 83.007-28.337l376.090-298.304c4.499-3.734 10.24-6.004 16.601-6.59l450.641-45.983c21.178-2.343 40.029-12.301 53.062-28.337 12.955-16.035 18.153-35.732 15.127-55.795l-29.401-176.756c-6.051-35.732-38.168-61.799-76.335-61.799h-113.046c-25.223 84.421-103.481 146.15-196.264 146.15-88.971 0-164.907-57.082-193.094-136.533h-637.812c-28.187 79.451-104.123 136.533-193.094 136.533-92.639 0-171.146-61.886-196.334-146.472zM341.333 140.8c0-112.894 91.906-204.8 204.8-204.8s204.8 91.906 204.8 204.8h614.4c0-112.894 91.906-204.8 204.8-204.8s204.8 91.906 204.8 204.8h104.51c69.043 0 126.915 46.935 137.543 111.296l29.401 176.756c5.741 36.025-3.956 71.83-27.307 100.386-23.273 28.922-57.251 46.935-95.729 50.889l-440.943 45.251-368.798 292.299c-34.211 27.458-77.809 42.322-122.958 42.322h-619.136c-48.795 0-94.255-22.625-121.795-60.627l-225.204-309.799c-20.247-27.751-28.47-61.433-22.73-94.895l40.029-242.582c10.628-64.362 68.81-111.296 137.853-111.296h161.664zM273.067 584.533c0-18.3 15.229-34.133 34.015-34.133h887.703c19.003 0 34.015 15.282 34.015 34.133 0 18.3-15.229 34.133-34.015 34.133h-887.703c-19.003 0-34.015-15.282-34.015-34.133zM1570.133 277.333c75.536 0 136.533-61.288 136.533-136.533s-60.998-136.533-136.533-136.533c-75.305 0-136.533 61.288-136.533 136.533s61.228 136.533 136.533 136.533zM546.133 277.333c75.245 0 136.533-61.288 136.533-136.533s-61.288-136.533-136.533-136.533c-75.245 0-136.533 61.288-136.533 136.533s61.288 136.533 136.533 136.533z" />
<glyph unicode="&#xe619;" glyph-name="health2" horiz-adv-x="1152" d="M806.583 959.395c-85.157 0-167.541-31.927-230.577-88.531-63.036 56.592-145.42 88.531-230.589 88.531-190.468 0-345.417-155.39-345.417-346.392 0-47.914 8.13-96.535 24.184-144.529 0.556-1.684 13.8-40.92 26.355-64.388 57.187-117.963 160.677-232.166 307.64-339.442 108.835-79.458 200.035-124.179 203.873-126.047 4.388-2.135 9.165-3.202 13.954-3.202 4.777 0 9.566 1.066 13.945 3.202 3.835 1.868 95.035 46.589 203.87 126.047 147.192 107.452 250.793 221.851 307.918 340.022 0.059 0.107 0.108 0.223 0.157 0.327 0.735 1.565 18.008 38.55 26.077 63.934 16.162 50.884 24.027 98.008 24.027 144.077 0 191.002-154.946 346.392-345.417 346.392v0zM1068.906 486.282c-6.67-20.997-22.026-54.133-23.242-56.744-65.679-135.735-192.979-247.247-288.221-316.889-80.392-58.784-152.16-98.495-181.436-113.9-29.285 15.405-101.056 55.116-181.449 113.9-95.276 69.678-222.638 181.246-288.304 317.064-0.191 0.395-0.386 0.79-0.602 1.182-8.504 15.732-19.274 45.642-22.69 55.793-14.074 42.078-21.204 84.572-21.204 126.314 0 158.253 127.254 286.993 283.66 286.993 78.354 0 153.982-33.296 207.479-91.337 5.861-6.359 14.269-10 23.11-10 8.828 0 17.236 3.641 23.1 10 54.291 58.9 127.976 91.337 207.476 91.337 156.419 0 283.66-128.753 283.66-286.993 0-40.094-6.972-81.545-21.337-126.721v0zM96 576c0-17.673 14.327-32 32-32s32 14.327 32 32c0 123.712 100.288 224 224 224 17.673 0 32 14.327 32 32s-14.327 32-32 32c-159.058 0-288-128.942-288-288z" />
<glyph unicode="&#xe620;" glyph-name="logout" horiz-adv-x="931" d="M721.338 816.922c126.255-83.246 209.571-226.328 209.571-388.87 0-257.063-208.391-465.455-465.455-465.455s-465.455 208.391-465.455 465.455c0 162.542 83.316 305.624 209.571 388.87l96.84-96.84c-103.327-56.392-173.424-166.025-173.424-292.030 0-183.617 148.851-332.468 332.468-332.468s332.468 148.851 332.468 332.468c0 126.005-70.098 235.638-173.424 292.030l96.84 96.84zM422.126 960c-12.793 0-23.165-10.387-23.165-23.46v-551.522c0-12.956 10.435-23.46 23.165-23.46h86.658c12.793 0 23.165 10.387 23.165 23.46v551.522c0 12.956-10.435 23.46-23.165 23.46h-86.658z" />
<glyph unicode="&#xe621;" glyph-name="phone" horiz-adv-x="640" d="M576 704h-512v-512h512v512zM576 768v96.111c0 17.815-14.339 31.889-32.028 31.889h-447.944c-17.257 0-32.028-14.277-32.028-31.889v-96.111h512zM576 128h-512v-96.111c0-17.815 14.339-31.889 32.028-31.889h447.944c17.257 0 32.028 14.277 32.028 31.889v96.111zM576.295 960c35.184 0 63.705-28.456 63.705-64.056v-895.888c0-35.377-29.163-64.056-63.705-64.056h-512.589c-35.184 0-63.705 28.456-63.705 64.056v895.888c0 35.377 29.163 64.056 63.705 64.056h512.589zM288 64c0 17.673 14.327 32 32 32s32-14.327 32-32c0-17.673-14.327-32-32-32s-32 14.327-32 32z" />
<glyph unicode="&#xe622;" glyph-name="search" d="M673.094 738.659c-124.774 124.774-326.98 124.774-451.753 0s-124.774-326.98 0-451.753c124.774-124.774 326.98-124.774 451.753 0s124.774 326.98 0 451.753zM1005.313-45.313c-24.98-24.916-65.422-24.916-90.402 0l-201.184 201.248c-175.181-130.971-423.579-118.576-582.724 40.633-174.67 174.606-174.67 457.759 0 632.429 174.606 174.67 457.823 174.67 632.429 0 159.209-159.145 171.604-407.543 40.633-582.724l201.248-201.248c24.916-24.916 24.916-65.358 0-90.338z" />
<glyph unicode="&#xe623;" glyph-name="truck" horiz-adv-x="1728" d="M1654.981 442.487l-53.161 35.429-73.321 268.805c-10.158 37.303-44.247 63.337-82.907 63.337h-218.629c-15.141 0-27.429-12.288-27.429-27.429v-499.195h-296.21v63.607c131.337 13.769 234.053 125.125 234.053 260.055 0 144.178-117.303 261.481-261.481 261.481h-1.842v31.090c0 31.246-25.426 56.677-56.677 56.677h-117.038c-31.25 0-56.677-25.431-56.677-56.677v-31.090h-382.181c-144.178 0-261.481-117.303-261.481-261.481 0-124.718 87.785-229.253 204.805-255.232v-68.43h-177.376c-15.141 0-27.429-12.288-27.429-27.429 0-15.145 12.288-27.429 27.429-27.429h19.767c-29.23-31.109-47.195-72.91-47.195-118.857 0-95.785 77.929-173.714 173.714-173.714 61.376 0 115.374 32.018 146.286 80.197 30.912-48.178 84.91-80.197 146.286-80.197 86.446 0 158.341 63.479 171.534 146.286h68.859c11.483-33.984 43.643-58.519 81.426-58.519h263.323c37.806 0 69.947 24.535 81.426 58.519h68.878c13.198-82.807 85.070-146.286 171.515-146.286 86.464 0 158.341 63.479 171.538 146.286h91.785c31.25 0 56.677 25.426 56.677 56.677v232c0 28.805-14.299 55.538-38.267 71.52v0zM1542.144 488.238h-139.625c-17.143 0-31.090 13.943-31.090 31.067v118.857h129.819l40.896-149.925zM1254.391 755.2h191.2c13.979 0 26.304-9.431 29.979-22.912l10.715-39.269h-142.286c-15.141 0-27.429-12.265-27.429-27.429v-146.286c0-47.374 38.555-85.925 85.947-85.925h167.232l54.802-36.539c8.608-5.746 13.751-15.319 13.838-25.641h-31.067c-15.163 0-27.429-12.288-27.429-27.429 0-15.145 12.265-27.429 27.429-27.429h31.067v-32.91h-384v471.767zM1199.534 137.147h-66.679c-11.479 33.961-43.621 58.519-81.426 58.519h-263.323c-37.783 0-69.943-24.558-81.426-58.519h-68.859c-5.586 35.072-21.728 66.642-45.015 91.429h606.729v-91.429zM435.195 283.433v62.158h413.271v-62.158h-413.271zM1082.519 607.095c0-113.947-92.699-206.647-206.624-206.647h-440.699v411.429c0 0.626-0.050 1.234-0.087 1.842h440.786c113.925 0 206.624-92.699 206.624-206.624v0zM259.662 517.486v62.181h120.677v-62.181h-120.677zM259.662 634.523v62.158h120.677v-62.158h-120.677zM259.662 462.629h120.677v-62.181h-118.857c-0.608 0-1.211 0.055-1.819 0.055v62.126zM698.519 899.666c0 0.997 0.818 1.819 1.819 1.819h117.038c1.001 0 1.819-0.823 1.819-1.819v-31.090h-120.677v31.090zM380.43 813.719c-0.037-0.608-0.091-1.216-0.091-1.842v-60.338h-120.677v60.338c0 0.608-0.055 1.198-0.091 1.787 0.645 0 1.271 0.055 1.911 0.055h118.949zM54.857 607.095c0 94.267 63.502 173.943 149.947 198.661v-397.321c-86.446 24.695-149.947 104.375-149.947 198.661v0zM259.662 345.646c0.608 0 1.211-0.055 1.819-0.055h118.857v-62.158h-120.677v62.213zM339.767 228.576c-7.337-7.803-13.961-16.306-19.767-25.358-5.806 9.051-12.43 17.554-19.767 25.358h39.534zM173.714-9.138c-65.536 0-118.857 53.321-118.857 118.857s53.321 118.857 118.857 118.857c65.536 0 118.857-53.321 118.857-118.857s-53.321-118.857-118.857-118.857v0zM466.286-9.138c-65.536 0-118.857 53.321-118.857 118.857s53.321 118.857 118.857 118.857c65.536 0 118.857-53.321 118.857-118.857s-53.321-118.857-118.857-118.857v0zM1051.429 78.629h-263.323c-17.125 0-31.067 13.947-31.067 31.090s13.943 31.090 31.067 31.090h263.323c17.143 0 31.090-13.947 31.090-31.090s-13.947-31.090-31.090-31.090v0zM1373.248-9.138c-65.536 0-118.857 53.321-118.857 118.857s53.321 118.857 118.857 118.857c65.536 0 118.857-53.321 118.857-118.857s-53.321-118.857-118.857-118.857v0zM1636.571 137.147h-91.785c-5.591 35.072-21.714 66.642-45.019 91.429h138.624v-89.609c0-1.001-0.8-1.819-1.819-1.819zM1373.248 162.734c-29.23 0-53.015-23.785-53.015-53.015 0-29.253 23.785-53.038 53.015-53.038 29.253 0 53.038 23.785 53.038 53.038 0 29.23-23.785 53.015-53.038 53.015zM466.286 162.734c-29.234 0-53.038-23.785-53.038-53.015 0-29.253 23.803-53.038 53.038-53.038s53.038 23.785 53.038 53.038c0 29.23-23.803 53.015-53.038 53.015zM173.714 162.734c-29.234 0-53.038-23.785-53.038-53.015 0-29.253 23.803-53.038 53.038-53.038s53.038 23.785 53.038 53.038c0 29.23-23.803 53.015-53.038 53.015z" />
<glyph unicode="&#xe624;" glyph-name="notify" horiz-adv-x="780" d="M753.783 299.398h-63.271v302.144c0 148.352-107.314 271.876-249.059 297.41 0.287 1.584 0.287 3.16 0.287 4.883 0 29.981-24.391 54.514-54.661 54.514s-54.663-24.393-54.663-54.514c0-1.584 0-3.16 0.289-4.883-141.605-25.534-249.206-149.058-249.206-297.41v-302.144h-63.266c-11.194 0-20.231-9.037-20.231-20.225v-107.601c0-11.194 9.037-20.231 20.231-20.231h733.265c11.187 0 20.231 9.037 20.231 20.231v107.601c0.289 11.189-8.897 20.225-19.944 20.225v0zM383.638-49.655c64.988 0 117.64 59.391 117.64 132.988h-235.288c0-73.597 52.653-132.988 117.648-132.988v0z" />
<glyph unicode="&#xe625;" glyph-name="return" horiz-adv-x="1252" d="M477.867 686.933v273.067l-477.867-477.867 477.867-477.867v279.893c341.333 0 580.267-109.227 750.933-348.16-68.267 341.333-273.067 682.667-750.933 750.933z" />
<glyph unicode="&#xe626;" glyph-name="share" horiz-adv-x="922" d="M768 239.104c-38.912 0-73.728-15.36-100.352-39.424l-365.056 212.48c2.56 11.776 4.608 23.552 4.608 35.84s-2.048 24.064-4.608 35.84l360.96 210.432c27.648-25.6 64-41.472 104.448-41.472 84.992 0 153.6 68.608 153.6 153.6s-68.608 153.6-153.6 153.6c-84.992 0-153.6-68.608-153.6-153.6 0-12.288 2.048-24.064 4.608-35.84l-360.96-210.432c-27.648 25.6-64 41.472-104.448 41.472-84.992 0-153.6-68.608-153.6-153.6s68.608-153.6 153.6-153.6c40.448 0 76.8 15.872 104.448 41.472l364.544-212.992c-2.56-10.752-4.096-22.016-4.096-33.28 0-82.432 67.072-149.504 149.504-149.504s149.504 67.072 149.504 149.504c0 82.432-67.072 149.504-149.504 149.504z" />
<glyph unicode="&#xe900;" glyph-name="call" d="M512 908.8c254.080 0 460.8-206.72 460.8-460.8s-206.72-460.8-460.8-460.8c-254.080 0-460.8 206.72-460.8 460.8s206.72 460.8 460.8 460.8v0zM512 960c-282.752 0-512-229.222-512-512 0-282.803 229.248-512 512-512 282.803 0 512 229.197 512 512 0 282.778-229.197 512-512 512v0zM367.898 709.299c30.899 5.837 51.149-29.005 66.56-53.043 15.002-23.347 33.459-50.739 26.010-81.126-4.147-17.050-19.558-26.342-31.206-36.403-11.494-9.933-29.005-19.046-33.254-34.304-6.938-24.755 8.243-50.739 17.638-65.536 21.35-33.434 47.155-63.565 80.102-90.47 15.949-13.056 38.093-30.49 60.288-26.010 33.152 6.707 41.907 47.59 78.003 53.043 34.355 5.197 57.6-19.712 77.005-36.403 18.688-16.154 48.845-36.838 46.797-64.512-1.203-15.898-13.952-25.754-25.011-35.354-11.238-9.805-21.094-20.813-32.205-28.058-26.906-17.562-59.904-26.163-97.792-24.986-37.146 1.152-66.739 13.773-93.594 28.083-52.506 28.006-94.003 67.405-133.094 111.309-38.451 43.162-73.958 94.259-93.594 150.758-24.499 70.554-11.546 143.027 28.109 188.237 6.707 7.68 17.306 15.693 27.008 23.936 9.677 8.269 18.637 18.278 32.23 20.838z" />
<glyph unicode="&#xe901;" glyph-name="download" d="M489.739 288.565l-135.147 135.147-31.482-31.482 188.89-188.89 188.89 188.89-31.482 31.482-135.217-135.217v404.374h-44.452v-404.305zM0 448c0 282.77 229.23 512 512 512s512-229.23 512-512c0-282.77-229.23-512-512-512s-512 229.23-512 512zM979.478 448c0 258.181-209.297 467.478-467.478 467.478s-467.478-209.297-467.478-467.478c0-258.181 209.297-467.478 467.478-467.478s467.478 209.297 467.478 467.478z" />
</font>
</defs>
</svg>
