<svg width="48" height="48" viewBox="0 0 48 48" fill="none" xmlns="http://www.w3.org/2000/svg">
<circle r="11" transform="matrix(-1 0 0 1 21 26)" fill="url(#paint0_linear_277_1376)"/>
<mask id="mask0_277_1376" style="mask-type:alpha" maskUnits="userSpaceOnUse" x="0" y="0" width="48" height="48">
<rect width="48" height="48" fill="#D9D9D9"/>
</mask>
<g mask="url(#mask0_277_1376)">
<path fill-rule="evenodd" clip-rule="evenodd" d="M30.2516 3.95575C27.7456 5.27312 25.4243 8.05555 24.2079 12.7439C24.0692 13.2785 23.5234 13.5994 22.9889 13.4607C22.4543 13.322 22.1333 12.7762 22.272 12.2417C23.5956 7.14003 26.2069 3.82245 29.3209 2.18545C32.434 0.548919 35.9367 0.656812 38.8618 2.20094C44.7952 5.33304 47.9878 14.0182 42.2315 25.3458C41.9813 25.8382 41.3793 26.0345 40.887 25.7843C40.3946 25.5341 40.1983 24.9321 40.4485 24.4398C45.8922 13.7274 42.5748 6.42253 37.9282 3.96963C35.5633 2.72126 32.7584 2.63791 30.2516 3.95575Z" fill="#444444"/>
<g clip-path="url(#clip0_277_1376)">
<path fill-rule="evenodd" clip-rule="evenodd" d="M33.6276 6.40988C33.8675 5.9124 34.4652 5.70354 34.9627 5.94339C37.8499 7.3354 40.003 10.046 40.764 13.4867C40.8833 14.026 40.5428 14.5598 40.0035 14.6791C39.4643 14.7983 38.9304 14.4579 38.8112 13.9186C38.1763 11.048 36.4033 8.85826 34.0941 7.74494C33.5966 7.50509 33.3878 6.90737 33.6276 6.40988Z" fill="#444545"/>
</g>
<path fill-rule="evenodd" clip-rule="evenodd" d="M17.1474 2.35962C20.261 3.96511 22.8811 7.24294 24.2263 12.2955C24.3684 12.8292 24.051 13.377 23.5173 13.5191C22.9836 13.6612 22.4358 13.3438 22.2937 12.8101C21.0589 8.17266 18.734 5.42799 16.2308 4.13722C13.7262 2.84576 10.9294 2.9459 8.57383 4.20476C3.94504 6.67843 0.657684 13.9768 6.09133 24.6594C6.34172 25.1517 6.14564 25.7537 5.65337 26.0041C5.16111 26.2545 4.55907 26.0584 4.30868 25.5662C-1.43767 14.2688 1.72497 5.59717 7.63118 2.44084C10.5431 0.884692 14.0351 0.754838 17.1474 2.35962Z" fill="#444444"/>
<path fill-rule="evenodd" clip-rule="evenodd" d="M9.10866 30.878C9.10866 30.878 9.10865 30.878 9.10866 30.878L9.11431 30.8852L9.1328 30.9088L9.20716 31.0033C9.27296 31.0867 9.3707 31.21 9.49731 31.3683C9.75056 31.6849 10.1192 32.1412 10.5787 32.6974C11.4983 33.8106 12.7795 35.321 14.2272 36.9123C15.6764 38.5054 17.2834 40.1694 18.855 41.5941C20.4407 43.0315 21.9345 44.1734 23.1605 44.7751C23.6563 45.0184 23.861 45.6176 23.6177 46.1134C23.3744 46.6091 22.7752 46.8138 22.2794 46.5705C20.7954 45.8422 19.1342 44.5466 17.5118 43.0759C15.8753 41.5924 14.221 39.8777 12.7478 38.2582C11.2729 36.637 9.97037 35.1012 9.03684 33.9712C8.56982 33.4059 8.19453 32.9414 7.93552 32.6176C7.806 32.4557 7.70551 32.3289 7.63712 32.2423L7.55899 32.143L7.53869 32.1171L7.53191 32.1084C7.53179 32.1082 7.53128 32.1076 8.31997 31.4928L7.53191 32.1084C7.19237 31.6728 7.26959 31.0436 7.70518 30.7041C8.14075 30.3646 8.76911 30.4424 9.10866 30.878Z" fill="#444444"/>
<path fill-rule="evenodd" clip-rule="evenodd" d="M36.4514 30.978C36.7909 30.5424 37.4193 30.4646 37.8549 30.8041C38.2904 31.1436 38.3683 31.772 38.0288 32.2076L37.2401 31.5928C38.0288 32.2076 38.0289 32.2074 38.0288 32.2076L38.0214 32.2171L38.001 32.243L37.9229 32.3423C37.8545 32.4289 37.754 32.5557 37.6245 32.7176C37.3655 33.0414 36.9902 33.5059 36.5232 34.0713C35.5897 35.2013 34.2871 36.737 32.8123 38.3582C31.339 39.9777 29.6847 41.6924 28.0482 43.1759C26.4258 44.6466 24.7646 45.9422 23.2806 46.6705C22.7849 46.9138 22.1857 46.7092 21.9424 46.2134C21.699 45.7176 21.9037 45.1184 22.3995 44.8751C23.6255 44.2734 25.1193 43.1315 26.705 41.6941C28.2767 40.2694 29.8836 38.6054 31.3329 37.0124C32.7805 35.421 34.0617 33.9106 34.9813 32.7974C35.4409 32.2412 35.8095 31.7849 36.0627 31.4683C36.1893 31.31 36.2871 31.1867 36.3529 31.1033L36.4272 31.0088L36.4457 30.9852L36.4514 30.978C36.4514 30.978 36.4514 30.978 36.4514 30.978Z" fill="#444444"/>
<path fill-rule="evenodd" clip-rule="evenodd" d="M23.6628 24.2262L20.0372 29.6375C19.4244 30.5057 18.1517 30.5778 17.4639 29.7312L17.4512 29.7156L14.9635 26.5246L12.4625 28.9724C12.1681 29.2645 11.7802 29.4406 11.34 29.4406H1C0.447715 29.4406 0 28.9929 0 28.4406C0 27.8884 0.447715 27.4406 1 27.4406H11.1682L13.8775 24.7889C14.5841 24.0878 15.697 24.2183 16.2663 24.9428L16.2686 24.9458L18.6913 28.0531L22.4061 22.5086C23.1304 21.4056 24.7092 21.6443 25.2104 22.7468L25.2164 22.7601L28.6536 30.9466L30.5009 28.1261L30.52 28.1007C30.7639 27.7755 31.2107 27.4206 31.82 27.4206H45.46C46.0123 27.4206 46.46 27.8684 46.46 28.4206C46.46 28.9729 46.0123 29.4206 45.46 29.4206H32.0438L29.9184 32.6656C29.9181 32.6662 29.9188 32.6651 29.9184 32.6656C29.2177 33.7411 27.5837 33.5836 27.0967 32.4046L23.6628 24.2262ZM28.9425 31.6348C28.9435 31.6372 28.9446 31.6396 28.9455 31.642L28.9425 31.6348ZM28.2416 31.5757C28.2422 31.5747 28.2428 31.5737 28.2435 31.5727L28.2416 31.5757Z" fill="#444444"/>
</g>
<defs>
<linearGradient id="paint0_linear_277_1376" x1="2.81512e-07" y1="16.7895" x2="16.2105" y2="8.10526" gradientUnits="userSpaceOnUse">
<stop stop-color="#89EBBB"/>
<stop offset="1" stop-color="#89EBBB" stop-opacity="0"/>
</linearGradient>
<clipPath id="clip0_277_1376">
<rect width="10" height="10" fill="white" transform="translate(32 4.9928)"/>
</clipPath>
</defs>
</svg>
