<svg width="36" height="36" viewBox="0 0 36 36" fill="none" xmlns="http://www.w3.org/2000/svg">
<mask id="mask0_1064_9170" style="mask-type:luminance" maskUnits="userSpaceOnUse" x="1" y="2" width="34" height="32">
<path d="M34.1998 2.70001H1.7998V33.4992H34.1998V2.70001Z" fill="white"/>
</mask>
<g mask="url(#mask0_1064_9170)">
<path d="M7.06584 7.56011C4.62749 9.69368 3.01584 15.2552 2.61084 17.6852L3.82584 17.2802C8.68584 14.4452 10.3058 16.0652 12.7358 18.0902C18.0008 13.2302 21.6458 16.8752 23.2658 18.0902C26.9108 12.8251 31.7708 17.2802 33.3908 18.0902C33.3908 16.0652 32.1758 14.0402 30.9608 11.2051C29.3408 6.6691 22.0508 3.78008 18.8108 3.10507C14.3558 3.51008 10.3058 4.72508 7.06584 7.56011Z" fill="url(#paint0_linear_1064_9170)"/>
<path d="M15.1018 33.516C13.0498 33.516 11.3848 31.851 11.3848 29.799C11.3848 29.448 11.6728 29.16 12.0238 29.16C12.3748 29.16 12.6628 29.448 12.6628 29.799C12.6628 31.14 13.7518 32.238 15.1018 32.238C16.4518 32.238 17.5408 31.149 17.5408 29.799C17.5408 29.448 17.8288 29.16 18.1798 29.16C18.5308 29.16 18.8188 29.448 18.8188 29.799C18.8188 31.851 17.1538 33.516 15.1018 33.516Z" fill="#444444"/>
<path d="M2.64551 19.296C2.51951 19.296 2.38451 19.26 2.27651 19.179C1.98851 18.972 1.91651 18.576 2.12351 18.288C2.15951 18.234 3.10451 16.911 4.75151 15.975C7.47851 14.427 10.9165 15.021 12.9325 17.397C13.1215 17.622 13.2835 17.856 13.4095 18.09C13.5805 18.396 13.4725 18.792 13.1575 18.963C12.8515 19.134 12.4555 19.026 12.2845 18.711C12.1945 18.558 12.0865 18.396 11.9425 18.234C10.3315 16.326 7.56851 15.849 5.37251 17.1C3.98651 17.892 3.16751 19.026 3.15851 19.035C3.03251 19.215 2.83451 19.305 2.63651 19.305L2.64551 19.296Z" fill="#444444"/>
<path d="M33.2094 19.296C33.0114 19.296 32.8044 19.197 32.6874 19.026C32.6874 19.017 31.8594 17.874 30.4734 17.091C28.2864 15.849 25.5234 16.317 23.9034 18.225C23.7684 18.387 23.6514 18.549 23.5614 18.702C23.3904 19.008 23.0034 19.125 22.6884 18.954C22.3824 18.783 22.2654 18.396 22.4364 18.081C22.5624 17.847 22.7244 17.622 22.9224 17.388C24.9384 15.012 28.3764 14.418 31.1034 15.966C32.7504 16.902 33.6864 18.225 33.7314 18.279C33.9384 18.567 33.8664 18.972 33.5784 19.17C33.4704 19.251 33.3354 19.287 33.2094 19.287V19.296Z" fill="#444444"/>
<path d="M22.9768 19.026C22.7518 19.026 22.5358 18.909 22.4188 18.693C22.3468 18.567 22.2658 18.45 22.1758 18.333C20.7268 16.47 18.0988 15.813 15.9298 16.767C14.3548 17.46 13.4638 18.666 13.4548 18.675C13.2478 18.963 12.8428 19.026 12.5548 18.819C12.2668 18.612 12.2038 18.207 12.4108 17.919C12.4558 17.856 13.5178 16.416 15.4078 15.579C18.1528 14.373 21.3568 15.183 23.1838 17.532C23.3188 17.703 23.4358 17.874 23.5348 18.063C23.7058 18.369 23.5978 18.765 23.2828 18.936C23.1838 18.99 23.0758 19.017 22.9768 19.017V19.026Z" fill="#444444"/>
<path d="M33.5696 19.548C33.2186 19.548 32.9306 19.26 32.9306 18.909C32.9306 10.674 26.2346 3.98701 18.0086 3.98701C9.7826 3.98701 3.0866 10.674 3.0866 18.909C3.0866 19.26 2.7986 19.548 2.4476 19.548C2.0966 19.548 1.8086 19.26 1.8086 18.909C1.7996 9.97201 9.0716 2.70001 18.0086 2.70001C26.9456 2.70001 34.2176 9.97201 34.2176 18.909C34.2176 19.26 33.9296 19.548 33.5786 19.548H33.5696Z" fill="#444444"/>
<path d="M18.1888 30.3481C17.8378 30.3481 17.5498 30.0601 17.5498 29.7091V16.1011C17.5498 15.7501 17.8378 15.4621 18.1888 15.4621C18.5398 15.4621 18.8278 15.7501 18.8278 16.1011V29.7181C18.8278 30.0691 18.5398 30.3571 18.1888 30.3571V30.3481Z" fill="#444444"/>
</g>
<defs>
<linearGradient id="paint0_linear_1064_9170" x1="18.0008" y1="3.10507" x2="18.0008" y2="18.0902" gradientUnits="userSpaceOnUse">
<stop stop-color="#00D679"/>
<stop offset="0.828138" stop-color="#00D679" stop-opacity="0"/>
</linearGradient>
</defs>
</svg>
