<svg width="36" height="36" viewBox="0 0 36 36" fill="none" xmlns="http://www.w3.org/2000/svg">
<mask id="mask0_1096_9184" style="mask-type:luminance" maskUnits="userSpaceOnUse" x="0" y="8" width="36" height="20">
<path d="M35.0999 8.10001H0.899902V27.7539H35.0999V8.10001Z" fill="white"/>
</mask>
<g mask="url(#mask0_1096_9184)">
<path d="M12.4668 23.3088C12.4668 25.414 10.7606 27.1201 8.65552 27.1201C6.55039 27.1201 4.84424 25.414 4.84424 23.3088C4.84424 21.2037 6.55039 19.4975 8.65552 19.4975C10.7606 19.4975 12.4668 21.2037 12.4668 23.3088Z" fill="url(#paint0_linear_1096_9184)"/>
<path fill-rule="evenodd" clip-rule="evenodd" d="M8.65571 20.1725C6.92339 20.1725 5.51943 21.5764 5.51943 23.3088C5.51943 25.0412 6.92339 26.4451 8.65571 26.4451C10.388 26.4451 11.792 25.0412 11.792 23.3088C11.792 21.5764 10.388 20.1725 8.65571 20.1725ZM4.16943 23.3088C4.16943 20.8309 6.17779 18.8225 8.65571 18.8225C11.1336 18.8225 13.142 20.8309 13.142 23.3088C13.142 25.7867 11.1336 27.7951 8.65571 27.7951C6.17779 27.7951 4.16943 25.7867 4.16943 23.3088Z" fill="#444444"/>
<path d="M31.1548 23.3088C31.1548 25.414 29.4486 27.1201 27.3435 27.1201C25.2384 27.1201 23.5322 25.414 23.5322 23.3088C23.5322 21.2037 25.2384 19.4975 27.3435 19.4975C29.4486 19.4975 31.1548 21.2037 31.1548 23.3088Z" fill="url(#paint1_linear_1096_9184)"/>
<path fill-rule="evenodd" clip-rule="evenodd" d="M27.3432 20.1725C25.6109 20.1725 24.2069 21.5764 24.2069 23.3088C24.2069 25.0412 25.6109 26.4451 27.3432 26.4451C29.0755 26.4451 30.4795 25.0412 30.4795 23.3088C30.4795 21.5764 29.0755 20.1725 27.3432 20.1725ZM22.8569 23.3088C22.8569 20.8309 24.8653 18.8225 27.3432 18.8225C29.8211 18.8225 31.8295 20.8309 31.8295 23.3088C31.8295 25.7867 29.8211 27.7951 27.3432 27.7951C24.8653 27.7951 22.8569 25.7867 22.8569 23.3088Z" fill="#444444"/>
<path fill-rule="evenodd" clip-rule="evenodd" d="M22.9573 10.1228C22.6144 9.63609 22.0384 9.36634 21.4442 9.41448L21.4178 9.41662L8.59188 9.44834C8.16331 9.48942 7.76677 9.6929 7.48349 10.0167L3.51352 15.4922C3.29469 15.794 2.87264 15.8613 2.57083 15.6425C2.26901 15.4237 2.20174 15.0016 2.42056 14.6998L6.42246 9.1802L6.43937 9.16032C6.96053 8.54736 7.70401 8.16591 8.5067 8.10064L8.53318 8.09848L21.3632 8.06675C22.4211 7.99086 23.4438 8.47331 24.0572 9.33998L27.942 14.649C28.1622 14.9499 28.0968 15.3722 27.7959 15.5924C27.4951 15.8125 27.0727 15.7471 26.8526 15.4462L22.9573 10.1228Z" fill="#444444"/>
<path fill-rule="evenodd" clip-rule="evenodd" d="M15.0432 8.58894C15.4158 8.57656 15.7279 8.86856 15.7403 9.24115L15.9354 15.1116C15.9478 15.4842 15.6558 15.7963 15.2832 15.8087C14.9106 15.8211 14.5985 15.5291 14.5861 15.1565L14.391 9.28599C14.3786 8.91341 14.6706 8.60133 15.0432 8.58894Z" fill="#444444"/>
<path d="M5.4274 23.6158V23.3081C5.4274 21.5289 6.87497 20.0821 8.65331 20.0821C10.4316 20.0821 11.8792 21.5289 11.8792 23.3081V23.6158H13.0492V23.3081C13.0492 20.884 11.0773 18.9121 8.65251 18.9121C6.22773 18.9121 4.25586 20.884 4.25586 23.3081V23.6158H5.42582H5.4274Z" fill="#444444"/>
<path d="M24.1178 23.6158V23.3081C24.1178 21.5289 25.5654 20.0821 27.3437 20.0821C29.1221 20.0821 30.5696 21.5289 30.5696 23.3081V23.6158H31.7396V23.3081C31.7396 20.884 29.7677 18.9121 27.3429 18.9121C24.9182 18.9121 22.9463 20.884 22.9463 23.3081V23.6158H24.1162H24.1178Z" fill="#444444"/>
<path fill-rule="evenodd" clip-rule="evenodd" d="M11.792 23.3286C11.792 22.9558 12.0942 22.6536 12.467 22.6536H22.9482C23.321 22.6536 23.6232 22.9558 23.6232 23.3286C23.6232 23.7014 23.321 24.0036 22.9482 24.0036H12.467C12.0942 24.0036 11.792 23.7014 11.792 23.3286Z" fill="#444444"/>
<path fill-rule="evenodd" clip-rule="evenodd" d="M3.26353 15.9431C2.68133 15.9431 2.20938 16.4151 2.20938 16.9973V21.5995C2.20938 22.1817 2.68133 22.6536 3.26353 22.6536H4.84357C5.21636 22.6536 5.51857 22.9558 5.51857 23.3286C5.51857 23.7014 5.21636 24.0036 4.84357 24.0036H3.26353C1.93573 24.0036 0.859375 22.9273 0.859375 21.5995V16.9973C0.859375 15.6695 1.93573 14.5931 3.26353 14.5931H28.1348C32.004 14.5931 35.1403 17.7295 35.1403 21.5987C35.1403 22.9265 34.0639 24.0028 32.7361 24.0028H31.1537C30.7809 24.0028 30.4787 23.7006 30.4787 23.3278C30.4787 22.955 30.7809 22.6528 31.1537 22.6528H32.7361C33.3183 22.6528 33.7903 22.1809 33.7903 21.5987C33.7903 18.475 31.2584 15.9431 28.1348 15.9431H3.26353Z" fill="#444444"/>
</g>
<defs>
<linearGradient id="paint0_linear_1096_9184" x1="8.65552" y1="19.4975" x2="8.65552" y2="27.1201" gradientUnits="userSpaceOnUse">
<stop stop-color="#00D679"/>
<stop offset="0.828138" stop-color="#00D679" stop-opacity="0"/>
</linearGradient>
<linearGradient id="paint1_linear_1096_9184" x1="27.3435" y1="19.4975" x2="27.3435" y2="27.1201" gradientUnits="userSpaceOnUse">
<stop stop-color="#00D679"/>
<stop offset="0.828138" stop-color="#00D679" stop-opacity="0"/>
</linearGradient>
</defs>
</svg>
