<svg width="36" height="36" viewBox="0 0 36 36" fill="none" xmlns="http://www.w3.org/2000/svg">
<g clip-path="url(#clip0_869_8575)">
<mask id="mask0_869_8575" style="mask-type:luminance" maskUnits="userSpaceOnUse" x="1" y="2" width="34" height="31">
<path d="M34.1998 2.70001H1.7998V32.413H34.1998V2.70001Z" fill="white"/>
</mask>
<g mask="url(#mask0_869_8575)">
<path d="M12.9951 18.8709L5.94629 19.2855L18.3854 30.8954L29.5807 18.8709L22.1172 19.2855L18.8001 24.6758L15.483 12.6513L12.9951 18.8709Z" fill="url(#paint0_linear_869_8575)"/>
<path d="M33.4922 12.2501C33.4922 14.4991 32.6534 16.5509 31.2697 18.1107C31.2502 18.1346 31.229 18.1585 31.206 18.1824L30.5813 18.8071L17.9752 31.4114L5.37798 18.7699C3.61377 17.1526 2.50781 14.83 2.50781 12.2492C2.50781 7.36618 6.46624 3.40775 11.3501 3.40775C14.0018 3.40775 16.38 4.57563 18.0009 6.42302C19.6209 4.57563 22 3.40775 24.6516 3.40775C29.5355 3.40775 33.4931 7.36618 33.4931 12.2501H33.4922Z" stroke="#444444" stroke-width="1.35" stroke-miterlimit="10" stroke-linecap="round"/>
<path d="M5.83496 18.8168H13.5457L15.7859 12.2766C15.8124 12.2102 15.9071 12.2138 15.9292 12.2819L19.2904 24.7252C19.3125 24.7933 19.409 24.796 19.4338 24.7288L21.774 18.9849H30.2128" stroke="#444444" stroke-width="1.35" stroke-miterlimit="10" stroke-linecap="round"/>
</g>
</g>
<defs>
<linearGradient id="paint0_linear_869_8575" x1="17.7635" y1="12.6513" x2="17.7635" y2="30.8954" gradientUnits="userSpaceOnUse">
<stop stop-color="#00D679"/>
<stop offset="0.807304" stop-color="#00D679" stop-opacity="0"/>
</linearGradient>
<clipPath id="clip0_869_8575">
<rect width="32.4" height="29.713" fill="white" transform="translate(1.7998 2.70001)"/>
</clipPath>
</defs>
</svg>
