<svg width="50" height="50" viewBox="0 0 50 50" fill="none" xmlns="http://www.w3.org/2000/svg">
<circle cx="14.8438" cy="32.0312" r="14.8438" fill="url(#paint0_linear_277_1399)"/>
<mask id="mask0_277_1399" style="mask-type:alpha" maskUnits="userSpaceOnUse" x="0" y="0" width="50" height="50">
<rect width="50" height="50" fill="#D9D9D9"/>
</mask>
<g mask="url(#mask0_277_1399)">
</g>
<g clip-path="url(#clip0_277_1399)">
<path d="M41.6597 42.5056C37.0632 42.5056 33.3402 38.7618 33.3402 34.1861C33.3402 29.6104 37.084 25.8666 41.6597 25.8666C46.2354 25.8666 49.9791 29.6104 49.9791 34.1861C49.9791 38.7618 46.2354 42.5056 41.6597 42.5056ZM41.6597 27.9257C38.2071 27.9257 35.4201 30.7335 35.4201 34.1653C35.4201 37.5971 38.2279 40.4049 41.6597 40.4049C45.0915 40.4049 47.8993 37.5971 47.8993 34.1653C47.8993 30.7335 45.0915 27.9257 41.6597 27.9257Z" fill="#444545"/>
<path d="M7.27953 42.6511C3.26539 42.6511 0 39.3857 0 35.3716C0 31.3575 3.26539 28.0921 7.27953 28.0921C11.2937 28.0921 14.5591 31.3575 14.5591 35.3716C14.5591 39.3857 11.2937 42.6511 7.27953 42.6511ZM7.27953 30.1719C4.40932 30.1719 2.07987 32.5014 2.07987 35.3716C2.07987 38.2418 4.40932 40.5713 7.27953 40.5713C10.1498 40.5713 12.4792 38.2418 12.4792 35.3716C12.4792 32.5014 10.1498 30.1719 7.27953 30.1719Z" fill="#444545"/>
<path d="M41.6597 35.226C41.223 35.226 40.807 34.9348 40.6614 34.4981L33.5691 11.4323L28.1198 11.5155C27.4959 11.4531 27.0799 11.058 27.0591 10.4964C27.0591 9.91404 27.5167 9.45647 28.0782 9.43567L33.5275 9.35248C34.505 9.37328 35.2746 9.93484 35.5449 10.8084L42.6581 33.8741C42.8245 34.4149 42.5125 34.9972 41.9717 35.1844C41.8677 35.226 41.7637 35.226 41.6597 35.226Z" fill="#444545"/>
<path d="M6.69718 36.8275C6.30201 36.8275 5.92763 36.5987 5.74045 36.2244C5.51166 35.7044 5.74045 35.0804 6.26041 34.8517L18.9892 29.0696C19.5092 28.82 20.1331 29.0696 20.3619 29.5896C20.5907 30.1096 20.3619 30.7335 19.8419 30.9623L7.11316 36.7443C6.96757 36.8067 6.82198 36.8275 6.67639 36.8275H6.69718Z" fill="#444545"/>
<path d="M25.1455 33.3749C23.2529 33.3749 21.9425 32.8134 20.4866 31.5239L20.341 31.3783C15.183 24.5355 9.48413 20.5006 3.41092 19.3774C1.20626 18.9823 0.478309 17.7135 0.228725 17.0064C-0.145651 15.9249 0.124732 14.7185 0.915081 13.8242C1.70543 12.9506 2.89095 12.5763 4.07648 12.8467C5.55318 13.0546 7.21708 13.3458 8.92257 13.637C16.8677 14.9889 26.7678 16.6736 35.3785 14.6145C35.94 14.469 36.5016 14.8225 36.6264 15.3841C36.7512 15.9457 36.4184 16.5072 35.8568 16.632C26.8302 18.7951 16.7013 17.0688 8.56899 15.6961C6.8635 15.4049 5.22041 15.1345 3.6813 14.9057C2.99495 14.7601 2.62057 15.0513 2.45418 15.2385C2.163 15.5505 2.07981 15.9873 2.2046 16.3616C2.37099 16.8608 2.93255 17.2144 3.7853 17.36C10.3577 18.5663 16.4725 22.8508 21.9217 30.0472C23.3568 31.2743 24.4384 31.6071 27.579 31.0663C28.3069 30.9415 29.2637 29.1528 30.1372 27.5929C32.1755 23.87 34.9833 18.7743 41.2645 18.7119C43.6771 18.7119 48.1073 19.7726 49.792 22.5804C50.0831 23.0796 49.9167 23.7036 49.4384 24.0155C48.9392 24.3067 48.3152 24.1403 48.0033 23.662C46.9425 21.8941 43.6771 20.7917 41.2645 20.7917C36.2104 20.8333 33.8394 25.1387 31.9467 28.5912C30.6572 30.9415 29.638 32.8134 27.9326 33.1046C26.851 33.2917 25.9359 33.3957 25.1247 33.3957L25.1455 33.3749Z" fill="#444545"/>
<path d="M28.619 21.8733H23.2945C22.8578 21.8733 22.4418 21.7277 22.0882 21.4573L17.2421 17.7343C16.7846 17.3808 16.7014 16.736 17.0549 16.2784C17.4085 15.8209 18.0533 15.7377 18.5108 16.0912L23.3569 19.8142H28.5982L30.3661 16.1536C30.6365 15.6545 31.2604 15.4465 31.7596 15.6961C32.2796 15.9664 32.4667 16.5904 32.2172 17.0896L30.3037 20.8125C29.9709 21.4573 29.3262 21.8525 28.5982 21.8525L28.619 21.8733Z" fill="#444545"/>
<path d="M41.431 17.2352C40.7238 17.2352 40.0167 17.0688 39.3719 16.736C38.3112 16.1952 37.5208 15.2593 37.1465 14.1154C36.3977 11.7443 37.708 9.22768 40.0583 8.45813C41.4102 8.02136 42.8661 8.77011 43.3029 10.1428L44.4676 13.7826C44.9044 15.1345 44.1556 16.5904 42.7829 17.0272C42.3253 17.1728 41.8678 17.2352 41.4102 17.2352H41.431ZM40.8486 10.4132C40.8486 10.4132 40.7446 10.4132 40.703 10.434C39.4343 10.8292 38.7272 12.2019 39.1431 13.4706C39.5591 14.7393 40.911 15.4465 42.1797 15.0305C42.4501 14.9473 42.5957 14.6561 42.5125 14.3858L41.3478 10.746C41.2854 10.538 41.0774 10.3924 40.8694 10.3924L40.8486 10.4132Z" fill="#444545"/>
</g>
<defs>
<linearGradient id="paint0_linear_277_1399" x1="3.79882e-07" y1="39.8437" x2="21.875" y2="28.125" gradientUnits="userSpaceOnUse">
<stop stop-color="#89EBBB"/>
<stop offset="1" stop-color="#89EBBB" stop-opacity="0"/>
</linearGradient>
<clipPath id="clip0_277_1399">
<rect width="50" height="34.3178" fill="white" transform="translate(0 8.33334)"/>
</clipPath>
</defs>
</svg>
