<svg width="48" height="48" viewBox="0 0 48 48" fill="none" xmlns="http://www.w3.org/2000/svg">
<path d="M40.5 29.25C40.5 23.8652 36.1348 19.5 30.75 19.5H0V39H30.75C36.1348 39 40.5 34.6348 40.5 29.25Z" fill="url(#paint0_linear_277_1406)"/>
<mask id="mask0_277_1406" style="mask-type:alpha" maskUnits="userSpaceOnUse" x="0" y="0" width="48" height="48">
<rect width="48" height="48" fill="#D9D9D9"/>
</mask>
<g mask="url(#mask0_277_1406)">
<path d="M7.23999 20.12L7.91999 11.54C8.15999 8.43999 10.8 6.01999 13.9 6.01999H34.48C37.52 6.01999 40 8.29999 40.26 11.32L41.02 20.1H7.23999V20.12ZM13.9 7.99999C11.82 7.99999 10.08 9.61999 9.91999 11.68L9.41999 18.1H38.86L38.3 11.46C38.14 9.47999 36.5 7.97999 34.52 7.97999H13.9V7.99999Z" fill="#444545"/>
<path d="M45.08 40.04H3C1.34 40.04 0 38.7 0 37.04V26.98C0 22.1 3.98 18.12 8.86 18.12H39.22C44.1 18.12 48.08 22.1 48.08 26.98V37.04C48.08 38.7 46.74 40.04 45.08 40.04ZM8.86 20.12C5.08 20.12 2 23.2 2 26.98V37.04C2 37.6 2.44 38.04 3 38.04H45.08C45.64 38.04 46.08 37.6 46.08 37.04V26.98C46.08 23.2 43 20.12 39.22 20.12H8.86Z" fill="#444545"/>
<path d="M46.3 24.06H1.33997V26.06H46.3V24.06Z" fill="#444545"/>
<path d="M12.22 38.54L10.24 38.2L10.66 35.76C10.82 34.8 11.66 34.1 12.64 34.1H35.66C36.64 34.1 37.46 34.8 37.62 35.76L38.04 38.14L36.08 38.48L35.66 36.1H12.66L12.24 38.54H12.22Z" fill="#444545"/>
<path d="M9.12003 43.98H5.16003C3.54003 43.98 2.18003 42.66 2.16003 41.02V39.44L4.14003 39.4V40.98C4.18003 41.52 4.62003 41.96 5.16003 41.96H9.12003C9.38003 41.96 9.64003 41.86 9.84003 41.66C10.02 41.46 10.14 41.22 10.12 40.94V39.42L12.1 39.38V40.9C12.14 41.72 11.82 42.48 11.26 43.06C10.7 43.64 9.94003 43.96 9.12003 43.96V43.98Z" fill="#444545"/>
<path d="M43.08 43.98H39.12C37.5 43.98 36.14 42.66 36.12 41.02V39.44L38.1 39.4V40.98C38.14 41.52 38.58 41.96 39.12 41.96H43.08C43.34 41.96 43.6 41.86 43.8 41.66C44 41.46 44.1 41.22 44.08 40.94V39.42L46.06 39.38V40.9C46.1 41.72 45.8 42.48 45.22 43.06C44.64 43.64 43.9 43.96 43.08 43.96V43.98Z" fill="#444545"/>
<path d="M10.76 30.46L4.71996 30.42C4.13996 30.42 3.57996 30.2 3.13996 29.82L1.03996 27.96L0.459961 25.82L2.37996 25.3L2.79996 26.86L4.45996 28.34C4.45996 28.34 4.61996 28.44 4.71996 28.44L10.32 28.48L9.65996 25.72L11.6 25.26L12.36 28.46C12.48 28.96 12.36 29.46 12.04 29.86C11.72 30.26 11.26 30.48 10.76 30.48V30.46Z" fill="#444545"/>
<path d="M36.78 30.46C36.28 30.46 35.8 30.24 35.48 29.84C35.16 29.44 35.04 28.92 35.16 28.44L35.92 25.24L37.86 25.7L37.2 28.46L42.8 28.42C42.8 28.42 43 28.38 43.06 28.32L44.72 26.84L45.14 25.28L47.06 25.8L46.48 27.94L44.38 29.8C43.94 30.18 43.38 30.4 42.8 30.4L36.76 30.44L36.78 30.46Z" fill="#444545"/>
<path d="M6.60003 19.96H2.18003C1.08003 19.92 0.180034 19.02 0.200034 17.92V15.98C0.200034 14.9 1.08003 14 2.16003 13.98L4.92003 13.94C5.40003 13.94 5.78003 14.14 6.06003 14.48L8.48003 17.68L6.88003 18.88L6.58003 18.5V19.94L6.60003 19.96ZM4.66003 15.96L2.20003 16V17.94H6.18003L4.66003 15.96Z" fill="#444545"/>
<path d="M41.66 19.96V18.52L41.36 18.9L39.76 17.7L42.18 14.5C42.46 14.14 42.78 13.96 43.32 13.94L46.08 13.98C47.16 13.98 48.04 14.9 48.04 15.98V17.92C48.04 19.02 47.16 19.92 46.06 19.92H41.66V19.96ZM43.58 15.98L42.06 17.98H46.04V16.02L43.58 15.98Z" fill="#444545"/>
</g>
<defs>
<linearGradient id="paint0_linear_277_1406" x1="40.5" y1="34.3816" x2="23.3386" y2="15.2872" gradientUnits="userSpaceOnUse">
<stop stop-color="#89EBBB"/>
<stop offset="1" stop-color="#89EBBB" stop-opacity="0"/>
</linearGradient>
</defs>
</svg>
