<svg width="48" height="48" viewBox="0 0 48 48" fill="none" xmlns="http://www.w3.org/2000/svg">
<path d="M42 14.25C42 8.86522 37.6348 4.5 32.25 4.5H15.75C10.3652 4.5 6 8.86522 6 14.25C6 19.6348 10.3652 24 15.75 24H32.25C37.6348 24 42 19.6348 42 14.25Z" fill="url(#paint0_linear_277_1416)"/>
<mask id="mask0_277_1416" style="mask-type:alpha" maskUnits="userSpaceOnUse" x="0" y="0" width="48" height="48">
<rect width="48" height="48" fill="#D9D9D9"/>
</mask>
<g mask="url(#mask0_277_1416)">
<path fill-rule="evenodd" clip-rule="evenodd" d="M24 4.79514C13.743 4.79514 5.14665 11.9494 2.97532 21.547C2.85346 22.0857 2.31799 22.4236 1.77931 22.3017C1.24064 22.1799 0.902756 21.6444 1.02462 21.1057C3.39844 10.6131 12.7917 2.79514 24 2.79514C35.2096 2.79514 44.5818 10.6142 46.9749 21.104C47.0978 21.6424 46.7608 22.1785 46.2224 22.3013C45.6839 22.4242 45.1479 22.0873 45.025 21.5488C42.8348 11.9483 34.2556 4.79514 24 4.79514Z" fill="#444444"/>
<path fill-rule="evenodd" clip-rule="evenodd" d="M8.22833 18.0222C6.31822 17.8856 4.29219 18.8007 3.3055 20.8935C3.06997 21.393 2.47408 21.607 1.97453 21.3715C1.47499 21.136 1.26096 20.5401 1.49649 20.0405C2.87785 17.1107 5.74071 15.8392 8.37097 16.0273C10.9969 16.215 13.5444 17.8834 14.1344 20.9259C14.2396 21.4681 13.8853 21.9929 13.3431 22.098C12.8009 22.2032 12.2762 21.8489 12.171 21.3067C11.7871 19.3266 10.1428 18.1591 8.22833 18.0222Z" fill="#444444"/>
<path fill-rule="evenodd" clip-rule="evenodd" d="M19.1329 18.0222C17.2228 17.8856 15.1967 18.8007 14.21 20.8935C13.9745 21.393 13.3786 21.607 12.8791 21.3715C12.3795 21.136 12.1655 20.5401 12.401 20.0405C13.7824 17.1107 16.6453 15.8392 19.2755 16.0273C21.9014 16.215 24.449 17.8834 25.039 20.9259C25.1441 21.4681 24.7898 21.9929 24.2476 22.098C23.7055 22.2032 23.1807 21.8489 23.0756 21.3067C22.6916 19.3266 21.0473 18.1591 19.1329 18.0222Z" fill="#444444"/>
<path fill-rule="evenodd" clip-rule="evenodd" d="M30.0947 18.0222C28.1846 17.8856 26.1585 18.8007 25.1718 20.8935C24.9363 21.393 24.3404 21.607 23.8409 21.3715C23.3413 21.136 23.1273 20.5401 23.3628 20.0405C24.7442 17.1107 27.607 15.8392 30.2373 16.0273C32.8632 16.215 35.4108 17.8834 36.0008 20.9259C36.1059 21.4681 35.7516 21.9929 35.2094 22.098C34.6672 22.2032 34.1425 21.8489 34.0373 21.3067C33.6534 19.3266 32.0091 18.1591 30.0947 18.0222Z" fill="#444444"/>
<path fill-rule="evenodd" clip-rule="evenodd" d="M40.9992 18.0222C39.0891 17.8856 37.0631 18.8007 36.0764 20.8935C35.8408 21.393 35.245 21.607 34.7454 21.3715C34.2459 21.136 34.0318 20.5401 34.2674 20.0405C35.6487 17.1107 38.5116 15.8392 41.1418 16.0273C43.7677 16.215 46.3153 17.8834 46.9053 20.9259C47.0104 21.4681 46.6562 21.9929 46.114 22.098C45.5718 22.2032 45.047 21.8489 44.9419 21.3067C44.5579 19.3266 42.9137 18.1591 40.9992 18.0222Z" fill="#444444"/>
<path fill-rule="evenodd" clip-rule="evenodd" d="M24 18.9514C24.5523 18.9514 25 19.3991 25 19.9514V29.0799C25 29.6321 24.5523 30.0799 24 30.0799C23.4477 30.0799 23 29.6321 23 29.0799V19.9514C23 19.3991 23.4477 18.9514 24 18.9514Z" fill="#444444"/>
<path fill-rule="evenodd" clip-rule="evenodd" d="M24 1C24.5523 1 25 1.44772 25 2V3.375C25 3.92728 24.5523 4.375 24 4.375C23.4477 4.375 23 3.92728 23 3.375V2C23 1.44772 23.4477 1 24 1Z" fill="#444444"/>
<path fill-rule="evenodd" clip-rule="evenodd" d="M12.8089 26.2986C10.2815 26.2986 8.23254 28.3475 8.23254 30.875C8.23254 33.4025 10.2815 35.4514 12.8089 35.4514C15.3364 35.4514 17.3853 33.4025 17.3853 30.875C17.3853 28.3475 15.3364 26.2986 12.8089 26.2986ZM6.23254 30.875C6.23254 27.243 9.17689 24.2986 12.8089 24.2986C16.441 24.2986 19.3853 27.243 19.3853 30.875C19.3853 34.507 16.441 37.4514 12.8089 37.4514C9.17689 37.4514 6.23254 34.507 6.23254 30.875Z" fill="#444444"/>
<path fill-rule="evenodd" clip-rule="evenodd" d="M35.0764 26.2413C32.5489 26.2413 30.5 28.2902 30.5 30.8177C30.5 33.3452 32.5489 35.3941 35.0764 35.3941C37.6039 35.3941 39.6528 33.3452 39.6528 30.8177C39.6528 28.2902 37.6039 26.2413 35.0764 26.2413ZM28.5 30.8177C28.5 27.1857 31.4444 24.2413 35.0764 24.2413C38.7084 24.2413 41.6528 27.1857 41.6528 30.8177C41.6528 34.4497 38.7084 37.3941 35.0764 37.3941C31.4444 37.3941 28.5 34.4497 28.5 30.8177Z" fill="#444444"/>
<path fill-rule="evenodd" clip-rule="evenodd" d="M23.9235 34.6823C22.2082 34.6823 20.8176 36.0728 20.8176 37.7882C20.8176 39.5035 22.2082 40.8941 23.9235 40.8941C25.6389 40.8941 27.0294 39.5035 27.0294 37.7882C27.0294 36.0728 25.6389 34.6823 23.9235 34.6823ZM18.8176 37.7882C18.8176 34.9683 21.1036 32.6823 23.9235 32.6823C26.7434 32.6823 29.0294 34.9683 29.0294 37.7882C29.0294 40.6081 26.7434 42.8941 23.9235 42.8941C21.1036 42.8941 18.8176 40.6081 18.8176 37.7882Z" fill="#444444"/>
<path fill-rule="evenodd" clip-rule="evenodd" d="M4.91069 45.1963L4.91158 45.1923C4.91351 45.1833 4.91716 45.1668 4.92275 45.1433C4.93392 45.0963 4.95277 45.0219 4.98104 44.9245C5.0377 44.7294 5.13154 44.4446 5.27608 44.106C5.56643 43.4259 6.05269 42.5489 6.83511 41.7434C8.346 40.1879 11.1279 38.7253 16.3007 39.8538C16.8403 39.9715 17.3732 39.6295 17.4909 39.0899C17.6086 38.5503 17.2666 38.0174 16.727 37.8997C10.9571 36.641 7.44645 38.2435 5.40047 40.3499C4.40447 41.3753 3.79622 42.4785 3.43667 43.3208C3.25626 43.7434 3.1363 44.1054 3.06039 44.3668C3.02239 44.4976 2.99527 44.6038 2.97704 44.6805C2.96792 44.7188 2.96101 44.7498 2.95606 44.7728L2.95009 44.8014L2.94814 44.8111L2.94742 44.8147L2.94712 44.8163C2.94699 44.817 2.94686 44.8176 3.92877 45.007L2.94686 44.8176C2.84229 45.3599 3.19714 45.8843 3.73944 45.9889C4.28135 46.0934 4.80538 45.7391 4.91047 45.1974L4.91002 45.1997L4.91028 45.1984L4.91047 45.1974L4.91069 45.1963ZM4.91002 45.1997C4.90989 45.2004 4.90986 45.2005 4.90993 45.2002L4.91002 45.1997Z" fill="#444444"/>
<path fill-rule="evenodd" clip-rule="evenodd" d="M24.1356 44.059C22.6984 44.0549 21.267 44.625 20.3842 45.7133C20.0363 46.1422 19.4065 46.2079 18.9776 45.8599C18.5487 45.512 18.483 44.8823 18.831 44.4533C20.1634 42.8107 22.2173 42.0536 24.1412 42.059C26.0536 42.0645 28.0383 42.8303 29.1326 44.4961C29.4358 44.9577 29.3075 45.5777 28.8459 45.8809C28.3843 46.1841 27.7643 46.0558 27.461 45.5942C26.8366 44.6436 25.5843 44.0631 24.1356 44.059Z" fill="#444444"/>
<path fill-rule="evenodd" clip-rule="evenodd" d="M31.5952 40.166L31.6089 40.1606C31.6227 40.1553 31.6456 40.1465 31.677 40.135C31.7399 40.1119 31.8367 40.0775 31.9634 40.0364C32.2173 39.954 32.589 39.845 33.0462 39.744C33.9665 39.5408 35.2023 39.3771 36.5085 39.5088C37.8083 39.6399 39.1547 40.0602 40.3454 41.0056C41.5318 41.9477 42.6352 43.4677 43.3604 45.9206C43.5169 46.4503 44.0732 46.7527 44.6028 46.5961C45.1325 46.4396 45.4349 45.8833 45.2783 45.3537C44.4566 42.574 43.149 40.6779 41.589 39.4393C40.0333 38.2041 38.2979 37.6791 36.7092 37.5189C35.1269 37.3594 33.6677 37.5586 32.615 37.791C32.0857 37.9079 31.6514 38.0349 31.3459 38.1341C31.193 38.1837 31.0718 38.2266 30.9866 38.2579C30.9439 38.2736 30.9102 38.2864 30.886 38.2958L30.8568 38.3073L30.8476 38.311L30.8444 38.3123L30.8431 38.3128C30.8426 38.313 30.8421 38.3132 31.2186 39.2396L30.8421 38.3132C30.3305 38.5212 30.0843 39.1045 30.2923 39.6161C30.5001 40.1275 31.083 40.3737 31.5944 40.1663L31.5938 40.1665L31.5934 40.1667C31.5935 40.1667 31.5941 40.1664 31.5951 40.166L31.5952 40.166Z" fill="#444444"/>
</g>
<defs>
<linearGradient id="paint0_linear_277_1416" x1="42" y1="19.3816" x2="24.7418" y2="2.31307" gradientUnits="userSpaceOnUse">
<stop stop-color="#89EBBB"/>
<stop offset="1" stop-color="#89EBBB" stop-opacity="0"/>
</linearGradient>
</defs>
</svg>
