<svg width="36" height="36" viewBox="0 0 36 36" fill="none" xmlns="http://www.w3.org/2000/svg">
<g clip-path="url(#clip0_1125_2517)">
<circle r="11.1328" transform="matrix(-1 0 0 1 24.6328 23.8828)" fill="url(#paint0_linear_1125_2517)"/>
<path d="M20.3059 0C21.3336 0.843267 21.7852 1.9822 21.9012 3.25994C21.9373 3.65828 22.0609 3.85697 22.4174 4.04046C25.742 5.75266 28.055 8.34711 29.1911 11.9379C29.2881 12.2431 29.3974 12.3552 29.7359 12.3486C31.1258 12.3182 32.3826 13.1814 32.953 14.5095C33.5044 15.792 33.2278 17.3407 32.2514 18.3323C31.1952 19.4047 29.9336 19.6756 28.5123 19.2259C28.0836 19.09 27.8478 18.6374 27.9685 18.2562C28.1102 17.8103 28.4943 17.5955 28.9687 17.6963C30.1361 17.9434 30.814 17.7238 31.3321 16.93C31.7552 16.2826 31.7228 15.3119 31.2579 14.7082C30.7674 14.0703 29.9032 13.7908 29.1445 14.0247C28.4657 14.2338 28.0722 14.0142 27.902 13.285C27.149 10.0508 25.3075 7.61793 22.4906 5.89812C22.3024 5.78308 22.1056 5.68421 21.9097 5.58154C21.8423 5.54636 21.7681 5.52164 21.6892 5.48932C20.7632 7.69874 19.1632 9.03541 16.7475 9.07439C14.2367 9.11432 12.534 7.80711 11.5148 5.38474C10.7296 5.92379 9.93669 6.39628 9.22366 6.9686C7.21104 8.58573 5.94281 10.6858 5.32771 13.189C5.11856 14.0408 4.79057 14.23 3.97202 13.9971C3.2533 13.7927 2.38816 14.1112 1.92422 14.751C1.48595 15.3537 1.46694 16.3025 1.87954 16.9357C2.33207 17.6288 3.11544 17.9615 3.88075 17.7847C4.88849 17.5517 5.09099 17.6924 5.3724 18.7154C6.672 23.4309 9.79503 26.2202 14.5105 27.284C15.1817 27.4352 15.8918 27.4105 16.5821 27.4799C17.1201 27.5341 17.4168 27.8611 17.3844 28.3326C17.355 28.7614 16.9928 29.0818 16.4993 29.0751C13.7566 29.0381 11.2448 28.2661 9.01261 26.6566C6.58263 24.9054 4.83525 22.6503 3.99484 19.7431C3.92924 19.5168 3.83797 19.4123 3.57273 19.4227C1.71317 19.495 0.207266 18.0338 0.0256831 16.3948C-0.203435 14.3194 1.02296 12.7041 3.02228 12.3667C3.29893 12.3201 3.58509 12.3372 3.89882 12.3229C4.898 8.80915 7.03136 6.16241 10.182 4.36369C13.3573 2.55072 16.7503 2.31875 20.2955 3.19054C20.2441 2.53836 19.9627 2.01072 19.591 1.51731C19.0786 0.837563 19.1109 0.539045 19.7355 0.000950696H20.305L20.3059 0ZM13.0806 4.83334C13.4942 6.40959 14.9763 7.51525 16.5925 7.51335C18.2695 7.51145 19.7631 6.41054 20.1776 4.84189C17.8199 4.14408 15.4716 4.12792 13.0806 4.83334Z" fill="#444444"/>
<path d="M16.8027 21.2451C15.39 21.2299 14.2986 20.8154 13.3888 19.9493C13.0921 19.6669 12.9486 19.3247 13.1463 18.9292C13.3089 18.6021 13.5941 18.4244 13.962 18.509C14.1493 18.5518 14.3338 18.6715 14.4868 18.797C15.8767 19.935 17.337 19.9502 18.7402 18.836C18.898 18.7115 19.0644 18.5641 19.2498 18.5156C19.6253 18.4187 19.9296 18.5698 20.1178 18.9187C20.3231 19.3 20.1948 19.627 19.9229 19.9046C19.2869 20.552 18.5111 20.9542 17.626 21.1367C17.3047 21.2032 16.9729 21.2232 16.8027 21.2441V21.2451Z" fill="#444444"/>
<path d="M11.8746 16.1163C11.0028 16.1192 10.2698 15.3967 10.2708 14.5325C10.2708 13.6635 10.998 12.9543 11.8812 12.961C12.7464 12.9676 13.448 13.6569 13.4613 14.5144C13.4746 15.3758 12.7454 16.1116 11.8755 16.1154L11.8746 16.1163Z" fill="#444444"/>
<path d="M21.3513 16.1164C20.4805 16.1164 19.7494 15.3901 19.7542 14.5269C19.7589 13.6579 20.4872 12.9525 21.3704 12.962C22.2317 12.9715 22.9362 13.6693 22.9447 14.5221C22.9533 15.3853 22.2231 16.1155 21.3523 16.1164H21.3513Z" fill="#444444"/>
<path d="M20.1595 25.5203C20.1595 26.3245 20.188 27.1602 20.1472 27.9911C20.1262 28.4123 20.2888 28.6157 20.6634 28.6813C21.9497 28.9076 23.2322 29.2603 24.527 29.3126C26.6204 29.3972 28.7243 29.3421 30.8178 29.2242C31.8911 29.1633 32.953 28.8496 34.0131 28.6224C34.1566 28.592 34.3686 28.4009 34.3724 28.2782C34.4028 27.3513 34.3886 26.4225 34.3886 25.5193C29.6313 26.5774 24.9149 26.5755 20.1586 25.5193L20.1595 25.5203ZM20.1595 30.2186C20.1595 31.0562 20.1947 31.8633 20.1462 32.6657C20.1177 33.1458 20.2974 33.373 20.7356 33.4462C22.0238 33.662 23.3054 33.9463 24.6031 34.0708C26.937 34.2952 29.2757 34.2163 31.5983 33.8883C32.4359 33.7694 33.2582 33.5375 34.0825 33.334C34.2022 33.3046 34.3743 33.1439 34.3772 33.0403C34.4 32.1038 34.3905 31.1664 34.3905 30.2167C29.7226 31.3128 24.9491 31.3128 20.1605 30.2186H20.1595ZM19.841 34.9283C19.0805 34.7344 18.5509 34.047 18.5557 33.2627C18.5766 29.7489 18.5614 28.1508 18.5557 24.1227C18.5557 23.461 18.8903 23.019 19.4341 22.7205C20.5645 22.0987 21.8175 21.9124 23.0715 21.7679C25.9084 21.4408 28.751 21.4522 31.584 21.7802C32.7705 21.9171 33.9627 22.0977 35.0446 22.6758C35.6872 23.019 36.0095 23.5057 36 24.2701C35.9696 26.5147 35.9896 28.7593 35.9886 31.0039C35.9886 32.4157 35.9772 32.6457 35.9791 33.1905C35.9829 34.086 35.3336 34.8513 34.4494 34.9939L34.4371 34.9958C34.4047 35.0006 34.3734 35.0072 34.342 35.0139C29.6094 36.0673 24.9073 36.0549 20.1586 35.011L19.8401 34.9293L19.841 34.9283ZM20.5864 23.8261C23.2854 25.0088 31.7 24.909 33.9237 23.8185C29.4545 22.8688 25.0841 22.8859 20.5864 23.8261Z" fill="#444444"/>
</g>
<defs>
<linearGradient id="paint0_linear_1125_2517" x1="2.84911e-07" y1="16.9922" x2="16.4063" y2="8.20312" gradientUnits="userSpaceOnUse">
<stop stop-color="#89EBBB"/>
<stop offset="1" stop-color="#89EBBB" stop-opacity="0"/>
</linearGradient>
<clipPath id="clip0_1125_2517">
<rect width="36" height="35.7985" fill="white"/>
</clipPath>
</defs>
</svg>
