<svg width="28" height="36" viewBox="0 0 28 36" fill="none" xmlns="http://www.w3.org/2000/svg">
<g clip-path="url(#clip0_1125_2505)">
<circle r="11.1328" transform="matrix(-1 0 0 1 15.6326 24.6328)" fill="url(#paint0_linear_1125_2505)"/>
<path d="M13.6876 23.2475C12.9608 23.1744 12.2917 23.1446 11.6373 23.0355C9.72067 22.7143 7.90931 22.1758 6.66725 20.534C6.42012 20.2075 6.0119 20.1615 5.69247 20.3671C5.31719 20.6089 5.20004 20.9977 5.43344 21.3775C5.59727 21.6436 5.80138 21.8926 6.02014 22.1172C7.07456 23.197 8.39533 23.8383 9.84332 24.1793C11.089 24.4725 12.3686 24.6276 13.6436 24.845V29.9436C13.251 29.9436 12.9041 29.9409 12.5563 29.9436C11.4963 29.9535 10.4364 29.958 9.37652 29.9797C8.29831 30.0013 7.65394 31.0405 7.96239 31.9606C8.34773 33.1098 8.73399 34.2582 9.13489 35.402C9.30238 35.8801 9.71793 36.0912 10.128 35.9451C10.5609 35.7908 10.7403 35.4074 10.581 34.9266C10.2607 33.9605 9.92845 32.9989 9.60443 32.0346C9.54951 31.8704 9.50924 31.7008 9.45981 31.5258H19.4539C19.0686 32.6696 18.6951 33.772 18.3281 34.877C18.156 35.3957 18.318 35.7917 18.7528 35.9505C19.1802 36.1065 19.5921 35.8909 19.7706 35.3777C20.1642 34.2465 20.5477 33.1126 20.9202 31.9741C21.2396 30.9981 20.5394 29.9391 19.3962 29.9463C18.1432 29.9544 16.8902 29.9688 15.6371 29.9607C15.5117 29.9607 15.2838 29.8191 15.2802 29.7352C15.2509 29.0713 15.2637 28.4055 15.2637 27.7353C17.3249 27.6279 19.0027 26.8495 20.2887 25.2952C20.6136 24.9019 20.5989 24.4653 20.253 24.1811C19.9262 23.9114 19.496 23.9637 19.1555 24.2993C18.8553 24.5952 18.5624 24.9037 18.232 25.1635C17.367 25.8409 16.3794 26.2 15.2253 26.218V25.6957C15.2253 23.7463 15.2271 21.7978 15.2225 19.8484C15.2225 19.6572 15.1996 19.4606 15.1511 19.2747C15.0614 18.9301 14.8134 18.7362 14.4564 18.7344C14.0766 18.7326 13.8313 18.9491 13.7352 19.3045C13.693 19.4606 13.6903 19.6301 13.6894 19.7934C13.6857 20.9156 13.6876 22.0378 13.6876 23.2475Z" fill="white"/>
<path d="M15.5992 0C16.3039 0.163276 17.0316 0.2607 17.7089 0.499749C21.8616 1.96743 24.3439 4.84234 24.9892 9.16688C25.4001 11.9182 24.6505 14.4134 23.057 16.6649C23.5952 16.9365 24.1544 17.1656 24.6569 17.4822C26.7932 18.8308 27.8019 21.3404 27.2554 23.8653C26.7493 26.2026 24.6697 28.0879 22.2085 28.4334C21.9092 28.4749 21.6035 28.5191 21.3042 28.5038C20.8356 28.4803 20.518 28.1348 20.5308 27.7235C20.5436 27.3067 20.8639 27.0207 21.3472 26.9946C23.4872 26.8809 25.0304 25.7389 25.6656 23.8012C26.5223 21.1852 24.6295 18.3229 21.8772 18.0722C21.7866 18.064 21.6959 18.0532 21.6062 18.0379C20.7687 17.8945 20.5656 17.3189 21.069 16.6541C21.62 15.9261 22.2158 15.2063 22.6259 14.4007C25.3763 8.99549 21.8332 2.45094 15.7676 1.59848C11.268 0.966122 7.06772 3.61822 5.75885 7.80746C4.99 10.2683 5.25543 12.657 6.52678 14.9212C6.6 15.052 6.68604 15.1765 6.75835 15.3082C7.08419 15.9027 6.80228 16.443 6.11306 16.4836C5.10624 16.5422 4.16349 16.7596 3.35528 17.392C1.79471 18.6152 1.19702 20.22 1.67847 22.1008C2.15533 23.9627 3.45231 25.0822 5.38083 25.4484C5.57213 25.4845 5.77441 25.4665 5.97211 25.4737C6.49566 25.4926 6.83615 25.8029 6.83706 26.263C6.83798 26.6843 6.4865 26.9955 5.97119 26.9901C3.96212 26.9684 2.3869 26.1024 1.17689 24.5527C0.602996 23.8175 0.235048 22.9876 0.0858547 22.0666C0.0748712 21.9971 0.0300218 21.933 0.000732422 21.8663V20.1569C0.0300218 20.0901 0.0730406 20.0261 0.08677 19.9566C0.551739 17.5778 2.00523 16.0578 4.28156 15.2514C4.47011 15.1846 4.6669 15.1404 4.87925 15.0791C3.94656 13.108 3.58411 11.0964 3.93009 9.0009C4.59734 4.9587 6.90296 2.174 10.739 0.651298C11.5554 0.326551 12.457 0.211085 13.3192 0H15.6001H15.5992Z" fill="#444444"/>
<path d="M13.6875 23.2475C13.6875 22.0378 13.6857 20.9156 13.6893 19.7934C13.6893 19.6302 13.693 19.4606 13.7351 19.3045C13.8312 18.9482 14.0765 18.7317 14.4563 18.7344C14.8133 18.7362 15.0604 18.9302 15.1511 19.2747C15.1996 19.4597 15.2215 19.6563 15.2224 19.8485C15.227 21.7978 15.2252 23.7463 15.2252 25.6957V26.218C16.3794 26.1991 17.367 25.8409 18.2319 25.1635C18.5633 24.9037 18.8562 24.5952 19.1555 24.2993C19.495 23.9637 19.9252 23.9114 20.2529 24.1811C20.598 24.4653 20.6135 24.9028 20.2886 25.2952C19.0026 26.8495 17.324 27.628 15.2636 27.7353C15.2636 28.4055 15.2508 29.0713 15.2801 29.7352C15.2838 29.8191 15.5117 29.9598 15.6371 29.9607C16.8901 29.9697 18.1431 29.9544 19.3962 29.9463C20.5394 29.9391 21.2396 30.9981 20.9201 31.9742C20.5476 33.1117 20.1641 34.2465 19.7705 35.3777C19.5921 35.891 19.1802 36.1066 18.7527 35.9505C18.318 35.7917 18.156 35.3957 18.328 34.877C18.6951 33.7729 19.0694 32.6697 19.4538 31.5258H9.45884C9.50826 31.7008 9.54854 31.8704 9.60345 32.0346C9.92747 32.9989 10.2597 33.9605 10.5801 34.9266C10.7393 35.4074 10.5599 35.7917 10.127 35.9451C9.71604 36.0912 9.30141 35.881 9.13391 35.402C8.73301 34.2582 8.34676 33.1099 7.96142 31.9606C7.65296 31.0405 8.29733 30.0022 9.37555 29.9797C10.4355 29.958 11.4954 29.9535 12.5553 29.9436C12.9031 29.94 13.25 29.9436 13.6426 29.9436V24.8451C12.3676 24.6277 11.0881 24.4725 9.84235 24.1793C8.39435 23.8383 7.07358 23.197 6.01916 22.1172C5.79949 21.8926 5.5963 21.6436 5.43246 21.3775C5.19906 20.9986 5.31622 20.6098 5.69149 20.3672C6.01093 20.1615 6.41915 20.2066 6.66628 20.534C7.90833 22.1749 9.7197 22.7144 11.6363 23.0355C12.2908 23.1455 12.9598 23.1753 13.6866 23.2475H13.6875Z" fill="#444444"/>
<path d="M18.0187 6.32884H15.725C16.2 6.7005 16.5442 7.23272 16.6421 7.97603H18.0178C18.2439 7.97603 18.427 8.15644 18.427 8.37926C18.427 8.60207 18.2439 8.78249 18.0178 8.78249H16.6577C16.4939 10.4297 15.1667 11.4788 13.0697 11.5437C14.0949 12.5928 15.1932 13.8603 16.298 15.1782C16.6257 15.5697 16.3437 16.1606 15.8284 16.1606C15.6472 16.1606 15.4751 16.0803 15.3598 15.9432C14.2294 14.6018 13.1475 13.338 11.814 11.9235C11.6318 11.7305 11.5293 11.477 11.5293 11.2127C11.5293 10.887 11.7975 10.6227 12.1279 10.6227H12.4299C14.1992 10.6227 15.1493 9.89655 15.2637 8.78249H11.9384C11.7124 8.78249 11.5293 8.60207 11.5293 8.37926C11.5293 8.15644 11.7124 7.97603 11.9384 7.97603H15.2152C14.9854 7.03968 14.1177 6.5715 12.6926 6.5715H12.062C11.7682 6.5715 11.5293 6.33696 11.5293 6.04649C11.5293 5.75693 11.7673 5.52148 12.062 5.52148H18.0169C18.243 5.52148 18.426 5.7019 18.426 5.92471C18.426 6.14752 18.243 6.32794 18.0169 6.32794L18.0187 6.32884Z" fill="#444444"/>
</g>
<defs>
<linearGradient id="paint0_linear_1125_2505" x1="2.84911e-07" y1="16.9922" x2="16.4063" y2="8.20312" gradientUnits="userSpaceOnUse">
<stop stop-color="#89EBBB"/>
<stop offset="1" stop-color="#89EBBB" stop-opacity="0"/>
</linearGradient>
<clipPath id="clip0_1125_2505">
<rect width="27.403" height="36" fill="white"/>
</clipPath>
</defs>
</svg>
