<svg width="36" height="36" viewBox="0 0 36 36" fill="none" xmlns="http://www.w3.org/2000/svg">
<circle r="8.33472" transform="matrix(-1 0 0 1 13.594 26.3347)" fill="url(#paint0_linear_1125_2531)"/>
<path d="M35.6671 0.901809L35.6444 0.886654C34.3108 -0.105935 33.2122 -0.0907805 32.5227 0.106222C32.2575 0.181992 32.0074 0.28807 31.765 0.424457C31.227 0.742691 30.78 1.22004 30.4693 1.81105L29.9086 2.88699C29.7949 3.10672 29.6964 3.34161 29.6358 3.58407L26.1807 15.874L22.8089 15.5936C19.7857 15.3209 17.4899 14.9951 15.1183 14.5101C12.6179 14.0025 11.9283 13.6388 10.8827 13.0781C10.3296 12.7826 9.70828 12.4492 8.746 12.04C7.10936 11.3429 5.66215 11.3051 4.57106 11.9415C4.32102 12.0855 4.1619 12.3431 4.15433 12.631C4.14675 12.919 4.28313 13.1842 4.51802 13.3433C4.77564 13.5175 5.11661 13.5327 5.37423 13.3812C6.01069 13.0175 6.95024 13.0781 8.0868 13.563C8.99604 13.9494 9.57189 14.2601 10.0871 14.5404C10.3599 14.6844 10.5872 14.8056 10.8221 14.9193L10.9585 14.9875L10.9433 15.0481L10.0265 18.9275H9.95832L7.7231 18.6396C7.09421 18.5563 6.45774 18.7305 5.97281 19.117C5.51819 19.4731 5.22269 19.9807 5.15449 20.5414L5.05599 21.3749C4.91203 22.5721 5.82885 23.6783 7.09421 23.8374L8.81419 24.0269L8.79146 24.1102L7.0639 31.3917L6.84417 31.2705C4.65441 30.0657 2.85108 28.5125 1.49479 26.6637C1.33568 26.4515 1.08563 26.3227 0.828016 26.3227C0.653745 26.3227 0.479474 26.3757 0.33551 26.4818C-0.0281865 26.7546 -0.111534 27.2698 0.161239 27.6411C3.35874 31.9752 8.65507 34.7559 15.0728 35.4682C16.073 35.5818 17.111 35.6348 18.1415 35.6348C24.3546 35.6348 30.4617 33.5512 34.4851 30.0506C34.8261 29.7475 34.864 29.2247 34.5685 28.8837C34.2654 28.5428 33.7426 28.5049 33.4016 28.8004C31.5604 30.3991 29.1964 31.7175 26.5596 32.6116L26.3398 32.6874L25.3472 24.9513V24.9134L31.4316 3.28857C31.6513 2.78849 32.2196 1.90197 32.9621 1.70497C33.4546 1.56859 34.0305 1.74286 34.6745 2.22779C35.0382 2.50056 35.5611 2.43237 35.8338 2.06867C36.1066 1.70497 36.0384 1.18216 35.6671 0.909386V0.901809ZM11.2995 20.7536L11.4661 20.7763L24.3395 22.3978L23.8925 23.9966H23.8318L10.8676 22.5721L11.2995 20.7536ZM7.29879 22.1781C7.10178 22.1553 6.92751 22.0568 6.82143 21.9205C6.73809 21.8144 6.7002 21.6856 6.71536 21.5643L6.81386 20.7309C6.82901 20.6096 6.88963 20.5035 7.00328 20.4202C7.14725 20.3065 7.33667 20.2611 7.5261 20.2838L9.64766 20.549L9.2082 22.3902L7.29879 22.1781ZM24.5668 33.1951C22.4831 33.7103 20.3161 33.9755 18.1339 33.9755C17.1716 33.9755 16.2018 33.9224 15.2622 33.8164C12.9361 33.5587 10.7463 33.0056 8.75357 32.1722L8.60203 32.1115L10.4811 24.1936L10.6478 24.2087L23.7636 25.6483V25.709L24.7335 33.1572L24.5668 33.1951ZM24.7941 20.7839L11.6783 19.1321L12.5194 15.5861L12.7088 15.6391C13.2695 15.7982 13.9514 15.9649 14.7773 16.1316C17.1413 16.609 19.3917 16.9348 22.3164 17.2075L24.3698 17.3894C24.7335 17.4197 25.1048 17.45 25.476 17.4803L25.7034 17.4955L24.779 20.7839H24.7941Z" fill="#444444"/>
<defs>
<linearGradient id="paint0_linear_1125_2531" x1="2.13302e-07" y1="12.7214" x2="12.2827" y2="6.14137" gradientUnits="userSpaceOnUse">
<stop stop-color="#89EBBB"/>
<stop offset="1" stop-color="#89EBBB" stop-opacity="0"/>
</linearGradient>
</defs>
</svg>
