<svg width="36" height="36" viewBox="0 0 36 36" fill="none" xmlns="http://www.w3.org/2000/svg">
<g clip-path="url(#clip0_1125_2492)">
<circle r="8.25" transform="matrix(-1 0 0 1 17.25 19.5)" fill="url(#paint0_linear_1125_2492)"/>
<path d="M35.9999 27.9792C35.7771 28.165 35.5787 28.3976 35.327 28.5302C31.5814 30.5036 27.8429 32.4905 24.0684 34.408C22.9978 34.9519 21.8389 35.3487 20.6844 35.6933C19.2035 36.1352 17.6973 35.9133 16.2587 35.466C13.7487 34.6849 11.2666 33.8155 8.77281 32.9821C8.2488 32.8071 7.732 32.6006 7.19807 32.4653C6.98522 32.4112 6.69029 32.4391 6.5072 32.5519C4.77011 33.6134 3.04925 34.7029 1.32208 35.7807C0.808892 36.1009 0.391304 36.0351 0.11622 35.6013C-0.121886 35.2261 0.00618593 34.8121 0.490515 34.509C2.40619 33.3086 4.32997 32.1226 6.24384 30.9194C6.63888 30.6714 7.01408 30.7598 7.40371 30.8933C10.1176 31.8249 12.8224 32.7846 15.5498 33.673C16.5383 33.9949 17.5719 34.2231 18.6019 34.3575C20.0296 34.5442 21.369 34.0833 22.6181 33.4466C25.7496 31.8484 28.8549 30.2006 31.971 28.5735C32.6177 28.2362 33.2671 27.9034 33.9832 27.5336C33.2427 27.0006 32.4662 26.675 31.6454 26.8662C30.3548 27.1674 29.0957 27.6067 27.8276 27.9999C27.1142 28.2209 26.4098 28.4698 25.7009 28.7043C25.1074 28.9 24.5573 29.1129 24.1027 29.6152C23.6626 30.1023 22.9807 30.0788 22.3431 30.0418C21.7415 30.0067 21.1372 30.0022 20.5347 29.9977C20.2569 29.9958 19.9791 30.0409 19.7013 30.0382C18.8878 30.0301 18.0752 29.9967 17.2617 29.9958C16.5086 29.9958 15.7564 30.0346 15.0033 30.0355C14.6768 30.0355 14.3394 30.022 14.0265 29.9408C13.645 29.8416 13.4781 29.5296 13.5187 29.1444C13.5575 28.7738 13.7848 28.5555 14.1636 28.514C14.2529 28.5041 14.3431 28.4969 14.4323 28.4969C17.1904 28.5005 19.9494 28.5041 22.7074 28.5113C23.1584 28.5122 23.5264 28.1857 23.5381 27.7492C23.5489 27.3451 23.2125 26.9988 22.7543 26.988C22.095 26.9726 21.4348 26.988 20.7755 26.988C19.9061 26.988 19.0357 27.0123 18.1672 26.9735C17.8957 26.9618 17.5647 26.8482 17.3753 26.6642C15.4813 24.817 13.2102 23.9701 10.583 24.0098C9.63865 24.0243 8.69254 24.0378 7.75004 24.0026C7.16019 23.981 6.64429 24.1226 6.12479 24.3895C4.51397 25.2166 2.89322 26.0256 1.26165 26.8112C1.02265 26.9266 0.6718 26.96 0.425577 26.8761C-0.0371061 26.7183 -0.133611 26.1194 0.204608 25.7623C0.324562 25.636 0.486006 25.5386 0.643841 25.4592C2.51712 24.5212 4.3904 23.585 6.2709 22.6624C6.47654 22.5613 6.72366 22.5027 6.95275 22.5009C8.34711 22.4865 9.74147 22.4802 11.1358 22.4964C13.7451 22.528 16.0125 23.456 17.9651 25.1661C18.2078 25.378 18.435 25.4818 18.7597 25.4763C19.989 25.4574 21.2184 25.4718 22.4477 25.4655C23.8502 25.4583 24.5627 25.9517 25.0614 27.3253C26.0725 26.9925 27.0835 26.656 28.0982 26.3278C29.0073 26.0337 29.9047 25.6793 30.8337 25.4736C32.8865 25.02 34.5703 25.691 35.8835 27.319C35.9187 27.3622 35.9602 27.4001 35.999 27.4398V27.9801L35.9999 27.9792Z" fill="#444444"/>
<path d="M18.3661 0C19.2265 0.246223 20.0753 0.509583 20.7941 1.0832C22.6565 2.56685 23.3627 4.50327 22.8099 6.78512C22.2669 9.02458 20.7364 10.4307 18.4798 10.8284C14.6899 11.4967 12.0392 8.40406 12.0545 5.59459C12.0689 2.84014 13.7817 0.662909 16.5046 0.0784667C16.5587 0.0667418 16.6065 0.0261556 16.657 0H18.3661V0ZM21.4525 5.51071C21.4994 3.35874 19.7821 1.57114 17.6238 1.52514C15.4196 1.47824 13.641 3.15761 13.5833 5.34205C13.5246 7.55716 15.2446 9.38083 17.4786 9.40519C19.5792 9.42864 21.4768 7.7168 21.4525 5.50981V5.51071Z" fill="#444444"/>
<path d="M36.0004 19.8826C35.8029 20.0278 35.6252 20.2443 35.4051 20.3047C34.8739 20.4517 34.5023 20.0684 34.4788 19.3992C34.4274 17.9146 33.8331 16.6754 32.7625 15.668C31.2139 14.2114 28.8888 13.8488 26.956 14.7363C26.8748 14.7732 26.7927 14.8093 26.7088 14.8427C26.2786 15.0141 25.8619 14.877 25.6734 14.5036C25.4849 14.1302 25.6301 13.7171 26.064 13.4925C27.066 12.9739 28.1366 12.7539 29.2658 12.7584C32.6705 12.7728 35.4872 15.4028 35.9228 18.5568C35.93 18.6109 35.9742 18.6605 36.0004 18.7128V19.8826Z" fill="#444444"/>
<path d="M17.4935 11.0591C21.5819 11.0618 25.1814 14.048 25.8949 18.0643C25.9833 18.5621 25.9968 19.0762 26.0094 19.584C26.0193 19.9998 25.7542 20.2812 25.3781 20.3254C24.9623 20.3741 24.6376 20.1693 24.56 19.74C24.4563 19.1682 24.4383 18.5793 24.3183 18.012C23.6915 15.0456 20.8252 12.393 17.1318 12.5896C14.1086 12.7502 11.3379 14.9346 10.6516 18.2311C10.5695 18.6235 10.5596 19.0329 10.5334 19.4352C10.4955 20.0205 10.2232 20.3371 9.74515 20.329C9.26262 20.32 9.01099 20.0025 9.01369 19.4036C9.02903 15.2404 12.3905 11.5633 16.5555 11.1538C16.8685 11.1231 17.1814 11.0906 17.4944 11.0591H17.4935Z" fill="#444444"/>
<path d="M24.7457 8.232C24.725 5.83921 26.6316 3.89017 29.01 3.87123C31.4497 3.85229 33.4348 5.76436 33.4591 8.15624C33.4835 10.5247 31.5552 12.5161 29.2887 12.6018C26.7579 12.6974 24.6555 10.5535 24.7457 8.232ZM29.0857 5.39096C27.4939 5.39367 26.2582 6.64643 26.2654 8.25004C26.2727 9.84643 27.5218 11.0812 29.1209 11.0739C30.6632 11.0667 31.9367 9.7869 31.9421 8.23741C31.9475 6.67529 30.656 5.38916 29.0857 5.39186V5.39096Z" fill="#444444"/>
</g>
<defs>
<linearGradient id="paint0_linear_1125_2492" x1="2.11134e-07" y1="12.5921" x2="12.1579" y2="6.07895" gradientUnits="userSpaceOnUse">
<stop stop-color="#89EBBB"/>
<stop offset="1" stop-color="#89EBBB" stop-opacity="0"/>
</linearGradient>
<clipPath id="clip0_1125_2492">
<rect width="36" height="35.9802" fill="white"/>
</clipPath>
</defs>
</svg>
