<svg xmlns="http://www.w3.org/2000/svg" width="121" height="20" viewBox="0 0 121 20">
    <path fill="#FFF" fill-rule="nonzero" d="M9.678 16.829c.696.758.545 1.82-.302 2.306-.923.562-2.011.865-3.176.865-3.417 0-6.049-2.762-6.2-6.222V1.533C0 .713.68.03 1.512.03s1.512.668 1.512 1.503v4.522h4.552c.817 0 1.497.682 1.497 1.517 0 .835-.665 1.518-1.497 1.518H3.01v4.688c0 1.776 1.437 3.217 3.191 3.217a3.19 3.19 0 0 0 1.649-.44c.59-.349 1.345-.182 1.83.274zM21.776 5.903c.817 0 1.513.668 1.513 1.502v6.48c0 3.46-2.753 6.115-6.125 6.115s-6.125-2.656-6.125-6.115v-6.48c0-.834.696-1.502 1.528-1.502h.015a1.48 1.48 0 0 1 1.482 1.502v6.48a3.071 3.071 0 0 0 3.1 3.11c1.709 0 3.1-1.335 3.1-3.11v-6.48c0-.834.68-1.502 1.512-1.502zm11.524.136c.983.334 1.36 1.533.71 2.337-.378.501-1.043.729-1.648.516a3.246 3.246 0 0 0-1.028-.167c-1.71 0-3.07 1.336-3.07 3.111v6.48a1.51 1.51 0 0 1-1.482 1.502c-.847.015-1.543-.698-1.543-1.548v-6.434c0-3.46 2.722-6.115 6.095-6.115.695 0 1.346.106 1.966.318zM43.447 16.54c.59-.349 1.33-.227 1.815.243.695.683.529 1.836-.303 2.337a6.182 6.182 0 0 1-3.19.88c-3.418 0-6.08-2.762-6.231-6.222V1.533c0-.82.695-1.396 1.527-1.396s1.497.561 1.497 1.396v4.522h4.613c.816 0 1.497.682 1.497 1.517 0 .835-.666 1.518-1.497 1.518h-4.613v4.688c.152 1.776 1.467 3.217 3.221 3.217.59 0 1.18-.166 1.664-.455zm8.499.455c.605.213.983.79.968 1.427v.045c0 1.032-.983 1.745-1.951 1.412-2.45-.835-4.25-3.172-4.25-5.934V1.7c0-.82.666-1.488 1.482-1.503.847-.015 1.543.698 1.543 1.548v12.2c0 1.427.953 2.626 2.208 3.05zm8.226-11.214c3.993-.106 7.274 3.111 7.26 7.117v.016c0 .834-.697 1.502-1.528 1.502h-9.33a4.027 4.027 0 0 0 3.765 2.55c.695 0 1.346-.168 1.905-.471a1.488 1.488 0 0 1 1.754.273c.711.713.53 1.927-.363 2.397a7.046 7.046 0 0 1-3.281.805c-3.962 0-7.168-3.263-7.078-7.254.091-3.763 3.146-6.843 6.896-6.935zm22.624.167a5.48 5.48 0 0 1 5.504 5.54v7.01c0 .82-.68 1.502-1.512 1.502a1.506 1.506 0 0 1-1.512-1.502v-7.01c0-1.427-1.104-2.535-2.496-2.535-1.39 0-2.495 1.108-2.495 2.534v7.01c0 .82-.68 1.503-1.512 1.503a1.506 1.506 0 0 1-1.512-1.502v-7.01c0-1.427-1.104-2.535-2.496-2.535-1.39 0-2.495 1.108-2.495 2.534v7.01c0 .82-.68 1.503-1.512 1.503a1.506 1.506 0 0 1-1.512-1.502v-6.996c0-3.11 2.465-5.554 5.52-5.554 1.587 0 2.994.668 4.007 1.745a5.492 5.492 0 0 1 4.023-1.745zm9.602 1.2c.832 0 1.513.667 1.513 1.501v9.849c0 .82-.681 1.502-1.513 1.502a1.506 1.506 0 0 1-1.512-1.502V8.649c0-.819.68-1.502 1.512-1.502zm.015-2.17a1.545 1.545 0 0 1-1.542-1.549c0-.854.69-1.547 1.542-1.547.852 0 1.543.693 1.543 1.547 0 .855-.69 1.548-1.543 1.548zm10.193.88c3.372 0 6.125 2.67 6.125 6.115v6.48c0 .819-.681 1.501-1.513 1.501a1.506 1.506 0 0 1-1.512-1.502v-6.48a3.071 3.071 0 0 0-3.1-3.11 3.071 3.071 0 0 0-3.1 3.11v6.48c0 .82-.68 1.502-1.512 1.502a1.506 1.506 0 0 1-1.513-1.502v-6.48c0-3.46 2.753-6.115 6.125-6.115zm17.965 10.895c.68.698.53 1.85-.302 2.337a6.182 6.182 0 0 1-3.19.88c-3.419 0-6.08-2.762-6.231-6.222V1.502c0-.82.68-1.502 1.512-1.502s1.512.668 1.512 1.502v4.553h4.613c.816 0 1.497.682 1.497 1.517 0 .835-.666 1.518-1.497 1.518h-4.613v4.643c.151 1.775 1.452 3.217 3.206 3.217.605 0 1.18-.167 1.664-.455.59-.35 1.346-.228 1.83.258zm-63.998-5.387h7.577a4.057 4.057 0 0 0-3.781-2.595 4.077 4.077 0 0 0-3.796 2.595z"/>
</svg>
